<?xml version="1.0" encoding="UTF-8" standalone="no"?>
<!DOCTYPE svg PUBLIC "-//W3C//DTD SVG 1.1//EN"
 "http://www.w3.org/Graphics/SVG/1.1/DTD/svg11.dtd">
<!-- Generated by graphviz version 2.43.0 (0)
 -->
<!-- Title: AnimalStateUpdate_Acyclic Pages: 1 -->
<svg width="1381pt" height="1740pt"
 viewBox="0.00 0.00 1381.00 1740.00" xmlns="http://www.w3.org/2000/svg" xmlns:xlink="http://www.w3.org/1999/xlink">
<g id="graph0" class="graph" transform="scale(1 1) rotate(0) translate(4 1736)">
<title>AnimalStateUpdate_Acyclic</title>
<polygon fill="white" stroke="transparent" points="-4,4 -4,-1736 1377,-1736 1377,4 -4,4"/>
<g id="clust1" class="cluster">
<title>cluster_normal_flow</title>
<polygon fill="#f1f8e9" stroke="#f1f8e9" points="8,-539 8,-1576 456,-1576 456,-539 8,-539"/>
<text text-anchor="middle" x="232" y="-1560.8" font-family="Times,serif" font-size="14.00">Estado: NORMAL</text>
</g>
<g id="clust2" class="cluster">
<title>cluster_normal_flow_1</title>
<polygon fill="#00f8e9" stroke="#00f8e9" points="226,-1225 226,-1545 448,-1545 448,-1225 226,-1225"/>
<text text-anchor="middle" x="337" y="-1529.8" font-family="Times,serif" font-size="14.00">(1)</text>
</g>
<g id="clust3" class="cluster">
<title>cluster_normal_flow_2</title>
<polygon fill="#00f8e9" stroke="#00f8e9" points="16,-633 16,-1185 448,-1185 448,-633 16,-633"/>
<text text-anchor="middle" x="232" y="-1169.8" font-family="Times,serif" font-size="14.00">(2)</text>
</g>
<g id="clust4" class="cluster">
<title>cluster_danger_flow</title>
<polygon fill="#f1f8e9" stroke="#f1f8e9" points="464,-445 464,-1576 872,-1576 872,-445 464,-445"/>
<text text-anchor="middle" x="668" y="-1560.8" font-family="Times,serif" font-size="14.00">Estado: DANGER</text>
</g>
<g id="clust5" class="cluster">
<title>cluster_danger_flow_1</title>
<polygon fill="#00f8e9" stroke="#00f8e9" points="476,-1331 476,-1545 700,-1545 700,-1331 476,-1331"/>
<text text-anchor="middle" x="588" y="-1529.8" font-family="Times,serif" font-size="14.00">(1)</text>
</g>
<g id="clust6" class="cluster">
<title>cluster_danger_flow_2</title>
<polygon fill="#00f8e9" stroke="#00f8e9" points="588,-1110 588,-1312 786,-1312 786,-1110 588,-1110"/>
<text text-anchor="middle" x="687" y="-1296.8" font-family="Times,serif" font-size="14.00">(2)</text>
</g>
<g id="clust7" class="cluster">
<title>cluster_danger_flow_3</title>
<polygon fill="#00f8e9" stroke="#00f8e9" points="472,-539 472,-1082 782,-1082 782,-539 472,-539"/>
<text text-anchor="middle" x="627" y="-1066.8" font-family="Times,serif" font-size="14.00">(3)</text>
</g>
<g id="clust8" class="cluster">
<title>cluster_mate_flow</title>
<polygon fill="#f1f8e9" stroke="#f1f8e9" points="880,-8 880,-1587 1365,-1587 1365,-8 880,-8"/>
<text text-anchor="middle" x="1122.5" y="-1571.8" font-family="Times,serif" font-size="14.00">Estado: MATE</text>
</g>
<g id="clust9" class="cluster">
<title>cluster_mate_flow_1</title>
<polygon fill="#00f8e9" stroke="#00f8e9" points="888,-1331 888,-1556 1178,-1556 1178,-1331 888,-1331"/>
<text text-anchor="middle" x="1033" y="-1540.8" font-family="Times,serif" font-size="14.00">(1)</text>
</g>
<g id="clust10" class="cluster">
<title>cluster_mate_flow_2</title>
<polygon fill="#00f8e9" stroke="#00f8e9" points="888,-539 888,-1300 1357,-1300 1357,-539 888,-539"/>
<text text-anchor="middle" x="1122.5" y="-1284.8" font-family="Times,serif" font-size="14.00">(2)</text>
</g>
<g id="clust11" class="cluster">
<title>cluster_mate_flow_3</title>
<polygon fill="#00f8e9" stroke="#00f8e9" points="1077,-363 1077,-520 1301,-520 1301,-363 1077,-363"/>
<text text-anchor="middle" x="1189" y="-504.8" font-family="Times,serif" font-size="14.00">(3)</text>
</g>
<g id="clust12" class="cluster">
<title>cluster_mate_flow_4</title>
<polygon fill="#00f8e9" stroke="#00f8e9" points="902,-81 902,-344 1343,-344 1343,-81 902,-81"/>
<text text-anchor="middle" x="1122.5" y="-328.8" font-family="Times,serif" font-size="14.00">(4)</text>
</g>
<!-- Start -->
<g id="node1" class="node">
<title>Start</title>
<ellipse fill="#e1f5fe" stroke="#333333" cx="588" cy="-1714" rx="90.13" ry="18"/>
<text text-anchor="middle" x="588" y="-1711.5" font-family="Arial" font-size="10.00">Inicio: Actualizar Estado Sheep</text>
</g>
<!-- StateDecider -->
<g id="node2" class="node">
<title>StateDecider</title>
<polygon fill="#f5f5f5" stroke="#333333" points="588,-1659 518.81,-1641 588,-1623 657.19,-1641 588,-1659"/>
<text text-anchor="middle" x="588" y="-1638.5" font-family="Arial" font-size="10.00">Estado Actual?</text>
</g>
<!-- Start&#45;&gt;StateDecider -->
<g id="edge1" class="edge">
<title>Start&#45;&gt;StateDecider</title>
<path fill="none" stroke="#555555" d="M588,-1695.81C588,-1687.79 588,-1678.05 588,-1669.07"/>
<polygon fill="#555555" stroke="#555555" points="591.5,-1669.03 588,-1659.03 584.5,-1669.03 591.5,-1669.03"/>
</g>
<!-- N_1_i -->
<g id="node3" class="node">
<title>N_1_i</title>
<path fill="#f5f5f5" stroke="#333333" d="M327.88,-1509.49C327.88,-1509.49 249.12,-1477.51 249.12,-1477.51 243.56,-1475.26 243.56,-1470.74 249.12,-1468.49 249.12,-1468.49 327.88,-1436.51 327.88,-1436.51 333.44,-1434.26 344.56,-1434.26 350.12,-1436.51 350.12,-1436.51 428.88,-1468.49 428.88,-1468.49 434.44,-1470.74 434.44,-1475.26 428.88,-1477.51 428.88,-1477.51 350.12,-1509.49 350.12,-1509.49 344.56,-1511.74 333.44,-1511.74 327.88,-1509.49"/>
<text text-anchor="middle" x="339" y="-1481.5" font-family="Arial" font-size="10.00">i: la distancia del </text>
<text text-anchor="middle" x="339" y="-1470.5" font-family="Arial" font-size="10.00"> animal al destino </text>
<text text-anchor="middle" x="339" y="-1459.5" font-family="Arial" font-size="10.00"> es menor que 8.0?</text>
</g>
<!-- StateDecider&#45;&gt;N_1_i -->
<g id="edge57" class="edge">
<title>StateDecider&#45;&gt;N_1_i</title>
<path fill="none" stroke="#555555" d="M563.31,-1629.27C527.66,-1613.79 466,-1587 466,-1587 466,-1587 415.16,-1541.76 377.81,-1508.53"/>
<polygon fill="#555555" stroke="#555555" points="379.87,-1505.68 370.07,-1501.64 375.21,-1510.91 379.87,-1505.68"/>
<text text-anchor="middle" x="525" y="-1597.8" font-family="Arial" font-size="9.00">NORMAL</text>
</g>
<!-- D_1 -->
<g id="node13" class="node">
<title>D_1</title>
<path fill="#f5f5f5" stroke="#333333" d="M576.84,-1509.6C576.84,-1509.6 495.16,-1477.4 495.16,-1477.4 489.58,-1475.2 489.58,-1470.8 495.16,-1468.6 495.16,-1468.6 576.84,-1436.4 576.84,-1436.4 582.42,-1434.2 593.58,-1434.2 599.16,-1436.4 599.16,-1436.4 680.84,-1468.6 680.84,-1468.6 686.42,-1470.8 686.42,-1475.2 680.84,-1477.4 680.84,-1477.4 599.16,-1509.6 599.16,-1509.6 593.58,-1511.8 582.42,-1511.8 576.84,-1509.6"/>
<text text-anchor="middle" x="588" y="-1481.5" font-family="Arial" font-size="10.00">1: dangerSource no </text>
<text text-anchor="middle" x="588" y="-1470.5" font-family="Arial" font-size="10.00"> es null y su </text>
<text text-anchor="middle" x="588" y="-1459.5" font-family="Arial" font-size="10.00"> estado es DEAD?</text>
</g>
<!-- StateDecider&#45;&gt;D_1 -->
<g id="edge58" class="edge">
<title>StateDecider&#45;&gt;D_1</title>
<path fill="none" stroke="#555555" d="M588,-1622.86C588,-1599.81 588,-1557.86 588,-1524.35"/>
<polygon fill="#555555" stroke="#555555" points="591.5,-1524.25 588,-1514.25 584.5,-1524.25 591.5,-1524.25"/>
<text text-anchor="middle" x="608" y="-1597.8" font-family="Arial" font-size="9.00">DANGER</text>
</g>
<!-- M_1 -->
<g id="node25" class="node">
<title>M_1</title>
<path fill="#f5f5f5" stroke="#333333" d="M1021.78,-1520.74C1021.78,-1520.74 907.22,-1477.26 907.22,-1477.26 901.61,-1475.13 901.61,-1470.87 907.22,-1468.74 907.22,-1468.74 1021.78,-1425.26 1021.78,-1425.26 1027.39,-1423.13 1038.61,-1423.13 1044.22,-1425.26 1044.22,-1425.26 1158.78,-1468.74 1158.78,-1468.74 1164.39,-1470.87 1164.39,-1475.13 1158.78,-1477.26 1158.78,-1477.26 1044.22,-1520.74 1044.22,-1520.74 1038.61,-1522.87 1027.39,-1522.87 1021.78,-1520.74"/>
<text text-anchor="middle" x="1033" y="-1487" font-family="Arial" font-size="10.00">1: mateTarget no es </text>
<text text-anchor="middle" x="1033" y="-1476" font-family="Arial" font-size="10.00"> null y su estado es DEAD </text>
<text text-anchor="middle" x="1033" y="-1465" font-family="Arial" font-size="10.00"> o está fuera del </text>
<text text-anchor="middle" x="1033" y="-1454" font-family="Arial" font-size="10.00"> campo visual?</text>
</g>
<!-- StateDecider&#45;&gt;M_1 -->
<g id="edge59" class="edge">
<title>StateDecider&#45;&gt;M_1</title>
<path fill="none" stroke="#555555" d="M615.17,-1629.87C681.53,-1605.11 853.84,-1540.83 955.25,-1503"/>
<polygon fill="#555555" stroke="#555555" points="956.69,-1506.2 964.84,-1499.43 954.25,-1499.64 956.69,-1506.2"/>
<text text-anchor="middle" x="719.5" y="-1597.8" font-family="Arial" font-size="9.00">MATE</text>
</g>
<!-- N_1_i_yes -->
<g id="node4" class="node">
<title>N_1_i_yes</title>
<path fill="#f5f5f5" stroke="#333333" d="M328.5,-1375C328.5,-1375 245.5,-1375 245.5,-1375 239.5,-1375 233.5,-1369 233.5,-1363 233.5,-1363 233.5,-1351 233.5,-1351 233.5,-1345 239.5,-1339 245.5,-1339 245.5,-1339 328.5,-1339 328.5,-1339 334.5,-1339 340.5,-1345 340.5,-1351 340.5,-1351 340.5,-1363 340.5,-1363 340.5,-1369 334.5,-1375 328.5,-1375"/>
<text text-anchor="start" x="241.5" y="-1360" font-family="Arial" font-size="10.00">i: Elegir otro destino </text>
<text text-anchor="middle" x="287" y="-1349" font-family="Arial" font-size="10.00"> de manera aleatoria</text>
</g>
<!-- N_1_i&#45;&gt;N_1_i_yes -->
<g id="edge2" class="edge">
<title>N_1_i&#45;&gt;N_1_i_yes</title>
<path fill="none" stroke="#555555" d="M323.54,-1438.1C315.7,-1420.93 306.33,-1400.39 299.04,-1384.4"/>
<polygon fill="#555555" stroke="#555555" points="302.14,-1382.76 294.81,-1375.11 295.77,-1385.66 302.14,-1382.76"/>
<text text-anchor="middle" x="310.5" y="-1395.8" font-family="Arial" font-size="9.00">Sí</text>
</g>
<!-- N_1_ii -->
<g id="node5" class="node">
<title>N_1_ii</title>
<path fill="#f5f5f5" stroke="#333333" d="M340,-1269C340,-1269 310,-1269 310,-1269 304,-1269 298,-1263 298,-1257 298,-1257 298,-1245 298,-1245 298,-1239 304,-1233 310,-1233 310,-1233 340,-1233 340,-1233 346,-1233 352,-1239 352,-1245 352,-1245 352,-1257 352,-1257 352,-1263 346,-1269 340,-1269"/>
<text text-anchor="middle" x="325" y="-1248.5" font-family="Arial" font-size="10.00">1.ii &#45; 1.v</text>
</g>
<!-- N_1_i&#45;&gt;N_1_ii -->
<g id="edge3" class="edge">
<title>N_1_i&#45;&gt;N_1_ii</title>
<path fill="none" stroke="#555555" d="M347.7,-1435.33C354.21,-1407.86 362,-1375 362,-1375 362,-1375 362,-1331 362,-1331 362,-1331 348.15,-1301.43 337.4,-1278.47"/>
<polygon fill="#555555" stroke="#555555" points="340.44,-1276.71 333.03,-1269.14 334.1,-1279.68 340.44,-1276.71"/>
<text text-anchor="middle" x="368.5" y="-1354.8" font-family="Arial" font-size="9.00">No</text>
</g>
<!-- N_1_i_yes&#45;&gt;N_1_ii -->
<g id="edge4" class="edge">
<title>N_1_i_yes&#45;&gt;N_1_ii</title>
<path fill="none" stroke="#555555" d="M293.27,-1338.83C299.24,-1322.49 308.31,-1297.67 315.23,-1278.75"/>
<polygon fill="#555555" stroke="#555555" points="318.57,-1279.79 318.72,-1269.2 312,-1277.39 318.57,-1279.79"/>
</g>
<!-- N_2_i -->
<g id="node6" class="node">
<title>N_2_i</title>
<path fill="#f5f5f5" stroke="#333333" d="M313.18,-1151.91C313.18,-1151.91 235.19,-1138.09 235.19,-1138.09 229.28,-1137.05 229.28,-1134.95 235.19,-1133.91 235.19,-1133.91 313.18,-1120.09 313.18,-1120.09 319.09,-1119.05 330.91,-1119.05 336.82,-1120.09 336.82,-1120.09 414.81,-1133.91 414.81,-1133.91 420.72,-1134.95 420.72,-1137.05 414.81,-1138.09 414.81,-1138.09 336.82,-1151.91 336.82,-1151.91 330.91,-1152.95 319.09,-1152.95 313.18,-1151.91"/>
<text text-anchor="middle" x="325" y="-1133.5" font-family="Arial" font-size="10.00">i: dangerSource es null?</text>
</g>
<!-- N_1_ii&#45;&gt;N_2_i -->
<g id="edge11" class="edge">
<title>N_1_ii&#45;&gt;N_2_i</title>
<path fill="none" stroke="#555555" d="M325,-1232.84C325,-1214.67 325,-1185.72 325,-1164.39"/>
<polygon fill="#555555" stroke="#555555" points="328.5,-1164.32 325,-1154.32 321.5,-1164.32 328.5,-1164.32"/>
</g>
<!-- N_2_i_yes -->
<g id="node7" class="node">
<title>N_2_i_yes</title>
<path fill="#f5f5f5" stroke="#333333" d="M240,-1017C240,-1017 128,-1017 128,-1017 122,-1017 116,-1011 116,-1005 116,-1005 116,-993 116,-993 116,-987 122,-981 128,-981 128,-981 240,-981 240,-981 246,-981 252,-987 252,-993 252,-993 252,-1005 252,-1005 252,-1011 246,-1017 240,-1017"/>
<text text-anchor="start" x="124" y="-1002" font-family="Arial" font-size="10.00">i: buscar un nuevo animal </text>
<text text-anchor="middle" x="184" y="-991" font-family="Arial" font-size="10.00"> que se considere peligroso</text>
</g>
<!-- N_2_i&#45;&gt;N_2_i_yes -->
<g id="edge5" class="edge">
<title>N_2_i&#45;&gt;N_2_i_yes</title>
<path fill="none" stroke="#555555" d="M309.91,-1120.55C285.91,-1097.57 238.77,-1052.44 209.47,-1024.39"/>
<polygon fill="#555555" stroke="#555555" points="211.72,-1021.69 202.07,-1017.3 206.88,-1026.75 211.72,-1021.69"/>
<text text-anchor="middle" x="292.5" y="-1092.8" font-family="Arial" font-size="9.00">Sí</text>
</g>
<!-- N_2_ii -->
<g id="node8" class="node">
<title>N_2_ii</title>
<path fill="#f5f5f5" stroke="#333333" d="M252.62,-897.21C252.62,-897.21 185.38,-874.79 185.38,-874.79 179.69,-872.9 179.69,-869.1 185.38,-867.21 185.38,-867.21 252.62,-844.79 252.62,-844.79 258.31,-842.9 269.69,-842.9 275.38,-844.79 275.38,-844.79 342.62,-867.21 342.62,-867.21 348.31,-869.1 348.31,-872.9 342.62,-874.79 342.62,-874.79 275.38,-897.21 275.38,-897.21 269.69,-899.1 258.31,-899.1 252.62,-897.21"/>
<text text-anchor="middle" x="264" y="-874" font-family="Arial" font-size="10.00">ii: dangerSource </text>
<text text-anchor="middle" x="264" y="-863" font-family="Arial" font-size="10.00"> no es null</text>
</g>
<!-- N_2_i&#45;&gt;N_2_ii -->
<g id="edge6" class="edge">
<title>N_2_i&#45;&gt;N_2_ii</title>
<path fill="none" stroke="#555555" d="M321.18,-1118.55C311.54,-1076.96 286,-966.83 272.55,-908.87"/>
<polygon fill="#555555" stroke="#555555" points="275.94,-907.97 270.27,-899.02 269.12,-909.55 275.94,-907.97"/>
<text text-anchor="middle" x="318.5" y="-996.8" font-family="Arial" font-size="9.00">No</text>
</g>
<!-- N_2_i_yes&#45;&gt;N_2_ii -->
<g id="edge7" class="edge">
<title>N_2_i_yes&#45;&gt;N_2_ii</title>
<path fill="none" stroke="#555555" d="M194.96,-980.74C207.3,-961.3 227.67,-929.23 243.08,-904.94"/>
<polygon fill="#555555" stroke="#555555" points="246.11,-906.7 248.52,-896.39 240.2,-902.95 246.11,-906.7"/>
</g>
<!-- N_2_ii_a -->
<g id="node9" class="node">
<title>N_2_ii_a</title>
<path fill="#f5f5f5" stroke="#333333" d="M170.5,-783C170.5,-783 35.5,-783 35.5,-783 29.5,-783 23.5,-777 23.5,-771 23.5,-771 23.5,-759 23.5,-759 23.5,-753 29.5,-747 35.5,-747 35.5,-747 170.5,-747 170.5,-747 176.5,-747 182.5,-753 182.5,-759 182.5,-759 182.5,-771 182.5,-771 182.5,-777 176.5,-783 170.5,-783"/>
<text text-anchor="middle" x="103" y="-762.5" font-family="Arial" font-size="10.00">ii: cambiar el estado a DANGER</text>
</g>
<!-- N_2_ii&#45;&gt;N_2_ii_a -->
<g id="edge8" class="edge">
<title>N_2_ii&#45;&gt;N_2_ii_a</title>
<path fill="none" stroke="#555555" d="M234.09,-850.68C206.9,-833.11 166.75,-807.18 138.05,-788.64"/>
<polygon fill="#555555" stroke="#555555" points="139.84,-785.63 129.54,-783.15 136.04,-791.51 139.84,-785.63"/>
<text text-anchor="middle" x="193.5" y="-815.8" font-family="Arial" font-size="9.00">Sí</text>
</g>
<!-- N_2_ii_b -->
<g id="node10" class="node">
<title>N_2_ii_b</title>
<path fill="#f5f5f5" stroke="#333333" d="M321.17,-781.01C321.17,-781.01 237.55,-766.99 237.55,-766.99 231.63,-765.99 231.63,-764.01 237.55,-763.01 237.55,-763.01 321.17,-748.99 321.17,-748.99 327.08,-747.99 338.92,-747.99 344.83,-748.99 344.83,-748.99 428.45,-763.01 428.45,-763.01 434.37,-764.01 434.37,-765.99 428.45,-766.99 428.45,-766.99 344.83,-781.01 344.83,-781.01 338.92,-782.01 327.08,-782.01 321.17,-781.01"/>
<text text-anchor="middle" x="333" y="-762.5" font-family="Arial" font-size="10.00">ii: el deseo mayor de 65.0</text>
</g>
<!-- N_2_ii&#45;&gt;N_2_ii_b -->
<g id="edge9" class="edge">
<title>N_2_ii&#45;&gt;N_2_ii_b</title>
<path fill="none" stroke="#555555" d="M279.83,-846.14C290.98,-829.34 305.84,-806.94 317.02,-790.09"/>
<polygon fill="#555555" stroke="#555555" points="320.19,-791.64 322.8,-781.37 314.36,-787.77 320.19,-791.64"/>
<text text-anchor="middle" x="306.5" y="-815.8" font-family="Arial" font-size="9.00">No</text>
</g>
<!-- N_end -->
<g id="node12" class="node">
<title>N_end</title>
<path fill="#f5f5f5" stroke="#333333" d="M283,-583C283,-583 209,-583 209,-583 203,-583 197,-577 197,-571 197,-571 197,-559 197,-559 197,-553 203,-547 209,-547 209,-547 283,-547 283,-547 289,-547 295,-553 295,-559 295,-559 295,-571 295,-571 295,-577 289,-583 283,-583"/>
<text text-anchor="middle" x="246" y="-562.5" font-family="Arial" font-size="10.00">Fin Estado Normal</text>
</g>
<!-- N_2_ii_a&#45;&gt;N_end -->
<g id="edge12" class="edge">
<title>N_2_ii_a&#45;&gt;N_end</title>
<path fill="none" stroke="#555555" d="M138.66,-746.9C166.68,-733.46 201,-717 201,-717 201,-717 223,-689 223,-689 223,-689 234.17,-629.27 240.94,-593.06"/>
<polygon fill="#555555" stroke="#555555" points="244.4,-593.58 242.8,-583.1 237.52,-592.29 244.4,-593.58"/>
</g>
<!-- N_2_ii_c -->
<g id="node11" class="node">
<title>N_2_ii_c</title>
<path fill="#f5f5f5" stroke="#333333" d="M189.5,-677C189.5,-677 70.5,-677 70.5,-677 64.5,-677 58.5,-671 58.5,-665 58.5,-665 58.5,-653 58.5,-653 58.5,-647 64.5,-641 70.5,-641 70.5,-641 189.5,-641 189.5,-641 195.5,-641 201.5,-647 201.5,-653 201.5,-653 201.5,-665 201.5,-665 201.5,-671 195.5,-677 189.5,-677"/>
<text text-anchor="middle" x="130" y="-656.5" font-family="Arial" font-size="10.00">ii: cambiar el estado a MATE</text>
</g>
<!-- N_2_ii_b&#45;&gt;N_2_ii_c -->
<g id="edge10" class="edge">
<title>N_2_ii_b&#45;&gt;N_2_ii_c</title>
<path fill="none" stroke="#555555" d="M297.69,-752.86C253.63,-738.96 184,-717 184,-717 184,-717 167.83,-699.93 153.19,-684.48"/>
<polygon fill="#555555" stroke="#555555" points="155.62,-681.95 146.2,-677.1 150.54,-686.77 155.62,-681.95"/>
<text text-anchor="middle" x="187.5" y="-709.8" font-family="Arial" font-size="9.00">S­</text>
</g>
<!-- N_2_ii_b&#45;&gt;N_end -->
<g id="edge13" class="edge">
<title>N_2_ii_b&#45;&gt;N_end</title>
<path fill="none" stroke="#555555" d="M326.03,-748.13C311.1,-714.15 275.9,-634.05 257.56,-592.32"/>
<polygon fill="#555555" stroke="#555555" points="260.72,-590.81 253.5,-583.06 254.32,-593.63 260.72,-590.81"/>
<text text-anchor="middle" x="306.5" y="-656.8" font-family="Arial" font-size="9.00">No</text>
</g>
<!-- N_2_ii_c&#45;&gt;N_end -->
<g id="edge14" class="edge">
<title>N_2_ii_c&#45;&gt;N_end</title>
<path fill="none" stroke="#555555" d="M151.55,-640.91C169.74,-626.48 195.99,-605.66 216.2,-589.63"/>
<polygon fill="#555555" stroke="#555555" points="218.51,-592.27 224.17,-583.31 214.17,-586.78 218.51,-592.27"/>
</g>
<!-- D_1_a -->
<g id="node14" class="node">
<title>D_1_a</title>
<path fill="#f5f5f5" stroke="#333333" d="M614.5,-1375C614.5,-1375 497.5,-1375 497.5,-1375 491.5,-1375 485.5,-1369 485.5,-1363 485.5,-1363 485.5,-1351 485.5,-1351 485.5,-1345 491.5,-1339 497.5,-1339 497.5,-1339 614.5,-1339 614.5,-1339 620.5,-1339 626.5,-1345 626.5,-1351 626.5,-1351 626.5,-1363 626.5,-1363 626.5,-1369 620.5,-1375 614.5,-1375"/>
<text text-anchor="middle" x="556" y="-1354.5" font-family="Arial" font-size="10.00">1: poner dangerSource a null</text>
</g>
<!-- D_1&#45;&gt;D_1_a -->
<g id="edge15" class="edge">
<title>D_1&#45;&gt;D_1_a</title>
<path fill="none" stroke="#555555" d="M577.88,-1435.93C573.23,-1419.39 567.83,-1400.13 563.55,-1384.89"/>
<polygon fill="#555555" stroke="#555555" points="566.86,-1383.75 560.79,-1375.07 560.12,-1385.64 566.86,-1383.75"/>
<text text-anchor="middle" x="572.5" y="-1395.8" font-family="Arial" font-size="9.00">Sí</text>
</g>
<!-- D_2 -->
<g id="node15" class="node">
<title>D_2</title>
<path fill="#f5f5f5" stroke="#333333" d="M675.6,-1277.24C675.6,-1277.24 607.4,-1254.76 607.4,-1254.76 601.7,-1252.88 601.7,-1249.12 607.4,-1247.24 607.4,-1247.24 675.6,-1224.76 675.6,-1224.76 681.3,-1222.88 692.7,-1222.88 698.4,-1224.76 698.4,-1224.76 766.6,-1247.24 766.6,-1247.24 772.3,-1249.12 772.3,-1252.88 766.6,-1254.76 766.6,-1254.76 698.4,-1277.24 698.4,-1277.24 692.7,-1279.12 681.3,-1279.12 675.6,-1277.24"/>
<text text-anchor="middle" x="687" y="-1254" font-family="Arial" font-size="10.00">2: dangerSource </text>
<text text-anchor="middle" x="687" y="-1243" font-family="Arial" font-size="10.00"> es null</text>
</g>
<!-- D_1&#45;&gt;D_2 -->
<g id="edge23" class="edge">
<title>D_1&#45;&gt;D_2</title>
<path fill="none" stroke="#555555" d="M607.98,-1439.7C625.43,-1411.48 648,-1375 648,-1375 648,-1375 664.02,-1324.48 675.53,-1288.19"/>
<polygon fill="#555555" stroke="#555555" points="678.95,-1288.98 678.63,-1278.39 672.27,-1286.86 678.95,-1288.98"/>
<text text-anchor="middle" x="667.5" y="-1354.8" font-family="Arial" font-size="9.00">No</text>
</g>
<!-- D_1_a&#45;&gt;D_2 -->
<g id="edge24" class="edge">
<title>D_1_a&#45;&gt;D_2</title>
<path fill="none" stroke="#555555" d="M577.63,-1338.83C598.04,-1322.62 628.98,-1298.07 652.74,-1279.2"/>
<polygon fill="#555555" stroke="#555555" points="655.16,-1281.74 660.82,-1272.78 650.81,-1276.26 655.16,-1281.74"/>
</g>
<!-- D_2_a -->
<g id="node16" class="node">
<title>D_2_a</title>
<path fill="#f5f5f5" stroke="#333333" d="M645,-1154C645,-1154 609,-1154 609,-1154 603,-1154 597,-1148 597,-1142 597,-1142 597,-1130 597,-1130 597,-1124 603,-1118 609,-1118 609,-1118 645,-1118 645,-1118 651,-1118 657,-1124 657,-1130 657,-1130 657,-1142 657,-1142 657,-1148 651,-1154 645,-1154"/>
<text text-anchor="middle" x="627" y="-1133.5" font-family="Arial" font-size="10.00">2: Avanza</text>
</g>
<!-- D_2&#45;&gt;D_2_a -->
<g id="edge16" class="edge">
<title>D_2&#45;&gt;D_2_a</title>
<path fill="none" stroke="#555555" d="M673.83,-1225.2C664.04,-1206.75 650.7,-1181.63 640.76,-1162.91"/>
<polygon fill="#555555" stroke="#555555" points="643.83,-1161.23 636.05,-1154.04 637.65,-1164.52 643.83,-1161.23"/>
<text text-anchor="middle" x="664.5" y="-1195.8" font-family="Arial" font-size="9.00">Sí</text>
</g>
<!-- D_2_b -->
<g id="node17" class="node">
<title>D_2_b</title>
<path fill="#f5f5f5" stroke="#333333" d="M742,-1154C742,-1154 712,-1154 712,-1154 706,-1154 700,-1148 700,-1142 700,-1142 700,-1130 700,-1130 700,-1124 706,-1118 712,-1118 712,-1118 742,-1118 742,-1118 748,-1118 754,-1124 754,-1130 754,-1130 754,-1142 754,-1142 754,-1148 748,-1154 742,-1154"/>
<text text-anchor="middle" x="727" y="-1133.5" font-family="Arial" font-size="10.00">2.i &#45; 2.v</text>
</g>
<!-- D_2&#45;&gt;D_2_b -->
<g id="edge17" class="edge">
<title>D_2&#45;&gt;D_2_b</title>
<path fill="none" stroke="#555555" d="M696.28,-1223.79C702.63,-1205.83 711.04,-1182.07 717.46,-1163.96"/>
<polygon fill="#555555" stroke="#555555" points="720.84,-1164.88 720.88,-1154.29 714.24,-1162.54 720.84,-1164.88"/>
<text text-anchor="middle" x="713.5" y="-1195.8" font-family="Arial" font-size="9.00">No</text>
</g>
<!-- D_3 -->
<g id="node18" class="node">
<title>D_3</title>
<path fill="#f5f5f5" stroke="#333333" d="M644,-1046.2C644,-1046.2 547,-1003.8 547,-1003.8 541.5,-1001.4 541.5,-996.6 547,-994.2 547,-994.2 644,-951.8 644,-951.8 649.5,-949.4 660.5,-949.4 666,-951.8 666,-951.8 763,-994.2 763,-994.2 768.5,-996.6 768.5,-1001.4 763,-1003.8 763,-1003.8 666,-1046.2 666,-1046.2 660.5,-1048.6 649.5,-1048.6 644,-1046.2"/>
<text text-anchor="middle" x="655" y="-1013" font-family="Arial" font-size="10.00">i: dangerSource es null </text>
<text text-anchor="middle" x="655" y="-1002" font-family="Arial" font-size="10.00"> o dangerSource no </text>
<text text-anchor="middle" x="655" y="-991" font-family="Arial" font-size="10.00"> está en el campo </text>
<text text-anchor="middle" x="655" y="-980" font-family="Arial" font-size="10.00"> visual del animal</text>
</g>
<!-- D_2_a&#45;&gt;D_3 -->
<g id="edge25" class="edge">
<title>D_2_a&#45;&gt;D_3</title>
<path fill="none" stroke="#555555" d="M630.55,-1117.9C633.75,-1102.46 638.65,-1078.84 643.22,-1056.78"/>
<polygon fill="#555555" stroke="#555555" points="646.69,-1057.3 645.29,-1046.79 639.84,-1055.88 646.69,-1057.3"/>
</g>
<!-- D_2_b&#45;&gt;D_3 -->
<g id="edge26" class="edge">
<title>D_2_b&#45;&gt;D_3</title>
<path fill="none" stroke="#555555" d="M717.88,-1117.9C708.86,-1100.98 694.59,-1074.23 681.93,-1050.49"/>
<polygon fill="#555555" stroke="#555555" points="684.96,-1048.74 677.17,-1041.57 678.79,-1052.04 684.96,-1048.74"/>
</g>
<!-- D_3_a -->
<g id="node19" class="node">
<title>D_3_a</title>
<path fill="#f5f5f5" stroke="#333333" d="M722,-889C722,-889 594,-889 594,-889 588,-889 582,-883 582,-877 582,-877 582,-865 582,-865 582,-859 588,-853 594,-853 594,-853 722,-853 722,-853 728,-853 734,-859 734,-865 734,-865 734,-877 734,-877 734,-883 728,-889 722,-889"/>
<text text-anchor="start" x="590" y="-874" font-family="Arial" font-size="10.00">3.1.a: buscar un nuevo animal </text>
<text text-anchor="middle" x="658" y="-863" font-family="Arial" font-size="10.00"> que se considere como peligro</text>
</g>
<!-- D_3&#45;&gt;D_3_a -->
<g id="edge18" class="edge">
<title>D_3&#45;&gt;D_3_a</title>
<path fill="none" stroke="#555555" d="M656.2,-947.48C656.6,-931 657.02,-913.34 657.35,-899.24"/>
<polygon fill="#555555" stroke="#555555" points="660.85,-899.32 657.59,-889.24 653.85,-899.15 660.85,-899.32"/>
<text text-anchor="middle" x="660.5" y="-921.8" font-family="Arial" font-size="9.00">Sí</text>
</g>
<!-- D_end -->
<g id="node24" class="node">
<title>D_end</title>
<path fill="#f5f5f5" stroke="#333333" d="M803,-489C803,-489 717,-489 717,-489 711,-489 705,-483 705,-477 705,-477 705,-465 705,-465 705,-459 711,-453 717,-453 717,-453 803,-453 803,-453 809,-453 815,-459 815,-465 815,-465 815,-477 815,-477 815,-483 809,-489 803,-489"/>
<text text-anchor="middle" x="760" y="-468.5" font-family="Arial" font-size="10.00">Fin Estado DANGER</text>
</g>
<!-- D_3&#45;&gt;D_end -->
<g id="edge27" class="edge">
<title>D_3&#45;&gt;D_end</title>
<path fill="none" stroke="#555555" d="M691.75,-962.71C720.63,-934.97 756,-901 756,-901 756,-901 788,-795 788,-795 788,-795 816,-611 816,-611 816,-611 816,-601 816,-601 816,-601 806,-539 806,-539 806,-539 800,-528 800,-528 800,-528 788.81,-512.33 778.26,-497.57"/>
<polygon fill="#555555" stroke="#555555" points="780.88,-495.21 772.22,-489.11 775.18,-499.28 780.88,-495.21"/>
<text text-anchor="middle" x="807.5" y="-709.8" font-family="Arial" font-size="9.00">No</text>
</g>
<!-- D_3_b -->
<g id="node20" class="node">
<title>D_3_b</title>
<path fill="#f5f5f5" stroke="#333333" d="M647.45,-791.76C647.45,-791.76 563.55,-768.24 563.55,-768.24 557.78,-766.62 557.78,-763.38 563.55,-761.76 563.55,-761.76 647.45,-738.24 647.45,-738.24 653.22,-736.62 664.78,-736.62 670.55,-738.24 670.55,-738.24 754.45,-761.76 754.45,-761.76 760.22,-763.38 760.22,-766.62 754.45,-768.24 754.45,-768.24 670.55,-791.76 670.55,-791.76 664.78,-793.38 653.22,-793.38 647.45,-791.76"/>
<text text-anchor="middle" x="659" y="-768" font-family="Arial" font-size="10.00">3.1.b: dangerSource </text>
<text text-anchor="middle" x="659" y="-757" font-family="Arial" font-size="10.00"> es null?</text>
</g>
<!-- D_3_a&#45;&gt;D_3_b -->
<g id="edge19" class="edge">
<title>D_3_a&#45;&gt;D_3_b</title>
<path fill="none" stroke="#555555" d="M658.17,-852.83C658.29,-839.95 658.46,-821.81 658.62,-805.44"/>
<polygon fill="#555555" stroke="#555555" points="662.12,-805.04 658.72,-795 655.13,-804.97 662.12,-805.04"/>
</g>
<!-- D_3_c -->
<g id="node21" class="node">
<title>D_3_c</title>
<path fill="#f5f5f5" stroke="#333333" d="M647.45,-685.73C647.45,-685.73 564.55,-662.27 564.55,-662.27 558.77,-660.63 558.77,-657.37 564.55,-655.73 564.55,-655.73 647.45,-632.27 647.45,-632.27 653.23,-630.63 664.77,-630.63 670.55,-632.27 670.55,-632.27 753.45,-655.73 753.45,-655.73 759.23,-657.37 759.23,-660.63 753.45,-662.27 753.45,-662.27 670.55,-685.73 670.55,-685.73 664.77,-687.37 653.23,-687.37 647.45,-685.73"/>
<text text-anchor="middle" x="659" y="-662" font-family="Arial" font-size="10.00">3.1.b.a: el deseo es </text>
<text text-anchor="middle" x="659" y="-651" font-family="Arial" font-size="10.00"> menor que 65.0?</text>
</g>
<!-- D_3_b&#45;&gt;D_3_c -->
<g id="edge20" class="edge">
<title>D_3_b&#45;&gt;D_3_c</title>
<path fill="none" stroke="#555555" d="M659,-734.75C659,-723.69 659,-710.92 659,-699.1"/>
<polygon fill="#555555" stroke="#555555" points="662.5,-699.03 659,-689.03 655.5,-699.03 662.5,-699.03"/>
<text text-anchor="middle" x="663.5" y="-709.8" font-family="Arial" font-size="9.00">Sí</text>
</g>
<!-- D_3_b&#45;&gt;D_end -->
<g id="edge28" class="edge">
<title>D_3_b&#45;&gt;D_end</title>
<path fill="none" stroke="#555555" d="M692.63,-744.29C730.55,-722.07 787,-689 787,-689 787,-689 795,-583 795,-583 795,-583 795,-539 795,-539 795,-539 783.57,-517.12 773.78,-498.37"/>
<polygon fill="#555555" stroke="#555555" points="776.75,-496.5 769.01,-489.25 770.54,-499.74 776.75,-496.5"/>
<text text-anchor="middle" x="799.5" y="-603.8" font-family="Arial" font-size="9.00">No</text>
</g>
<!-- D_3_d -->
<g id="node22" class="node">
<title>D_3_d</title>
<path fill="#f5f5f5" stroke="#333333" d="M761.5,-583C761.5,-583 660.5,-583 660.5,-583 654.5,-583 648.5,-577 648.5,-571 648.5,-571 648.5,-559 648.5,-559 648.5,-553 654.5,-547 660.5,-547 660.5,-547 761.5,-547 761.5,-547 767.5,-547 773.5,-553 773.5,-559 773.5,-559 773.5,-571 773.5,-571 773.5,-577 767.5,-583 761.5,-583"/>
<text text-anchor="start" x="656.5" y="-568" font-family="Arial" font-size="10.00">3.1.b.a: Cambiar estado </text>
<text text-anchor="middle" x="711" y="-557" font-family="Arial" font-size="10.00"> a NORMAL</text>
</g>
<!-- D_3_c&#45;&gt;D_3_d -->
<g id="edge21" class="edge">
<title>D_3_c&#45;&gt;D_3_d</title>
<path fill="none" stroke="#555555" d="M671.24,-632.17C678.38,-617.09 686,-601 686,-601 686,-601 688.91,-596.93 692.74,-591.56"/>
<polygon fill="#555555" stroke="#555555" points="695.83,-593.26 698.79,-583.09 690.13,-589.19 695.83,-593.26"/>
<text text-anchor="middle" x="690.5" y="-603.8" font-family="Arial" font-size="9.00">Sí</text>
</g>
<!-- D_3_e -->
<g id="node23" class="node">
<title>D_3_e</title>
<path fill="#f5f5f5" stroke="#333333" d="M593.5,-583C593.5,-583 492.5,-583 492.5,-583 486.5,-583 480.5,-577 480.5,-571 480.5,-571 480.5,-559 480.5,-559 480.5,-553 486.5,-547 492.5,-547 492.5,-547 593.5,-547 593.5,-547 599.5,-547 605.5,-553 605.5,-559 605.5,-559 605.5,-571 605.5,-571 605.5,-577 599.5,-583 593.5,-583"/>
<text text-anchor="start" x="488.5" y="-568" font-family="Arial" font-size="10.00">3.1.b.a: Cambiar estado </text>
<text text-anchor="middle" x="543" y="-557" font-family="Arial" font-size="10.00"> a MATE</text>
</g>
<!-- D_3_c&#45;&gt;D_3_e -->
<g id="edge22" class="edge">
<title>D_3_c&#45;&gt;D_3_e</title>
<path fill="none" stroke="#555555" d="M631.8,-636.43C614.03,-622.34 590.83,-603.93 572.6,-589.47"/>
<polygon fill="#555555" stroke="#555555" points="574.62,-586.61 564.61,-583.14 570.27,-592.09 574.62,-586.61"/>
<text text-anchor="middle" x="603.5" y="-603.8" font-family="Arial" font-size="9.00">No</text>
</g>
<!-- D_3_d&#45;&gt;D_end -->
<g id="edge29" class="edge">
<title>D_3_d&#45;&gt;D_end</title>
<path fill="none" stroke="#555555" d="M720.22,-546.7C727.47,-533.07 737.7,-513.86 745.97,-498.34"/>
<polygon fill="#555555" stroke="#555555" points="749.21,-499.7 750.82,-489.23 743.03,-496.41 749.21,-499.7"/>
</g>
<!-- D_3_e&#45;&gt;D_end -->
<g id="edge30" class="edge">
<title>D_3_e&#45;&gt;D_end</title>
<path fill="none" stroke="#555555" d="M583.31,-546.91C619.13,-531.73 671.62,-509.47 710.08,-493.16"/>
<polygon fill="#555555" stroke="#555555" points="711.7,-496.28 719.54,-489.15 708.97,-489.83 711.7,-496.28"/>
</g>
<!-- M_1_a -->
<g id="node26" class="node">
<title>M_1_a</title>
<path fill="#f5f5f5" stroke="#333333" d="M1037,-1375C1037,-1375 931,-1375 931,-1375 925,-1375 919,-1369 919,-1363 919,-1363 919,-1351 919,-1351 919,-1345 925,-1339 931,-1339 931,-1339 1037,-1339 1037,-1339 1043,-1339 1049,-1345 1049,-1351 1049,-1351 1049,-1363 1049,-1363 1049,-1369 1043,-1375 1037,-1375"/>
<text text-anchor="middle" x="984" y="-1354.5" font-family="Arial" font-size="10.00">1: poner mateTarget a null</text>
</g>
<!-- M_1&#45;&gt;M_1_a -->
<g id="edge31" class="edge">
<title>M_1&#45;&gt;M_1_a</title>
<path fill="none" stroke="#555555" d="M1014.06,-1427.92C1007.75,-1413.25 1000.92,-1397.36 995.37,-1384.44"/>
<polygon fill="#555555" stroke="#555555" points="998.56,-1383.02 991.4,-1375.22 992.13,-1385.79 998.56,-1383.02"/>
<text text-anchor="middle" x="1006.5" y="-1395.8" font-family="Arial" font-size="9.00">Sí</text>
</g>
<!-- M_2 -->
<g id="node27" class="node">
<title>M_2</title>
<path fill="#f5f5f5" stroke="#333333" d="M1083.21,-1266.75C1083.21,-1266.75 1012.64,-1253.25 1012.64,-1253.25 1006.75,-1252.13 1006.75,-1249.87 1012.64,-1248.75 1012.64,-1248.75 1083.21,-1235.25 1083.21,-1235.25 1089.11,-1234.13 1100.89,-1234.13 1106.79,-1235.25 1106.79,-1235.25 1177.36,-1248.75 1177.36,-1248.75 1183.25,-1249.87 1183.25,-1252.13 1177.36,-1253.25 1177.36,-1253.25 1106.79,-1266.75 1106.79,-1266.75 1100.89,-1267.87 1089.11,-1267.87 1083.21,-1266.75"/>
<text text-anchor="middle" x="1095" y="-1248.5" font-family="Arial" font-size="10.00">2: mateTarget es null?</text>
</g>
<!-- M_1&#45;&gt;M_2 -->
<g id="edge47" class="edge">
<title>M_1&#45;&gt;M_2</title>
<path fill="none" stroke="#555555" d="M1050.44,-1427.47C1060.43,-1401.97 1071,-1375 1071,-1375 1071,-1375 1082.77,-1314.66 1089.83,-1278.51"/>
<polygon fill="#555555" stroke="#555555" points="1093.28,-1279.07 1091.76,-1268.59 1086.41,-1277.73 1093.28,-1279.07"/>
<text text-anchor="middle" x="1085.5" y="-1354.8" font-family="Arial" font-size="9.00">No</text>
</g>
<!-- M_1_a&#45;&gt;M_2 -->
<g id="edge46" class="edge">
<title>M_1_a&#45;&gt;M_2</title>
<path fill="none" stroke="#555555" d="M1002.33,-1338.83C1021.55,-1320.82 1051.77,-1292.5 1072.45,-1273.13"/>
<polygon fill="#555555" stroke="#555555" points="1074.95,-1275.58 1079.86,-1266.19 1070.17,-1270.47 1074.95,-1275.58"/>
</g>
<!-- M_2_a -->
<g id="node28" class="node">
<title>M_2_a</title>
<path fill="#f5f5f5" stroke="#333333" d="M1322,-1154C1322,-1154 1166,-1154 1166,-1154 1160,-1154 1154,-1148 1154,-1142 1154,-1142 1154,-1130 1154,-1130 1154,-1124 1160,-1118 1166,-1118 1166,-1118 1322,-1118 1322,-1118 1328,-1118 1334,-1124 1334,-1130 1334,-1130 1334,-1142 1334,-1142 1334,-1148 1328,-1154 1322,-1154"/>
<text text-anchor="middle" x="1244" y="-1133.5" font-family="Arial" font-size="10.00">2: buscar un animal para emparejarse</text>
</g>
<!-- M_2&#45;&gt;M_2_a -->
<g id="edge32" class="edge">
<title>M_2&#45;&gt;M_2_a</title>
<path fill="none" stroke="#555555" d="M1112.97,-1236.37C1137.81,-1217.54 1182.97,-1183.29 1213.23,-1160.34"/>
<polygon fill="#555555" stroke="#555555" points="1215.49,-1163.02 1221.34,-1154.19 1211.26,-1157.44 1215.49,-1163.02"/>
<text text-anchor="middle" x="1173.5" y="-1195.8" font-family="Arial" font-size="9.00">Sí</text>
</g>
<!-- M_2_d -->
<g id="node31" class="node">
<title>M_2_d</title>
<path fill="#f5f5f5" stroke="#333333" d="M1055,-1154C1055,-1154 1025,-1154 1025,-1154 1019,-1154 1013,-1148 1013,-1142 1013,-1142 1013,-1130 1013,-1130 1013,-1124 1019,-1118 1025,-1118 1025,-1118 1055,-1118 1055,-1118 1061,-1118 1067,-1124 1067,-1130 1067,-1130 1067,-1142 1067,-1142 1067,-1148 1061,-1154 1055,-1154"/>
<text text-anchor="middle" x="1040" y="-1133.5" font-family="Arial" font-size="10.00">2.i &#45; 2.v</text>
</g>
<!-- M_2&#45;&gt;M_2_d -->
<g id="edge35" class="edge">
<title>M_2&#45;&gt;M_2_d</title>
<path fill="none" stroke="#555555" d="M1087.35,-1234.29C1078.4,-1215.9 1063.45,-1185.19 1052.74,-1163.18"/>
<polygon fill="#555555" stroke="#555555" points="1055.82,-1161.51 1048.3,-1154.05 1049.53,-1164.58 1055.82,-1161.51"/>
<text text-anchor="middle" x="1076.5" y="-1195.8" font-family="Arial" font-size="9.00">No</text>
</g>
<!-- M_2_b -->
<g id="node29" class="node">
<title>M_2_b</title>
<path fill="#f5f5f5" stroke="#333333" d="M1243.21,-1014.75C1243.21,-1014.75 1172.64,-1001.25 1172.64,-1001.25 1166.75,-1000.13 1166.75,-997.87 1172.64,-996.75 1172.64,-996.75 1243.21,-983.25 1243.21,-983.25 1249.11,-982.13 1260.89,-982.13 1266.79,-983.25 1266.79,-983.25 1337.36,-996.75 1337.36,-996.75 1343.25,-997.87 1343.25,-1000.13 1337.36,-1001.25 1337.36,-1001.25 1266.79,-1014.75 1266.79,-1014.75 1260.89,-1015.87 1249.11,-1015.87 1243.21,-1014.75"/>
<text text-anchor="middle" x="1255" y="-996.5" font-family="Arial" font-size="10.00">2: mateTarget es null?</text>
</g>
<!-- M_2_a&#45;&gt;M_2_b -->
<g id="edge33" class="edge">
<title>M_2_a&#45;&gt;M_2_b</title>
<path fill="none" stroke="#555555" d="M1245.39,-1117.9C1247.26,-1094.98 1250.6,-1054.03 1252.8,-1026.94"/>
<polygon fill="#555555" stroke="#555555" points="1256.29,-1027.21 1253.62,-1016.96 1249.32,-1026.64 1256.29,-1027.21"/>
</g>
<!-- M_2_c -->
<g id="node30" class="node">
<title>M_2_c</title>
<path fill="#f5f5f5" stroke="#333333" d="M1180,-889C1180,-889 1144,-889 1144,-889 1138,-889 1132,-883 1132,-877 1132,-877 1132,-865 1132,-865 1132,-859 1138,-853 1144,-853 1144,-853 1180,-853 1180,-853 1186,-853 1192,-859 1192,-865 1192,-865 1192,-877 1192,-877 1192,-883 1186,-889 1180,-889"/>
<text text-anchor="middle" x="1162" y="-868.5" font-family="Arial" font-size="10.00">2: Avanza</text>
</g>
<!-- M_2_b&#45;&gt;M_2_c -->
<g id="edge34" class="edge">
<title>M_2_b&#45;&gt;M_2_c</title>
<path fill="none" stroke="#555555" d="M1243.97,-983.05C1228.4,-961.97 1199.79,-923.2 1180.83,-897.51"/>
<polygon fill="#555555" stroke="#555555" points="1183.56,-895.31 1174.8,-889.35 1177.93,-899.47 1183.56,-895.31"/>
<text text-anchor="middle" x="1206.5" y="-921.8" font-family="Arial" font-size="9.00">Sí</text>
</g>
<!-- M_3 -->
<g id="node37" class="node">
<title>M_3</title>
<path fill="#f5f5f5" stroke="#333333" d="M1177.18,-486.96C1177.18,-486.96 1096.7,-473.04 1096.7,-473.04 1090.79,-472.02 1090.79,-469.98 1096.7,-468.96 1096.7,-468.96 1177.18,-455.04 1177.18,-455.04 1183.09,-454.02 1194.91,-454.02 1200.82,-455.04 1200.82,-455.04 1281.3,-468.96 1281.3,-468.96 1287.21,-469.98 1287.21,-472.02 1281.3,-473.04 1281.3,-473.04 1200.82,-486.96 1200.82,-486.96 1194.91,-487.98 1183.09,-487.98 1177.18,-486.96"/>
<text text-anchor="middle" x="1189" y="-468.5" font-family="Arial" font-size="10.00">3: dangerSource es null?</text>
</g>
<!-- M_2_b&#45;&gt;M_3 -->
<g id="edge48" class="edge">
<title>M_2_b&#45;&gt;M_3</title>
<path fill="none" stroke="#555555" d="M1260.4,-981.79C1271.75,-947.76 1297,-872 1297,-872 1297,-872 1297,-872 1297,-564 1297,-564 1245.37,-520.02 1213.51,-492.88"/>
<polygon fill="#555555" stroke="#555555" points="1215.76,-490.2 1205.88,-486.38 1211.22,-495.52 1215.76,-490.2"/>
<text text-anchor="middle" x="1303.5" y="-709.8" font-family="Arial" font-size="9.00">No</text>
</g>
<!-- M_2_c&#45;&gt;M_3 -->
<g id="edge49" class="edge">
<title>M_2_c&#45;&gt;M_3</title>
<path fill="none" stroke="#555555" d="M1166.13,-852.83C1173.23,-823.29 1187,-766 1187,-766 1187,-766 1187,-766 1187,-564 1187,-564 1187.81,-526.56 1188.4,-499.44"/>
<polygon fill="#555555" stroke="#555555" points="1191.91,-499.38 1188.62,-489.3 1184.91,-499.23 1191.91,-499.38"/>
</g>
<!-- M_2_e -->
<g id="node32" class="node">
<title>M_2_e</title>
<path fill="#f5f5f5" stroke="#333333" d="M995.74,-1035.84C995.74,-1035.84 907.26,-1003.16 907.26,-1003.16 901.63,-1001.08 901.63,-996.92 907.26,-994.84 907.26,-994.84 995.74,-962.16 995.74,-962.16 1001.37,-960.08 1012.63,-960.08 1018.26,-962.16 1018.26,-962.16 1106.74,-994.84 1106.74,-994.84 1112.37,-996.92 1112.37,-1001.08 1106.74,-1003.16 1106.74,-1003.16 1018.26,-1035.84 1018.26,-1035.84 1012.63,-1037.92 1001.37,-1037.92 995.74,-1035.84"/>
<text text-anchor="middle" x="1007" y="-1007.5" font-family="Arial" font-size="10.00">vi :la distancia del </text>
<text text-anchor="middle" x="1007" y="-996.5" font-family="Arial" font-size="10.00"> animal a mateTarget </text>
<text text-anchor="middle" x="1007" y="-985.5" font-family="Arial" font-size="10.00"> es menor que 8.0?</text>
</g>
<!-- M_2_d&#45;&gt;M_2_e -->
<g id="edge36" class="edge">
<title>M_2_d&#45;&gt;M_2_e</title>
<path fill="none" stroke="#555555" d="M1035.82,-1117.9C1031.46,-1100.07 1024.44,-1071.33 1018.41,-1046.69"/>
<polygon fill="#555555" stroke="#555555" points="1021.76,-1045.66 1015.99,-1036.78 1014.96,-1047.32 1021.76,-1045.66"/>
</g>
<!-- M_2_f -->
<g id="node33" class="node">
<title>M_2_f</title>
<path fill="#f5f5f5" stroke="#333333" d="M1077,-889C1077,-889 925,-889 925,-889 919,-889 913,-883 913,-877 913,-877 913,-865 913,-865 913,-859 919,-853 925,-853 925,-853 1077,-853 1077,-853 1083,-853 1089,-859 1089,-865 1089,-865 1089,-877 1089,-877 1089,-883 1083,-889 1077,-889"/>
<text text-anchor="start" x="921" y="-874" font-family="Arial" font-size="10.00">2.vi.a: Resetear el deseo del animal </text>
<text text-anchor="middle" x="1001" y="-863" font-family="Arial" font-size="10.00"> y del mateTarget a 0.0</text>
</g>
<!-- M_2_e&#45;&gt;M_2_f -->
<g id="edge37" class="edge">
<title>M_2_e&#45;&gt;M_2_f</title>
<path fill="none" stroke="#555555" d="M1005.12,-958.48C1004.2,-939.23 1003.12,-916.58 1002.3,-899.28"/>
<polygon fill="#555555" stroke="#555555" points="1005.79,-899.11 1001.82,-889.29 998.8,-899.44 1005.79,-899.11"/>
<text text-anchor="middle" x="1007.5" y="-921.8" font-family="Arial" font-size="9.00">Sí</text>
</g>
<!-- M_2_e&#45;&gt;M_3 -->
<g id="edge50" class="edge">
<title>M_2_e&#45;&gt;M_3</title>
<path fill="none" stroke="#555555" d="M1059.93,-977.55C1096.65,-963.36 1139,-947 1139,-947 1139,-947 1221,-929 1221,-929 1221,-929 1236,-872 1236,-872 1236,-872 1236,-872 1236,-564 1236,-564 1215.72,-524.3 1201.8,-497.06"/>
<polygon fill="#555555" stroke="#555555" points="1204.85,-495.34 1197.19,-488.03 1198.62,-498.52 1204.85,-495.34"/>
<text text-anchor="middle" x="1242.5" y="-709.8" font-family="Arial" font-size="9.00">No</text>
</g>
<!-- M_2_g -->
<g id="node34" class="node">
<title>M_2_g</title>
<path fill="#f5f5f5" stroke="#333333" d="M989.18,-780.92C989.18,-780.92 910.52,-767.08 910.52,-767.08 904.62,-766.04 904.62,-763.96 910.52,-762.92 910.52,-762.92 989.18,-749.08 989.18,-749.08 995.09,-748.04 1006.91,-748.04 1012.82,-749.08 1012.82,-749.08 1091.48,-762.92 1091.48,-762.92 1097.38,-763.96 1097.38,-766.04 1091.48,-767.08 1091.48,-767.08 1012.82,-780.92 1012.82,-780.92 1006.91,-781.96 995.09,-781.96 989.18,-780.92"/>
<text text-anchor="middle" x="1001" y="-762.5" font-family="Arial" font-size="10.00">2.vi.b: lleva un bebé ya?</text>
</g>
<!-- M_2_f&#45;&gt;M_2_g -->
<g id="edge38" class="edge">
<title>M_2_f&#45;&gt;M_2_g</title>
<path fill="none" stroke="#555555" d="M1001,-852.83C1001,-836.64 1001,-812.13 1001,-793.27"/>
<polygon fill="#555555" stroke="#555555" points="1004.5,-793.2 1001,-783.2 997.5,-793.2 1004.5,-793.2"/>
</g>
<!-- M_2_h -->
<g id="node35" class="node">
<title>M_2_h</title>
<path fill="#f5f5f5" stroke="#333333" d="M1033.5,-685C1033.5,-685 912.5,-685 912.5,-685 906.5,-685 900.5,-679 900.5,-673 900.5,-673 900.5,-645 900.5,-645 900.5,-639 906.5,-633 912.5,-633 912.5,-633 1033.5,-633 1033.5,-633 1039.5,-633 1045.5,-639 1045.5,-645 1045.5,-645 1045.5,-673 1045.5,-673 1045.5,-679 1039.5,-685 1033.5,-685"/>
<text text-anchor="start" x="908.5" y="-673" font-family="Arial" font-size="10.00">2.vi.b: con probabilidad </text>
<text text-anchor="start" x="908.5" y="-662" font-family="Arial" font-size="10.00"> de 0.9 va a llevar a </text>
<text text-anchor="start" x="908.5" y="-651" font-family="Arial" font-size="10.00"> un nuevo bebé usando </text>
<text text-anchor="middle" x="973" y="-640" font-family="Arial" font-size="10.00"> new Sheep(this, mateTarget)</text>
</g>
<!-- M_2_g&#45;&gt;M_2_h -->
<g id="edge39" class="edge">
<title>M_2_g&#45;&gt;M_2_h</title>
<path fill="none" stroke="#555555" d="M996.62,-747.75C992.83,-733.64 987.2,-712.74 982.39,-694.87"/>
<polygon fill="#555555" stroke="#555555" points="985.72,-693.79 979.74,-685.04 978.96,-695.61 985.72,-693.79"/>
<text text-anchor="middle" x="993.5" y="-709.8" font-family="Arial" font-size="9.00">No</text>
</g>
<!-- M_2_i -->
<g id="node36" class="node">
<title>M_2_i</title>
<path fill="#f5f5f5" stroke="#333333" d="M1131,-583C1131,-583 1005,-583 1005,-583 999,-583 993,-577 993,-571 993,-571 993,-559 993,-559 993,-553 999,-547 1005,-547 1005,-547 1131,-547 1131,-547 1137,-547 1143,-553 1143,-559 1143,-559 1143,-571 1143,-571 1143,-577 1137,-583 1131,-583"/>
<text text-anchor="middle" x="1068" y="-562.5" font-family="Arial" font-size="10.00">2.vi.c: Poner mateTarget a null</text>
</g>
<!-- M_2_g&#45;&gt;M_2_i -->
<g id="edge40" class="edge">
<title>M_2_g&#45;&gt;M_2_i</title>
<path fill="none" stroke="#555555" d="M1014.04,-749.18C1033.27,-727.33 1067,-689 1067,-689 1067,-689 1067.48,-629.78 1067.78,-593.53"/>
<polygon fill="#555555" stroke="#555555" points="1071.28,-593.13 1067.86,-583.1 1064.28,-593.07 1071.28,-593.13"/>
<text text-anchor="middle" x="1071.5" y="-656.8" font-family="Arial" font-size="9.00">Sí</text>
</g>
<!-- M_2_h&#45;&gt;M_2_i -->
<g id="edge41" class="edge">
<title>M_2_h&#45;&gt;M_2_i</title>
<path fill="none" stroke="#555555" d="M998.96,-632.86C1012.55,-619.7 1029.13,-603.64 1042.64,-590.56"/>
<polygon fill="#555555" stroke="#555555" points="1045.44,-592.72 1050.19,-583.25 1040.57,-587.69 1045.44,-592.72"/>
</g>
<!-- M_2_i&#45;&gt;M_3 -->
<g id="edge51" class="edge">
<title>M_2_i&#45;&gt;M_3</title>
<path fill="none" stroke="#555555" d="M1090.48,-546.91C1110.87,-531.41 1140.96,-508.53 1162.51,-492.14"/>
<polygon fill="#555555" stroke="#555555" points="1164.76,-494.83 1170.6,-485.99 1160.52,-489.26 1164.76,-494.83"/>
</g>
<!-- M_3_a -->
<g id="node38" class="node">
<title>M_3_a</title>
<path fill="#f5f5f5" stroke="#333333" d="M1243.5,-407C1243.5,-407 1104.5,-407 1104.5,-407 1098.5,-407 1092.5,-401 1092.5,-395 1092.5,-395 1092.5,-383 1092.5,-383 1092.5,-377 1098.5,-371 1104.5,-371 1104.5,-371 1243.5,-371 1243.5,-371 1249.5,-371 1255.5,-377 1255.5,-383 1255.5,-383 1255.5,-395 1255.5,-395 1255.5,-401 1249.5,-407 1243.5,-407"/>
<text text-anchor="start" x="1100.5" y="-392" font-family="Arial" font-size="10.00">3: buscar un nuevo animal </text>
<text text-anchor="middle" x="1174" y="-381" font-family="Arial" font-size="10.00"> que se considere como peligroso</text>
</g>
<!-- M_3&#45;&gt;M_3_a -->
<g id="edge42" class="edge">
<title>M_3&#45;&gt;M_3_a</title>
<path fill="none" stroke="#555555" d="M1185.89,-453.42C1183.93,-442.95 1181.34,-429.16 1179.08,-417.11"/>
<polygon fill="#555555" stroke="#555555" points="1182.49,-416.29 1177.21,-407.11 1175.61,-417.58 1182.49,-416.29"/>
<text text-anchor="middle" x="1186.5" y="-427.8" font-family="Arial" font-size="9.00">Sí</text>
</g>
<!-- M_4 -->
<g id="node39" class="node">
<title>M_4</title>
<path fill="#f5f5f5" stroke="#333333" d="M1186.14,-311.14C1186.14,-311.14 1095.09,-296.86 1095.09,-296.86 1089.16,-295.93 1089.16,-294.07 1095.09,-293.14 1095.09,-293.14 1186.14,-278.86 1186.14,-278.86 1192.07,-277.93 1203.93,-277.93 1209.86,-278.86 1209.86,-278.86 1300.91,-293.14 1300.91,-293.14 1306.84,-294.07 1306.84,-295.93 1300.91,-296.86 1300.91,-296.86 1209.86,-311.14 1209.86,-311.14 1203.93,-312.07 1192.07,-312.07 1186.14,-311.14"/>
<text text-anchor="middle" x="1198" y="-292.5" font-family="Arial" font-size="10.00">4: dangerSource no es null?</text>
</g>
<!-- M_3&#45;&gt;M_4 -->
<g id="edge53" class="edge">
<title>M_3&#45;&gt;M_4</title>
<path fill="none" stroke="#555555" d="M1208.53,-456.02C1234.46,-437.46 1277,-407 1277,-407 1277,-407 1277,-363 1277,-363 1277,-363 1246.09,-336.79 1222.94,-317.15"/>
<polygon fill="#555555" stroke="#555555" points="1225.03,-314.34 1215.14,-310.54 1220.5,-319.68 1225.03,-314.34"/>
<text text-anchor="middle" x="1283.5" y="-386.8" font-family="Arial" font-size="9.00">No</text>
</g>
<!-- M_3_a&#45;&gt;M_4 -->
<g id="edge52" class="edge">
<title>M_3_a&#45;&gt;M_4</title>
<path fill="none" stroke="#555555" d="M1178.51,-370.7C1182.04,-357.16 1187.01,-338.11 1191.05,-322.64"/>
<polygon fill="#555555" stroke="#555555" points="1194.53,-323.17 1193.67,-312.61 1187.76,-321.4 1194.53,-323.17"/>
</g>
<!-- M_4_a -->
<g id="node40" class="node">
<title>M_4_a</title>
<path fill="#f5f5f5" stroke="#333333" d="M1058,-219C1058,-219 922,-219 922,-219 916,-219 910,-213 910,-207 910,-207 910,-195 910,-195 910,-189 916,-183 922,-183 922,-183 1058,-183 1058,-183 1064,-183 1070,-189 1070,-195 1070,-195 1070,-207 1070,-207 1070,-213 1064,-219 1058,-219"/>
<text text-anchor="middle" x="990" y="-198.5" font-family="Arial" font-size="10.00">4: cambia de estado a DANGER</text>
</g>
<!-- M_4&#45;&gt;M_4_a -->
<g id="edge43" class="edge">
<title>M_4&#45;&gt;M_4_a</title>
<path fill="none" stroke="#555555" d="M1169.51,-281.4C1135.66,-266.43 1078.64,-241.2 1037.94,-223.21"/>
<polygon fill="#555555" stroke="#555555" points="1039.31,-219.98 1028.75,-219.14 1036.48,-226.39 1039.31,-219.98"/>
<text text-anchor="middle" x="1122.5" y="-251.8" font-family="Arial" font-size="9.00">Sí</text>
</g>
<!-- M_4_b -->
<g id="node41" class="node">
<title>M_4_b</title>
<path fill="#f5f5f5" stroke="#333333" d="M1212.42,-227.87C1212.42,-227.87 1124.58,-204.13 1124.58,-204.13 1118.79,-202.57 1118.79,-199.43 1124.58,-197.87 1124.58,-197.87 1212.42,-174.13 1212.42,-174.13 1218.21,-172.57 1229.79,-172.57 1235.58,-174.13 1235.58,-174.13 1323.42,-197.87 1323.42,-197.87 1329.21,-199.43 1329.21,-202.57 1323.42,-204.13 1323.42,-204.13 1235.58,-227.87 1235.58,-227.87 1229.79,-229.43 1218.21,-229.43 1212.42,-227.87"/>
<text text-anchor="middle" x="1224" y="-204" font-family="Arial" font-size="10.00">4: el deseo es menor </text>
<text text-anchor="middle" x="1224" y="-193" font-family="Arial" font-size="10.00"> que 65.0?</text>
</g>
<!-- M_4&#45;&gt;M_4_b -->
<g id="edge44" class="edge">
<title>M_4&#45;&gt;M_4_b</title>
<path fill="none" stroke="#555555" d="M1202.65,-277.55C1205.67,-266.84 1209.75,-252.43 1213.53,-239.06"/>
<polygon fill="#555555" stroke="#555555" points="1216.98,-239.7 1216.33,-229.12 1210.25,-237.8 1216.98,-239.7"/>
<text text-anchor="middle" x="1216.5" y="-251.8" font-family="Arial" font-size="9.00">No</text>
</g>
<!-- M_end -->
<g id="node43" class="node">
<title>M_end</title>
<path fill="#f5f5f5" stroke="#333333" d="M1172,-52C1172,-52 1102,-52 1102,-52 1096,-52 1090,-46 1090,-40 1090,-40 1090,-28 1090,-28 1090,-22 1096,-16 1102,-16 1102,-16 1172,-16 1172,-16 1178,-16 1184,-22 1184,-28 1184,-28 1184,-40 1184,-40 1184,-46 1178,-52 1172,-52"/>
<text text-anchor="middle" x="1137" y="-31.5" font-family="Arial" font-size="10.00">Fin Estado MATE</text>
</g>
<!-- M_4_a&#45;&gt;M_end -->
<g id="edge54" class="edge">
<title>M_4_a&#45;&gt;M_end</title>
<path fill="none" stroke="#555555" d="M1025.66,-182.9C1053.68,-169.46 1088,-153 1088,-153 1088,-153 1115,-125 1115,-125 1115,-125 1123.86,-88.76 1130.33,-62.28"/>
<polygon fill="#555555" stroke="#555555" points="1133.78,-62.9 1132.76,-52.35 1126.98,-61.24 1133.78,-62.9"/>
</g>
<!-- M_4_c -->
<g id="node42" class="node">
<title>M_4_c</title>
<path fill="#f5f5f5" stroke="#333333" d="M1081.5,-125C1081.5,-125 946.5,-125 946.5,-125 940.5,-125 934.5,-119 934.5,-113 934.5,-113 934.5,-101 934.5,-101 934.5,-95 940.5,-89 946.5,-89 946.5,-89 1081.5,-89 1081.5,-89 1087.5,-89 1093.5,-95 1093.5,-101 1093.5,-101 1093.5,-113 1093.5,-113 1093.5,-119 1087.5,-125 1081.5,-125"/>
<text text-anchor="middle" x="1014" y="-104.5" font-family="Arial" font-size="10.00">4: cambia de estado a NORMAL</text>
</g>
<!-- M_4_b&#45;&gt;M_4_c -->
<g id="edge45" class="edge">
<title>M_4_b&#45;&gt;M_4_c</title>
<path fill="none" stroke="#555555" d="M1173.25,-184.61C1128.04,-170.9 1069,-153 1069,-153 1069,-153 1055.98,-142.35 1042.61,-131.41"/>
<polygon fill="#555555" stroke="#555555" points="1044.75,-128.64 1034.79,-125.01 1040.32,-134.05 1044.75,-128.64"/>
<text text-anchor="middle" x="1073.5" y="-145.8" font-family="Arial" font-size="9.00">Sí</text>
</g>
<!-- M_4_b&#45;&gt;M_end -->
<g id="edge55" class="edge">
<title>M_4_b&#45;&gt;M_end</title>
<path fill="none" stroke="#555555" d="M1210.6,-174.58C1194.36,-143.78 1167.13,-92.15 1150.74,-61.06"/>
<polygon fill="#555555" stroke="#555555" points="1153.79,-59.33 1146.03,-52.12 1147.59,-62.6 1153.79,-59.33"/>
<text text-anchor="middle" x="1189.5" y="-104.8" font-family="Arial" font-size="9.00">No</text>
</g>
<!-- M_4_c&#45;&gt;M_end -->
<g id="edge56" class="edge">
<title>M_4_c&#45;&gt;M_end</title>
<path fill="none" stroke="#555555" d="M1043.46,-88.99C1059.92,-79.49 1080.63,-67.54 1098.38,-57.29"/>
<polygon fill="#555555" stroke="#555555" points="1100.44,-60.14 1107.35,-52.11 1096.94,-54.08 1100.44,-60.14"/>
</g>
</g>
</svg>
