<?xml version="1.0" encoding="UTF-8" standalone="no"?>
<!DOCTYPE svg PUBLIC "-//W3C//DTD SVG 1.1//EN"
 "http://www.w3.org/Graphics/SVG/1.1/DTD/svg11.dtd">
<!-- Generated by graphviz version 2.43.0 (0)
 -->
<!-- Title: AnimalStateUpdate_Acyclic Pages: 1 -->
<svg width="1354pt" height="1740pt"
 viewBox="0.00 0.00 1354.00 1740.00" xmlns="http://www.w3.org/2000/svg" xmlns:xlink="http://www.w3.org/1999/xlink">
<g id="graph0" class="graph" transform="scale(1 1) rotate(0) translate(4 1736)">
<title>AnimalStateUpdate_Acyclic</title>
<polygon fill="white" stroke="transparent" points="-4,4 -4,-1736 1350,-1736 1350,4 -4,4"/>
<g id="clust1" class="cluster">
<title>cluster_normal_flow</title>
<polygon fill="#f1f8e9" stroke="#f1f8e9" points="8,-539 8,-1576 468,-1576 468,-539 8,-539"/>
<text text-anchor="middle" x="238" y="-1560.8" font-family="Times,serif" font-size="14.00">State: NORMAL</text>
</g>
<g id="clust2" class="cluster">
<title>cluster_normal_flow_1</title>
<polygon fill="#00f8e9" stroke="#00f8e9" points="214,-1225 214,-1545 460,-1545 460,-1225 214,-1225"/>
<text text-anchor="middle" x="337" y="-1529.8" font-family="Times,serif" font-size="14.00">(1)</text>
</g>
<g id="clust3" class="cluster">
<title>cluster_normal_flow_2</title>
<polygon fill="#00f8e9" stroke="#00f8e9" points="16,-633 16,-1185 460,-1185 460,-633 16,-633"/>
<text text-anchor="middle" x="238" y="-1169.8" font-family="Times,serif" font-size="14.00">(2)</text>
</g>
<g id="clust4" class="cluster">
<title>cluster_danger_flow</title>
<polygon fill="#f1f8e9" stroke="#f1f8e9" points="476,-445 476,-1576 821,-1576 821,-445 476,-445"/>
<text text-anchor="middle" x="648.5" y="-1560.8" font-family="Times,serif" font-size="14.00">State: DANGER</text>
</g>
<g id="clust5" class="cluster">
<title>cluster_danger_flow_1</title>
<polygon fill="#00f8e9" stroke="#00f8e9" points="522,-1331 522,-1545 774,-1545 774,-1331 522,-1331"/>
<text text-anchor="middle" x="648" y="-1529.8" font-family="Times,serif" font-size="14.00">(1)</text>
</g>
<g id="clust6" class="cluster">
<title>cluster_danger_flow_2</title>
<polygon fill="#00f8e9" stroke="#00f8e9" points="534,-1110 534,-1312 732,-1312 732,-1110 534,-1110"/>
<text text-anchor="middle" x="633" y="-1296.8" font-family="Times,serif" font-size="14.00">(2)</text>
</g>
<g id="clust7" class="cluster">
<title>cluster_danger_flow_3</title>
<polygon fill="#00f8e9" stroke="#00f8e9" points="484,-539 484,-1082 742,-1082 742,-539 484,-539"/>
<text text-anchor="middle" x="613" y="-1066.8" font-family="Times,serif" font-size="14.00">(3)</text>
</g>
<g id="clust8" class="cluster">
<title>cluster_mate_flow</title>
<polygon fill="#f1f8e9" stroke="#f1f8e9" points="829,-8 829,-1587 1338,-1587 1338,-8 829,-8"/>
<text text-anchor="middle" x="1083.5" y="-1571.8" font-family="Times,serif" font-size="14.00">State: MATE</text>
</g>
<g id="clust9" class="cluster">
<title>cluster_mate_flow_1</title>
<polygon fill="#00f8e9" stroke="#00f8e9" points="837,-1331 837,-1556 1127,-1556 1127,-1331 837,-1331"/>
<text text-anchor="middle" x="982" y="-1540.8" font-family="Times,serif" font-size="14.00">(1)</text>
</g>
<g id="clust10" class="cluster">
<title>cluster_mate_flow_2</title>
<polygon fill="#00f8e9" stroke="#00f8e9" points="837,-539 837,-1300 1330,-1300 1330,-539 837,-539"/>
<text text-anchor="middle" x="1083.5" y="-1284.8" font-family="Times,serif" font-size="14.00">(2)</text>
</g>
<g id="clust11" class="cluster">
<title>cluster_mate_flow_3</title>
<polygon fill="#00f8e9" stroke="#00f8e9" points="1051,-363 1051,-520 1271,-520 1271,-363 1051,-363"/>
<text text-anchor="middle" x="1161" y="-504.8" font-family="Times,serif" font-size="14.00">(3)</text>
</g>
<g id="clust12" class="cluster">
<title>cluster_mate_flow_4</title>
<polygon fill="#00f8e9" stroke="#00f8e9" points="897,-81 897,-344 1290,-344 1290,-81 897,-81"/>
<text text-anchor="middle" x="1093.5" y="-328.8" font-family="Times,serif" font-size="14.00">(4)</text>
</g>
<!-- Start -->
<g id="node1" class="node">
<title>Start</title>
<ellipse fill="#e1f5fe" stroke="#333333" cx="648" cy="-1714" rx="76.55" ry="18"/>
<text text-anchor="middle" x="648" y="-1711.5" font-family="Arial" font-size="10.00">Start: Update Start Sheep</text>
</g>
<!-- StateDecider -->
<g id="node2" class="node">
<title>StateDecider</title>
<polygon fill="#f5f5f5" stroke="#333333" points="648,-1659 581.3,-1641 648,-1623 714.7,-1641 648,-1659"/>
<text text-anchor="middle" x="648" y="-1638.5" font-family="Arial" font-size="10.00">Current State?</text>
</g>
<!-- Start&#45;&gt;StateDecider -->
<g id="edge1" class="edge">
<title>Start&#45;&gt;StateDecider</title>
<path fill="none" stroke="#555555" d="M648,-1695.81C648,-1687.79 648,-1678.05 648,-1669.07"/>
<polygon fill="#555555" stroke="#555555" points="651.5,-1669.03 648,-1659.03 644.5,-1669.03 651.5,-1669.03"/>
</g>
<!-- N_1_i -->
<g id="node3" class="node">
<title>N_1_i</title>
<path fill="#f5f5f5" stroke="#333333" d="M325.7,-1509.97C325.7,-1509.97 233.3,-1477.03 233.3,-1477.03 227.65,-1475.01 227.65,-1470.99 233.3,-1468.97 233.3,-1468.97 325.7,-1436.03 325.7,-1436.03 331.35,-1434.01 342.65,-1434.01 348.3,-1436.03 348.3,-1436.03 440.7,-1468.97 440.7,-1468.97 446.35,-1470.99 446.35,-1475.01 440.7,-1477.03 440.7,-1477.03 348.3,-1509.97 348.3,-1509.97 342.65,-1511.99 331.35,-1511.99 325.7,-1509.97"/>
<text text-anchor="middle" x="337" y="-1481.5" font-family="Arial" font-size="10.00">i: the distance of the </text>
<text text-anchor="middle" x="337" y="-1470.5" font-family="Arial" font-size="10.00"> animal de destination </text>
<text text-anchor="middle" x="337" y="-1459.5" font-family="Arial" font-size="10.00"> is smaller than 8.0?</text>
</g>
<!-- StateDecider&#45;&gt;N_1_i -->
<g id="edge57" class="edge">
<title>StateDecider&#45;&gt;N_1_i</title>
<path fill="none" stroke="#555555" d="M622.1,-1629.91C582.64,-1614.53 512,-1587 512,-1587 512,-1587 437.36,-1538.8 385.57,-1505.36"/>
<polygon fill="#555555" stroke="#555555" points="387.45,-1502.41 377.15,-1499.92 383.65,-1508.29 387.45,-1502.41"/>
<text text-anchor="middle" x="575" y="-1597.8" font-family="Arial" font-size="9.00">NORMAL</text>
</g>
<!-- D_1 -->
<g id="node13" class="node">
<title>D_1</title>
<path fill="#f5f5f5" stroke="#333333" d="M636.66,-1510.06C636.66,-1510.06 541.34,-1476.94 541.34,-1476.94 535.67,-1474.97 535.67,-1471.03 541.34,-1469.06 541.34,-1469.06 636.66,-1435.94 636.66,-1435.94 642.33,-1433.97 653.67,-1433.97 659.34,-1435.94 659.34,-1435.94 754.66,-1469.06 754.66,-1469.06 760.33,-1471.03 760.33,-1474.97 754.66,-1476.94 754.66,-1476.94 659.34,-1510.06 659.34,-1510.06 653.67,-1512.03 642.33,-1512.03 636.66,-1510.06"/>
<text text-anchor="middle" x="648" y="-1481.5" font-family="Arial" font-size="10.00">1: dangerSource is not </text>
<text text-anchor="middle" x="648" y="-1470.5" font-family="Arial" font-size="10.00"> null and its </text>
<text text-anchor="middle" x="648" y="-1459.5" font-family="Arial" font-size="10.00"> state is DEAD?</text>
</g>
<!-- StateDecider&#45;&gt;D_1 -->
<g id="edge58" class="edge">
<title>StateDecider&#45;&gt;D_1</title>
<path fill="none" stroke="#555555" d="M648,-1622.86C648,-1599.81 648,-1557.86 648,-1524.35"/>
<polygon fill="#555555" stroke="#555555" points="651.5,-1524.25 648,-1514.25 644.5,-1524.25 651.5,-1524.25"/>
<text text-anchor="middle" x="668" y="-1597.8" font-family="Arial" font-size="9.00">DANGER</text>
</g>
<!-- M_1 -->
<g id="node25" class="node">
<title>M_1</title>
<path fill="#f5f5f5" stroke="#333333" d="M970.78,-1520.74C970.78,-1520.74 856.22,-1477.26 856.22,-1477.26 850.61,-1475.13 850.61,-1470.87 856.22,-1468.74 856.22,-1468.74 970.78,-1425.26 970.78,-1425.26 976.39,-1423.13 987.61,-1423.13 993.22,-1425.26 993.22,-1425.26 1107.78,-1468.74 1107.78,-1468.74 1113.39,-1470.87 1113.39,-1475.13 1107.78,-1477.26 1107.78,-1477.26 993.22,-1520.74 993.22,-1520.74 987.61,-1522.87 976.39,-1522.87 970.78,-1520.74"/>
<text text-anchor="middle" x="982" y="-1487" font-family="Arial" font-size="10.00">1: mateTarget is not </text>
<text text-anchor="middle" x="982" y="-1476" font-family="Arial" font-size="10.00"> null and its state is DEAD </text>
<text text-anchor="middle" x="982" y="-1465" font-family="Arial" font-size="10.00"> or it is out of the </text>
<text text-anchor="middle" x="982" y="-1454" font-family="Arial" font-size="10.00"> visual field?</text>
</g>
<!-- StateDecider&#45;&gt;M_1 -->
<g id="edge59" class="edge">
<title>StateDecider&#45;&gt;M_1</title>
<path fill="none" stroke="#555555" d="M673.9,-1629.91C713.36,-1614.53 784,-1587 784,-1587 784,-1587 861.38,-1542.84 919.39,-1509.73"/>
<polygon fill="#555555" stroke="#555555" points="921.21,-1512.72 928.16,-1504.73 917.74,-1506.65 921.21,-1512.72"/>
<text text-anchor="middle" x="773.5" y="-1597.8" font-family="Arial" font-size="9.00">MATE</text>
</g>
<!-- N_1_i_yes -->
<g id="node4" class="node">
<title>N_1_i_yes</title>
<path fill="#f5f5f5" stroke="#333333" d="M312,-1375C312,-1375 234,-1375 234,-1375 228,-1375 222,-1369 222,-1363 222,-1363 222,-1351 222,-1351 222,-1345 228,-1339 234,-1339 234,-1339 312,-1339 312,-1339 318,-1339 324,-1345 324,-1351 324,-1351 324,-1363 324,-1363 324,-1369 318,-1375 312,-1375"/>
<text text-anchor="start" x="230" y="-1360" font-family="Arial" font-size="10.00">i: Choose a new </text>
<text text-anchor="middle" x="273" y="-1349" font-family="Arial" font-size="10.00"> random destination</text>
</g>
<!-- N_1_i&#45;&gt;N_1_i_yes -->
<g id="edge2" class="edge">
<title>N_1_i&#45;&gt;N_1_i_yes</title>
<path fill="none" stroke="#555555" d="M318.14,-1438.41C308.4,-1421.06 296.7,-1400.21 287.65,-1384.09"/>
<polygon fill="#555555" stroke="#555555" points="290.61,-1382.21 282.66,-1375.21 284.5,-1385.64 290.61,-1382.21"/>
<text text-anchor="middle" x="306" y="-1395.8" font-family="Arial" font-size="9.00">Yes</text>
</g>
<!-- N_1_ii -->
<g id="node5" class="node">
<title>N_1_ii</title>
<path fill="#f5f5f5" stroke="#333333" d="M294,-1269C294,-1269 264,-1269 264,-1269 258,-1269 252,-1263 252,-1257 252,-1257 252,-1245 252,-1245 252,-1239 258,-1233 264,-1233 264,-1233 294,-1233 294,-1233 300,-1233 306,-1239 306,-1245 306,-1245 306,-1257 306,-1257 306,-1263 300,-1269 294,-1269"/>
<text text-anchor="middle" x="279" y="-1248.5" font-family="Arial" font-size="10.00">1.ii &#45; 1.v</text>
</g>
<!-- N_1_i&#45;&gt;N_1_ii -->
<g id="edge3" class="edge">
<title>N_1_i&#45;&gt;N_1_ii</title>
<path fill="none" stroke="#555555" d="M340.21,-1433.11C342.43,-1406.12 345,-1375 345,-1375 345,-1375 345,-1331 345,-1331 345,-1331 319.18,-1300.09 299.84,-1276.94"/>
<polygon fill="#555555" stroke="#555555" points="302.42,-1274.57 293.32,-1269.14 297.05,-1279.06 302.42,-1274.57"/>
<text text-anchor="middle" x="351.5" y="-1354.8" font-family="Arial" font-size="9.00">No</text>
</g>
<!-- N_1_i_yes&#45;&gt;N_1_ii -->
<g id="edge4" class="edge">
<title>N_1_i_yes&#45;&gt;N_1_ii</title>
<path fill="none" stroke="#555555" d="M273.99,-1338.83C274.92,-1322.64 276.34,-1298.13 277.43,-1279.27"/>
<polygon fill="#555555" stroke="#555555" points="280.93,-1279.38 278.01,-1269.2 273.94,-1278.98 280.93,-1279.38"/>
</g>
<!-- N_2_i -->
<g id="node6" class="node">
<title>N_2_i</title>
<path fill="#f5f5f5" stroke="#333333" d="M267.19,-1151.86C267.19,-1151.86 191.67,-1138.14 191.67,-1138.14 185.77,-1137.07 185.77,-1134.93 191.67,-1133.86 191.67,-1133.86 267.19,-1120.14 267.19,-1120.14 273.1,-1119.07 284.9,-1119.07 290.81,-1120.14 290.81,-1120.14 366.33,-1133.86 366.33,-1133.86 372.23,-1134.93 372.23,-1137.07 366.33,-1138.14 366.33,-1138.14 290.81,-1151.86 290.81,-1151.86 284.9,-1152.93 273.1,-1152.93 267.19,-1151.86"/>
<text text-anchor="middle" x="279" y="-1133.5" font-family="Arial" font-size="10.00">i: dangerSource is null?</text>
</g>
<!-- N_1_ii&#45;&gt;N_2_i -->
<g id="edge11" class="edge">
<title>N_1_ii&#45;&gt;N_2_i</title>
<path fill="none" stroke="#555555" d="M279,-1232.84C279,-1214.67 279,-1185.72 279,-1164.39"/>
<polygon fill="#555555" stroke="#555555" points="282.5,-1164.32 279,-1154.32 275.5,-1164.32 282.5,-1164.32"/>
</g>
<!-- N_2_i_yes -->
<g id="node7" class="node">
<title>N_2_i_yes</title>
<path fill="#f5f5f5" stroke="#333333" d="M180.5,-1017C180.5,-1017 59.5,-1017 59.5,-1017 53.5,-1017 47.5,-1011 47.5,-1005 47.5,-1005 47.5,-993 47.5,-993 47.5,-987 53.5,-981 59.5,-981 59.5,-981 180.5,-981 180.5,-981 186.5,-981 192.5,-987 192.5,-993 192.5,-993 192.5,-1005 192.5,-1005 192.5,-1011 186.5,-1017 180.5,-1017"/>
<text text-anchor="start" x="55.5" y="-1002" font-family="Arial" font-size="10.00">i: search for a new animal </text>
<text text-anchor="middle" x="120" y="-991" font-family="Arial" font-size="10.00"> that is considered dangerous</text>
</g>
<!-- N_2_i&#45;&gt;N_2_i_yes -->
<g id="edge5" class="edge">
<title>N_2_i&#45;&gt;N_2_i_yes</title>
<path fill="none" stroke="#555555" d="M262.28,-1120.81C235.16,-1097.78 181.27,-1052.02 148.16,-1023.91"/>
<polygon fill="#555555" stroke="#555555" points="150.1,-1020.97 140.21,-1017.16 145.57,-1026.3 150.1,-1020.97"/>
<text text-anchor="middle" x="245" y="-1092.8" font-family="Arial" font-size="9.00">Yes</text>
</g>
<!-- N_2_ii -->
<g id="node8" class="node">
<title>N_2_ii</title>
<path fill="#f5f5f5" stroke="#333333" d="M120.62,-897.21C120.62,-897.21 53.38,-874.79 53.38,-874.79 47.69,-872.9 47.69,-869.1 53.38,-867.21 53.38,-867.21 120.62,-844.79 120.62,-844.79 126.31,-842.9 137.69,-842.9 143.38,-844.79 143.38,-844.79 210.62,-867.21 210.62,-867.21 216.31,-869.1 216.31,-872.9 210.62,-874.79 210.62,-874.79 143.38,-897.21 143.38,-897.21 137.69,-899.1 126.31,-899.1 120.62,-897.21"/>
<text text-anchor="middle" x="132" y="-874" font-family="Arial" font-size="10.00">ii: dangerSource </text>
<text text-anchor="middle" x="132" y="-863" font-family="Arial" font-size="10.00"> is not null</text>
</g>
<!-- N_2_i&#45;&gt;N_2_ii -->
<g id="edge6" class="edge">
<title>N_2_i&#45;&gt;N_2_ii</title>
<path fill="none" stroke="#555555" d="M273.46,-1118.97C257.74,-1073.51 214,-947 214,-947 214,-947 186.17,-921.54 162.93,-900.29"/>
<polygon fill="#555555" stroke="#555555" points="165.02,-897.46 155.28,-893.29 160.3,-902.62 165.02,-897.46"/>
<text text-anchor="middle" x="267.5" y="-996.8" font-family="Arial" font-size="9.00">No</text>
</g>
<!-- N_2_i_yes&#45;&gt;N_2_ii -->
<g id="edge7" class="edge">
<title>N_2_i_yes&#45;&gt;N_2_ii</title>
<path fill="none" stroke="#555555" d="M121.64,-980.74C123.37,-962.66 126.13,-933.67 128.37,-910.17"/>
<polygon fill="#555555" stroke="#555555" points="131.86,-910.43 129.32,-900.15 124.89,-909.77 131.86,-910.43"/>
</g>
<!-- N_2_ii_a -->
<g id="node9" class="node">
<title>N_2_ii_a</title>
<path fill="#f5f5f5" stroke="#333333" d="M135.5,-783C135.5,-783 36.5,-783 36.5,-783 30.5,-783 24.5,-777 24.5,-771 24.5,-771 24.5,-759 24.5,-759 24.5,-753 30.5,-747 36.5,-747 36.5,-747 135.5,-747 135.5,-747 141.5,-747 147.5,-753 147.5,-759 147.5,-759 147.5,-771 147.5,-771 147.5,-777 141.5,-783 135.5,-783"/>
<text text-anchor="middle" x="86" y="-762.5" font-family="Arial" font-size="10.00">ii: set state to DANGER</text>
</g>
<!-- N_2_ii&#45;&gt;N_2_ii_a -->
<g id="edge8" class="edge">
<title>N_2_ii&#45;&gt;N_2_ii_a</title>
<path fill="none" stroke="#555555" d="M120.75,-844.56C113.74,-828.72 104.75,-808.39 97.67,-792.38"/>
<polygon fill="#555555" stroke="#555555" points="100.79,-790.78 93.54,-783.05 94.39,-793.61 100.79,-790.78"/>
<text text-anchor="middle" x="119" y="-815.8" font-family="Arial" font-size="9.00">Yes</text>
</g>
<!-- N_2_ii_b -->
<g id="node10" class="node">
<title>N_2_ii_b</title>
<path fill="#f5f5f5" stroke="#333333" d="M309.11,-781.37C309.11,-781.37 201.98,-766.63 201.98,-766.63 196.04,-765.82 196.04,-764.18 201.98,-763.37 201.98,-763.37 309.11,-748.63 309.11,-748.63 315.06,-747.82 326.94,-747.82 332.89,-748.63 332.89,-748.63 440.02,-763.37 440.02,-763.37 445.96,-764.18 445.96,-765.82 440.02,-766.63 440.02,-766.63 332.89,-781.37 332.89,-781.37 326.94,-782.18 315.06,-782.18 309.11,-781.37"/>
<text text-anchor="middle" x="321" y="-762.5" font-family="Arial" font-size="10.00">ii: the desire is greater than 65.0</text>
</g>
<!-- N_2_ii&#45;&gt;N_2_ii_b -->
<g id="edge9" class="edge">
<title>N_2_ii&#45;&gt;N_2_ii_b</title>
<path fill="none" stroke="#555555" d="M164.92,-851.88C199.29,-832.97 252.9,-803.47 287.49,-784.44"/>
<polygon fill="#555555" stroke="#555555" points="289.21,-787.49 296.28,-779.6 285.83,-781.36 289.21,-787.49"/>
<text text-anchor="middle" x="239.5" y="-815.8" font-family="Arial" font-size="9.00">No</text>
</g>
<!-- N_end -->
<g id="node12" class="node">
<title>N_end</title>
<path fill="#f5f5f5" stroke="#333333" d="M275,-583C275,-583 193,-583 193,-583 187,-583 181,-577 181,-571 181,-571 181,-559 181,-559 181,-553 187,-547 193,-547 193,-547 275,-547 275,-547 281,-547 287,-553 287,-559 287,-559 287,-571 287,-571 287,-577 281,-583 275,-583"/>
<text text-anchor="middle" x="234" y="-562.5" font-family="Arial" font-size="10.00">End of Normal State</text>
</g>
<!-- N_2_ii_a&#45;&gt;N_end -->
<g id="edge12" class="edge">
<title>N_2_ii_a&#45;&gt;N_end</title>
<path fill="none" stroke="#555555" d="M125.3,-746.9C156.18,-733.46 194,-717 194,-717 194,-717 211,-689 211,-689 211,-689 222.17,-629.27 228.94,-593.06"/>
<polygon fill="#555555" stroke="#555555" points="232.4,-593.58 230.8,-583.1 225.52,-592.29 232.4,-593.58"/>
</g>
<!-- N_2_ii_c -->
<g id="node11" class="node">
<title>N_2_ii_c</title>
<path fill="#f5f5f5" stroke="#333333" d="M177.5,-677C177.5,-677 94.5,-677 94.5,-677 88.5,-677 82.5,-671 82.5,-665 82.5,-665 82.5,-653 82.5,-653 82.5,-647 88.5,-641 94.5,-641 94.5,-641 177.5,-641 177.5,-641 183.5,-641 189.5,-647 189.5,-653 189.5,-653 189.5,-665 189.5,-665 189.5,-671 183.5,-677 177.5,-677"/>
<text text-anchor="middle" x="136" y="-656.5" font-family="Arial" font-size="10.00">ii: set state to MATE</text>
</g>
<!-- N_2_ii_b&#45;&gt;N_2_ii_c -->
<g id="edge10" class="edge">
<title>N_2_ii_b&#45;&gt;N_2_ii_c</title>
<path fill="none" stroke="#555555" d="M282.39,-752.14C237.07,-738.22 168,-717 168,-717 168,-717 159.1,-701.15 150.69,-686.17"/>
<polygon fill="#555555" stroke="#555555" points="153.55,-684.11 145.6,-677.1 147.44,-687.54 153.55,-684.11"/>
<text text-anchor="middle" x="176" y="-709.8" font-family="Arial" font-size="9.00">Yes</text>
</g>
<!-- N_2_ii_b&#45;&gt;N_end -->
<g id="edge13" class="edge">
<title>N_2_ii_b&#45;&gt;N_end</title>
<path fill="none" stroke="#555555" d="M313.88,-747.8C298.89,-713.68 263.95,-634.17 245.65,-592.52"/>
<polygon fill="#555555" stroke="#555555" points="248.82,-591.02 241.59,-583.27 242.41,-593.84 248.82,-591.02"/>
<text text-anchor="middle" x="294.5" y="-656.8" font-family="Arial" font-size="9.00">No</text>
</g>
<!-- N_2_ii_c&#45;&gt;N_end -->
<g id="edge14" class="edge">
<title>N_2_ii_c&#45;&gt;N_end</title>
<path fill="none" stroke="#555555" d="M154.43,-640.7C169.63,-626.43 191.35,-606.04 208.26,-590.16"/>
<polygon fill="#555555" stroke="#555555" points="210.75,-592.62 215.65,-583.23 205.96,-587.52 210.75,-592.62"/>
</g>
<!-- D_1_a -->
<g id="node14" class="node">
<title>D_1_a</title>
<path fill="#f5f5f5" stroke="#333333" d="M671,-1375C671,-1375 561,-1375 561,-1375 555,-1375 549,-1369 549,-1363 549,-1363 549,-1351 549,-1351 549,-1345 555,-1339 561,-1339 561,-1339 671,-1339 671,-1339 677,-1339 683,-1345 683,-1351 683,-1351 683,-1363 683,-1363 683,-1369 677,-1375 671,-1375"/>
<text text-anchor="middle" x="616" y="-1354.5" font-family="Arial" font-size="10.00">1: set dangerSource to null</text>
</g>
<!-- D_1&#45;&gt;D_1_a -->
<g id="edge15" class="edge">
<title>D_1&#45;&gt;D_1_a</title>
<path fill="none" stroke="#555555" d="M637.7,-1435.3C633.1,-1418.91 627.77,-1399.94 623.55,-1384.89"/>
<polygon fill="#555555" stroke="#555555" points="626.9,-1383.86 620.82,-1375.18 620.16,-1385.75 626.9,-1383.86"/>
<text text-anchor="middle" x="636" y="-1395.8" font-family="Arial" font-size="9.00">Yes</text>
</g>
<!-- D_2 -->
<g id="node15" class="node">
<title>D_2</title>
<path fill="#f5f5f5" stroke="#333333" d="M621.6,-1277.24C621.6,-1277.24 553.4,-1254.76 553.4,-1254.76 547.7,-1252.88 547.7,-1249.12 553.4,-1247.24 553.4,-1247.24 621.6,-1224.76 621.6,-1224.76 627.3,-1222.88 638.7,-1222.88 644.4,-1224.76 644.4,-1224.76 712.6,-1247.24 712.6,-1247.24 718.3,-1249.12 718.3,-1252.88 712.6,-1254.76 712.6,-1254.76 644.4,-1277.24 644.4,-1277.24 638.7,-1279.12 627.3,-1279.12 621.6,-1277.24"/>
<text text-anchor="middle" x="633" y="-1254" font-family="Arial" font-size="10.00">2: dangerSource </text>
<text text-anchor="middle" x="633" y="-1243" font-family="Arial" font-size="10.00"> is null</text>
</g>
<!-- D_1&#45;&gt;D_2 -->
<g id="edge23" class="edge">
<title>D_1&#45;&gt;D_2</title>
<path fill="none" stroke="#555555" d="M667.62,-1438.62C684.1,-1410.56 705,-1375 705,-1375 705,-1375 705,-1331 705,-1331 705,-1331 680.78,-1304.42 660.43,-1282.1"/>
<polygon fill="#555555" stroke="#555555" points="662.76,-1279.46 653.44,-1274.43 657.59,-1284.18 662.76,-1279.46"/>
<text text-anchor="middle" x="711.5" y="-1354.8" font-family="Arial" font-size="9.00">No</text>
</g>
<!-- D_1_a&#45;&gt;D_2 -->
<g id="edge24" class="edge">
<title>D_1_a&#45;&gt;D_2</title>
<path fill="none" stroke="#555555" d="M618.81,-1338.83C620.98,-1325.54 624.07,-1306.65 626.81,-1289.88"/>
<polygon fill="#555555" stroke="#555555" points="630.3,-1290.21 628.46,-1279.78 623.39,-1289.08 630.3,-1290.21"/>
</g>
<!-- D_2_a -->
<g id="node16" class="node">
<title>D_2_a</title>
<path fill="#f5f5f5" stroke="#333333" d="M604.5,-1154C604.5,-1154 563.5,-1154 563.5,-1154 557.5,-1154 551.5,-1148 551.5,-1142 551.5,-1142 551.5,-1130 551.5,-1130 551.5,-1124 557.5,-1118 563.5,-1118 563.5,-1118 604.5,-1118 604.5,-1118 610.5,-1118 616.5,-1124 616.5,-1130 616.5,-1130 616.5,-1142 616.5,-1142 616.5,-1148 610.5,-1154 604.5,-1154"/>
<text text-anchor="middle" x="584" y="-1133.5" font-family="Arial" font-size="10.00">2: Advance</text>
</g>
<!-- D_2&#45;&gt;D_2_a -->
<g id="edge16" class="edge">
<title>D_2&#45;&gt;D_2_a</title>
<path fill="none" stroke="#555555" d="M616.81,-1226.22C608.88,-1214.57 601,-1203 601,-1203 601,-1203 595.66,-1182.28 590.97,-1164.06"/>
<polygon fill="#555555" stroke="#555555" points="594.35,-1163.15 588.47,-1154.34 587.57,-1164.9 594.35,-1163.15"/>
<text text-anchor="middle" x="609" y="-1195.8" font-family="Arial" font-size="9.00">Yes</text>
</g>
<!-- D_2_b -->
<g id="node17" class="node">
<title>D_2_b</title>
<path fill="#f5f5f5" stroke="#333333" d="M702,-1154C702,-1154 672,-1154 672,-1154 666,-1154 660,-1148 660,-1142 660,-1142 660,-1130 660,-1130 660,-1124 666,-1118 672,-1118 672,-1118 702,-1118 702,-1118 708,-1118 714,-1124 714,-1130 714,-1130 714,-1142 714,-1142 714,-1148 708,-1154 702,-1154"/>
<text text-anchor="middle" x="687" y="-1133.5" font-family="Arial" font-size="10.00">2.i &#45; 2.v</text>
</g>
<!-- D_2&#45;&gt;D_2_b -->
<g id="edge17" class="edge">
<title>D_2&#45;&gt;D_2_b</title>
<path fill="none" stroke="#555555" d="M644.98,-1224.92C653.72,-1206.65 665.52,-1181.95 674.39,-1163.38"/>
<polygon fill="#555555" stroke="#555555" points="677.58,-1164.83 678.73,-1154.3 671.26,-1161.81 677.58,-1164.83"/>
<text text-anchor="middle" x="666.5" y="-1195.8" font-family="Arial" font-size="9.00">No</text>
</g>
<!-- D_3 -->
<g id="node18" class="node">
<title>D_3</title>
<path fill="#f5f5f5" stroke="#333333" d="M601.97,-1046.26C601.97,-1046.26 503.03,-1003.74 503.03,-1003.74 497.51,-1001.37 497.51,-996.63 503.03,-994.26 503.03,-994.26 601.97,-951.74 601.97,-951.74 607.49,-949.37 618.51,-949.37 624.03,-951.74 624.03,-951.74 722.97,-994.26 722.97,-994.26 728.49,-996.63 728.49,-1001.37 722.97,-1003.74 722.97,-1003.74 624.03,-1046.26 624.03,-1046.26 618.51,-1048.63 607.49,-1048.63 601.97,-1046.26"/>
<text text-anchor="middle" x="613" y="-1013" font-family="Arial" font-size="10.00">i: dangerSource is null </text>
<text text-anchor="middle" x="613" y="-1002" font-family="Arial" font-size="10.00"> or dangerSource is not </text>
<text text-anchor="middle" x="613" y="-991" font-family="Arial" font-size="10.00"> in the visual field </text>
<text text-anchor="middle" x="613" y="-980" font-family="Arial" font-size="10.00"> of the animal</text>
</g>
<!-- D_2_a&#45;&gt;D_3 -->
<g id="edge25" class="edge">
<title>D_2_a&#45;&gt;D_3</title>
<path fill="none" stroke="#555555" d="M587.67,-1117.9C590.99,-1102.46 596.06,-1078.84 600.8,-1056.78"/>
<polygon fill="#555555" stroke="#555555" points="604.27,-1057.31 602.95,-1046.79 597.43,-1055.84 604.27,-1057.31"/>
</g>
<!-- D_2_b&#45;&gt;D_3 -->
<g id="edge26" class="edge">
<title>D_2_b&#45;&gt;D_3</title>
<path fill="none" stroke="#555555" d="M677.63,-1117.9C668.32,-1100.92 653.58,-1074.04 640.53,-1050.23"/>
<polygon fill="#555555" stroke="#555555" points="643.5,-1048.37 635.63,-1041.28 637.37,-1051.73 643.5,-1048.37"/>
</g>
<!-- D_3_a -->
<g id="node19" class="node">
<title>D_3_a</title>
<path fill="#f5f5f5" stroke="#333333" d="M678,-889C678,-889 550,-889 550,-889 544,-889 538,-883 538,-877 538,-877 538,-865 538,-865 538,-859 544,-853 550,-853 550,-853 678,-853 678,-853 684,-853 690,-859 690,-865 690,-865 690,-877 690,-877 690,-883 684,-889 678,-889"/>
<text text-anchor="start" x="546" y="-874" font-family="Arial" font-size="10.00">3.1.a: search for a new animal </text>
<text text-anchor="middle" x="614" y="-863" font-family="Arial" font-size="10.00"> that is considered dangerous</text>
</g>
<!-- D_3&#45;&gt;D_3_a -->
<g id="edge18" class="edge">
<title>D_3&#45;&gt;D_3_a</title>
<path fill="none" stroke="#555555" d="M609.39,-948.22C608.6,-937.34 608,-929 608,-929 608,-929 608,-919 608,-919 608,-919 609.2,-909.61 610.52,-899.22"/>
<polygon fill="#555555" stroke="#555555" points="614.01,-899.6 611.8,-889.23 607.06,-898.71 614.01,-899.6"/>
<text text-anchor="middle" x="616" y="-921.8" font-family="Arial" font-size="9.00">Yes</text>
</g>
<!-- D_end -->
<g id="node24" class="node">
<title>D_end</title>
<path fill="#f5f5f5" stroke="#333333" d="M762,-489C762,-489 668,-489 668,-489 662,-489 656,-483 656,-477 656,-477 656,-465 656,-465 656,-459 662,-453 668,-453 668,-453 762,-453 762,-453 768,-453 774,-459 774,-465 774,-465 774,-477 774,-477 774,-483 768,-489 762,-489"/>
<text text-anchor="middle" x="715" y="-468.5" font-family="Arial" font-size="10.00">End of DANGER State</text>
</g>
<!-- D_3&#45;&gt;D_end -->
<g id="edge27" class="edge">
<title>D_3&#45;&gt;D_end</title>
<path fill="none" stroke="#555555" d="M649.3,-962.43C677.56,-934.75 712,-901 712,-901 712,-901 743,-795 743,-795 743,-795 768,-611 768,-611 768,-611 768,-601 768,-601 768,-601 756,-539 756,-539 756,-539 751,-528 751,-528 751,-528 740.93,-512.33 731.44,-497.57"/>
<polygon fill="#555555" stroke="#555555" points="734.35,-495.63 726,-489.11 728.46,-499.41 734.35,-495.63"/>
<text text-anchor="middle" x="760.5" y="-709.8" font-family="Arial" font-size="9.00">No</text>
</g>
<!-- D_3_b -->
<g id="node20" class="node">
<title>D_3_b</title>
<path fill="#f5f5f5" stroke="#333333" d="M602.45,-791.76C602.45,-791.76 518.55,-768.24 518.55,-768.24 512.78,-766.62 512.78,-763.38 518.55,-761.76 518.55,-761.76 602.45,-738.24 602.45,-738.24 608.22,-736.62 619.78,-736.62 625.55,-738.24 625.55,-738.24 709.45,-761.76 709.45,-761.76 715.22,-763.38 715.22,-766.62 709.45,-768.24 709.45,-768.24 625.55,-791.76 625.55,-791.76 619.78,-793.38 608.22,-793.38 602.45,-791.76"/>
<text text-anchor="middle" x="614" y="-768" font-family="Arial" font-size="10.00">3.1.b: dangerSource </text>
<text text-anchor="middle" x="614" y="-757" font-family="Arial" font-size="10.00"> is null?</text>
</g>
<!-- D_3_a&#45;&gt;D_3_b -->
<g id="edge19" class="edge">
<title>D_3_a&#45;&gt;D_3_b</title>
<path fill="none" stroke="#555555" d="M614,-852.83C614,-839.95 614,-821.81 614,-805.44"/>
<polygon fill="#555555" stroke="#555555" points="617.5,-805 614,-795 610.5,-805 617.5,-805"/>
</g>
<!-- D_3_c -->
<g id="node21" class="node">
<title>D_3_c</title>
<path fill="#f5f5f5" stroke="#333333" d="M602.43,-685.82C602.43,-685.82 516.57,-662.18 516.57,-662.18 510.78,-660.59 510.78,-657.41 516.57,-655.82 516.57,-655.82 602.43,-632.18 602.43,-632.18 608.22,-630.59 619.78,-630.59 625.57,-632.18 625.57,-632.18 711.43,-655.82 711.43,-655.82 717.22,-657.41 717.22,-660.59 711.43,-662.18 711.43,-662.18 625.57,-685.82 625.57,-685.82 619.78,-687.41 608.22,-687.41 602.43,-685.82"/>
<text text-anchor="middle" x="614" y="-662" font-family="Arial" font-size="10.00">3.1.b.a: the desire is </text>
<text text-anchor="middle" x="614" y="-651" font-family="Arial" font-size="10.00"> smaller than 65.0?</text>
</g>
<!-- D_3_b&#45;&gt;D_3_c -->
<g id="edge20" class="edge">
<title>D_3_b&#45;&gt;D_3_c</title>
<path fill="none" stroke="#555555" d="M610.41,-735.85C609.13,-725.84 608,-717 608,-717 608,-717 608,-707 608,-707 608,-707 608.46,-703.37 609.13,-698.14"/>
<polygon fill="#555555" stroke="#555555" points="612.61,-698.52 610.41,-688.15 605.67,-697.63 612.61,-698.52"/>
<text text-anchor="middle" x="616" y="-709.8" font-family="Arial" font-size="9.00">Yes</text>
</g>
<!-- D_3_b&#45;&gt;D_end -->
<g id="edge28" class="edge">
<title>D_3_b&#45;&gt;D_end</title>
<path fill="none" stroke="#555555" d="M648.08,-744.49C686.89,-722.27 745,-689 745,-689 745,-689 745,-539 745,-539 745,-539 735.29,-517.32 726.92,-498.63"/>
<polygon fill="#555555" stroke="#555555" points="730.01,-496.95 722.73,-489.25 723.62,-499.81 730.01,-496.95"/>
<text text-anchor="middle" x="751.5" y="-603.8" font-family="Arial" font-size="9.00">No</text>
</g>
<!-- D_3_d -->
<g id="node22" class="node">
<title>D_3_d</title>
<path fill="#f5f5f5" stroke="#333333" d="M711,-583C711,-583 641,-583 641,-583 635,-583 629,-577 629,-571 629,-571 629,-559 629,-559 629,-553 635,-547 641,-547 641,-547 711,-547 711,-547 717,-547 723,-553 723,-559 723,-559 723,-571 723,-571 723,-577 717,-583 711,-583"/>
<text text-anchor="start" x="637" y="-568" font-family="Arial" font-size="10.00">3.1.b.a: set state </text>
<text text-anchor="middle" x="676" y="-557" font-family="Arial" font-size="10.00"> to NORMAL</text>
</g>
<!-- D_3_c&#45;&gt;D_3_d -->
<g id="edge21" class="edge">
<title>D_3_c&#45;&gt;D_3_d</title>
<path fill="none" stroke="#555555" d="M625.48,-631.84C632.05,-616.85 639,-601 639,-601 639,-601 644.15,-596.13 650.6,-590.03"/>
<polygon fill="#555555" stroke="#555555" points="653.07,-592.5 657.93,-583.09 648.26,-587.42 653.07,-592.5"/>
<text text-anchor="middle" x="647" y="-603.8" font-family="Arial" font-size="9.00">Yes</text>
</g>
<!-- D_3_e -->
<g id="node23" class="node">
<title>D_3_e</title>
<path fill="#f5f5f5" stroke="#333333" d="M574,-583C574,-583 504,-583 504,-583 498,-583 492,-577 492,-571 492,-571 492,-559 492,-559 492,-553 498,-547 504,-547 504,-547 574,-547 574,-547 580,-547 586,-553 586,-559 586,-559 586,-571 586,-571 586,-577 580,-583 574,-583"/>
<text text-anchor="start" x="500" y="-568" font-family="Arial" font-size="10.00">3.1.b.a: set state </text>
<text text-anchor="middle" x="539" y="-557" font-family="Arial" font-size="10.00"> to MATE</text>
</g>
<!-- D_3_c&#45;&gt;D_3_e -->
<g id="edge22" class="edge">
<title>D_3_c&#45;&gt;D_3_e</title>
<path fill="none" stroke="#555555" d="M594.69,-634.31C583.9,-621.08 570.47,-604.61 559.5,-591.15"/>
<polygon fill="#555555" stroke="#555555" points="562.07,-588.76 553.04,-583.22 556.64,-593.18 562.07,-588.76"/>
<text text-anchor="middle" x="580.5" y="-603.8" font-family="Arial" font-size="9.00">No</text>
</g>
<!-- D_3_d&#45;&gt;D_end -->
<g id="edge29" class="edge">
<title>D_3_d&#45;&gt;D_end</title>
<path fill="none" stroke="#555555" d="M683.34,-546.7C689.06,-533.2 697.1,-514.23 703.65,-498.78"/>
<polygon fill="#555555" stroke="#555555" points="707.02,-499.8 707.7,-489.23 700.57,-497.07 707.02,-499.8"/>
</g>
<!-- D_3_e&#45;&gt;D_end -->
<g id="edge30" class="edge">
<title>D_3_e&#45;&gt;D_end</title>
<path fill="none" stroke="#555555" d="M571.69,-546.91C600.37,-531.92 642.24,-510.03 673.32,-493.79"/>
<polygon fill="#555555" stroke="#555555" points="674.94,-496.89 682.19,-489.15 671.7,-490.68 674.94,-496.89"/>
</g>
<!-- M_1_a -->
<g id="node26" class="node">
<title>M_1_a</title>
<path fill="#f5f5f5" stroke="#333333" d="M993,-1375C993,-1375 895,-1375 895,-1375 889,-1375 883,-1369 883,-1363 883,-1363 883,-1351 883,-1351 883,-1345 889,-1339 895,-1339 895,-1339 993,-1339 993,-1339 999,-1339 1005,-1345 1005,-1351 1005,-1351 1005,-1363 1005,-1363 1005,-1369 999,-1375 993,-1375"/>
<text text-anchor="middle" x="944" y="-1354.5" font-family="Arial" font-size="10.00">1: set mateTarget to null</text>
</g>
<!-- M_1&#45;&gt;M_1_a -->
<g id="edge31" class="edge">
<title>M_1&#45;&gt;M_1_a</title>
<path fill="none" stroke="#555555" d="M966.87,-1426.62C962.15,-1412.45 957.1,-1397.29 952.94,-1384.83"/>
<polygon fill="#555555" stroke="#555555" points="956.17,-1383.46 949.69,-1375.08 949.53,-1385.67 956.17,-1383.46"/>
<text text-anchor="middle" x="966" y="-1395.8" font-family="Arial" font-size="9.00">Yes</text>
</g>
<!-- M_2 -->
<g id="node27" class="node">
<title>M_2</title>
<path fill="#f5f5f5" stroke="#333333" d="M1073.22,-1266.69C1073.22,-1266.69 1005.13,-1253.31 1005.13,-1253.31 999.24,-1252.16 999.24,-1249.84 1005.13,-1248.69 1005.13,-1248.69 1073.22,-1235.31 1073.22,-1235.31 1079.11,-1234.16 1090.89,-1234.16 1096.78,-1235.31 1096.78,-1235.31 1164.87,-1248.69 1164.87,-1248.69 1170.76,-1249.84 1170.76,-1252.16 1164.87,-1253.31 1164.87,-1253.31 1096.78,-1266.69 1096.78,-1266.69 1090.89,-1267.84 1079.11,-1267.84 1073.22,-1266.69"/>
<text text-anchor="middle" x="1085" y="-1248.5" font-family="Arial" font-size="10.00">2: mateTarget is null?</text>
</g>
<!-- M_1&#45;&gt;M_2 -->
<g id="edge47" class="edge">
<title>M_1&#45;&gt;M_2</title>
<path fill="none" stroke="#555555" d="M1002.35,-1428.54C1023.52,-1383.32 1055.93,-1314.09 1073.2,-1277.19"/>
<polygon fill="#555555" stroke="#555555" points="1076.58,-1278.23 1077.65,-1267.69 1070.24,-1275.27 1076.58,-1278.23"/>
<text text-anchor="middle" x="1053.5" y="-1354.8" font-family="Arial" font-size="9.00">No</text>
</g>
<!-- M_1_a&#45;&gt;M_2 -->
<g id="edge46" class="edge">
<title>M_1_a&#45;&gt;M_2</title>
<path fill="none" stroke="#555555" d="M967.28,-1338.83C992.3,-1320.37 1032,-1291.09 1058.27,-1271.71"/>
<polygon fill="#555555" stroke="#555555" points="1060.66,-1274.3 1066.63,-1265.55 1056.5,-1268.67 1060.66,-1274.3"/>
</g>
<!-- M_2_a -->
<g id="node28" class="node">
<title>M_2_a</title>
<path fill="#f5f5f5" stroke="#333333" d="M1266.5,-1154C1266.5,-1154 1121.5,-1154 1121.5,-1154 1115.5,-1154 1109.5,-1148 1109.5,-1142 1109.5,-1142 1109.5,-1130 1109.5,-1130 1109.5,-1124 1115.5,-1118 1121.5,-1118 1121.5,-1118 1266.5,-1118 1266.5,-1118 1272.5,-1118 1278.5,-1124 1278.5,-1130 1278.5,-1130 1278.5,-1142 1278.5,-1142 1278.5,-1148 1272.5,-1154 1266.5,-1154"/>
<text text-anchor="middle" x="1194" y="-1133.5" font-family="Arial" font-size="10.00">2: Choose and animal to mate with</text>
</g>
<!-- M_2&#45;&gt;M_2_a -->
<g id="edge32" class="edge">
<title>M_2&#45;&gt;M_2_a</title>
<path fill="none" stroke="#555555" d="M1098.8,-1235.69C1116.82,-1217.01 1148.61,-1184.05 1170.47,-1161.4"/>
<polygon fill="#555555" stroke="#555555" points="1173.04,-1163.77 1177.46,-1154.14 1168,-1158.91 1173.04,-1163.77"/>
<text text-anchor="middle" x="1147" y="-1195.8" font-family="Arial" font-size="9.00">Yes</text>
</g>
<!-- M_2_d -->
<g id="node31" class="node">
<title>M_2_d</title>
<path fill="#f5f5f5" stroke="#333333" d="M1002,-1154C1002,-1154 972,-1154 972,-1154 966,-1154 960,-1148 960,-1142 960,-1142 960,-1130 960,-1130 960,-1124 966,-1118 972,-1118 972,-1118 1002,-1118 1002,-1118 1008,-1118 1014,-1124 1014,-1130 1014,-1130 1014,-1142 1014,-1142 1014,-1148 1008,-1154 1002,-1154"/>
<text text-anchor="middle" x="987" y="-1133.5" font-family="Arial" font-size="10.00">2.i &#45; 2.v</text>
</g>
<!-- M_2&#45;&gt;M_2_d -->
<g id="edge35" class="edge">
<title>M_2&#45;&gt;M_2_d</title>
<path fill="none" stroke="#555555" d="M1072.19,-1235.23C1056.11,-1216.69 1028.28,-1184.6 1008.82,-1162.16"/>
<polygon fill="#555555" stroke="#555555" points="1011.26,-1159.63 1002.06,-1154.37 1005.97,-1164.22 1011.26,-1159.63"/>
<text text-anchor="middle" x="1047.5" y="-1195.8" font-family="Arial" font-size="9.00">No</text>
</g>
<!-- M_2_b -->
<g id="node29" class="node">
<title>M_2_b</title>
<path fill="#f5f5f5" stroke="#333333" d="M1218.22,-1014.69C1218.22,-1014.69 1150.13,-1001.31 1150.13,-1001.31 1144.24,-1000.16 1144.24,-997.84 1150.13,-996.69 1150.13,-996.69 1218.22,-983.31 1218.22,-983.31 1224.11,-982.16 1235.89,-982.16 1241.78,-983.31 1241.78,-983.31 1309.87,-996.69 1309.87,-996.69 1315.76,-997.84 1315.76,-1000.16 1309.87,-1001.31 1309.87,-1001.31 1241.78,-1014.69 1241.78,-1014.69 1235.89,-1015.84 1224.11,-1015.84 1218.22,-1014.69"/>
<text text-anchor="middle" x="1230" y="-996.5" font-family="Arial" font-size="10.00">2: mateTarget is null?</text>
</g>
<!-- M_2_a&#45;&gt;M_2_b -->
<g id="edge33" class="edge">
<title>M_2_a&#45;&gt;M_2_b</title>
<path fill="none" stroke="#555555" d="M1198.56,-1117.9C1204.71,-1094.85 1215.71,-1053.58 1222.93,-1026.5"/>
<polygon fill="#555555" stroke="#555555" points="1226.4,-1027.1 1225.59,-1016.54 1219.63,-1025.3 1226.4,-1027.1"/>
</g>
<!-- M_2_c -->
<g id="node30" class="node">
<title>M_2_c</title>
<path fill="#f5f5f5" stroke="#333333" d="M1149.5,-889C1149.5,-889 1108.5,-889 1108.5,-889 1102.5,-889 1096.5,-883 1096.5,-877 1096.5,-877 1096.5,-865 1096.5,-865 1096.5,-859 1102.5,-853 1108.5,-853 1108.5,-853 1149.5,-853 1149.5,-853 1155.5,-853 1161.5,-859 1161.5,-865 1161.5,-865 1161.5,-877 1161.5,-877 1161.5,-883 1155.5,-889 1149.5,-889"/>
<text text-anchor="middle" x="1129" y="-868.5" font-family="Arial" font-size="10.00">2: Advance</text>
</g>
<!-- M_2_b&#45;&gt;M_2_c -->
<g id="edge34" class="edge">
<title>M_2_b&#45;&gt;M_2_c</title>
<path fill="none" stroke="#555555" d="M1218.02,-983.05C1201.04,-961.88 1169.77,-922.87 1149.18,-897.18"/>
<polygon fill="#555555" stroke="#555555" points="1151.89,-894.96 1142.9,-889.35 1146.43,-899.34 1151.89,-894.96"/>
<text text-anchor="middle" x="1181" y="-921.8" font-family="Arial" font-size="9.00">Yes</text>
</g>
<!-- M_3 -->
<g id="node37" class="node">
<title>M_3</title>
<path fill="#f5f5f5" stroke="#333333" d="M1149.18,-486.91C1149.18,-486.91 1071.19,-473.09 1071.19,-473.09 1065.28,-472.05 1065.28,-469.95 1071.19,-468.91 1071.19,-468.91 1149.18,-455.09 1149.18,-455.09 1155.09,-454.05 1166.91,-454.05 1172.82,-455.09 1172.82,-455.09 1250.81,-468.91 1250.81,-468.91 1256.72,-469.95 1256.72,-472.05 1250.81,-473.09 1250.81,-473.09 1172.82,-486.91 1172.82,-486.91 1166.91,-487.95 1155.09,-487.95 1149.18,-486.91"/>
<text text-anchor="middle" x="1161" y="-468.5" font-family="Arial" font-size="10.00">3: dangerSource is null?</text>
</g>
<!-- M_2_b&#45;&gt;M_3 -->
<g id="edge48" class="edge">
<title>M_2_b&#45;&gt;M_3</title>
<path fill="none" stroke="#555555" d="M1234.76,-981.79C1244.75,-947.76 1267,-872 1267,-872 1267,-872 1267,-872 1267,-564 1267,-564 1216.76,-520.39 1185.45,-493.22"/>
<polygon fill="#555555" stroke="#555555" points="1187.41,-490.29 1177.56,-486.38 1182.82,-495.57 1187.41,-490.29"/>
<text text-anchor="middle" x="1273.5" y="-709.8" font-family="Arial" font-size="9.00">No</text>
</g>
<!-- M_2_c&#45;&gt;M_3 -->
<g id="edge49" class="edge">
<title>M_2_c&#45;&gt;M_3</title>
<path fill="none" stroke="#555555" d="M1133.62,-852.83C1141.58,-823.29 1157,-766 1157,-766 1157,-766 1157,-766 1157,-564 1157,-564 1158.65,-526.15 1159.83,-499"/>
<polygon fill="#555555" stroke="#555555" points="1163.33,-499.02 1160.27,-488.87 1156.34,-498.71 1163.33,-499.02"/>
</g>
<!-- M_2_e -->
<g id="node32" class="node">
<title>M_2_e</title>
<path fill="#f5f5f5" stroke="#333333" d="M958.6,-1036.26C958.6,-1036.26 856.4,-1002.74 856.4,-1002.74 850.7,-1000.87 850.7,-997.13 856.4,-995.26 856.4,-995.26 958.6,-961.74 958.6,-961.74 964.3,-959.87 975.7,-959.87 981.4,-961.74 981.4,-961.74 1083.6,-995.26 1083.6,-995.26 1089.3,-997.13 1089.3,-1000.87 1083.6,-1002.74 1083.6,-1002.74 981.4,-1036.26 981.4,-1036.26 975.7,-1038.13 964.3,-1038.13 958.6,-1036.26"/>
<text text-anchor="middle" x="970" y="-1007.5" font-family="Arial" font-size="10.00">vi :the distance from the </text>
<text text-anchor="middle" x="970" y="-996.5" font-family="Arial" font-size="10.00"> animal to mateTarget </text>
<text text-anchor="middle" x="970" y="-985.5" font-family="Arial" font-size="10.00"> is smaller than 8.0?</text>
</g>
<!-- M_2_d&#45;&gt;M_2_e -->
<g id="edge36" class="edge">
<title>M_2_d&#45;&gt;M_2_e</title>
<path fill="none" stroke="#555555" d="M984.85,-1117.9C982.66,-1100.52 979.16,-1072.78 976.12,-1048.57"/>
<polygon fill="#555555" stroke="#555555" points="979.56,-1047.93 974.84,-1038.45 972.62,-1048.81 979.56,-1047.93"/>
</g>
<!-- M_2_f -->
<g id="node33" class="node">
<title>M_2_f</title>
<path fill="#f5f5f5" stroke="#333333" d="M1041.5,-889C1041.5,-889 884.5,-889 884.5,-889 878.5,-889 872.5,-883 872.5,-877 872.5,-877 872.5,-865 872.5,-865 872.5,-859 878.5,-853 884.5,-853 884.5,-853 1041.5,-853 1041.5,-853 1047.5,-853 1053.5,-859 1053.5,-865 1053.5,-865 1053.5,-877 1053.5,-877 1053.5,-883 1047.5,-889 1041.5,-889"/>
<text text-anchor="start" x="880.5" y="-874" font-family="Arial" font-size="10.00">2.vi.a: Reset the desire of the animal </text>
<text text-anchor="middle" x="963" y="-863" font-family="Arial" font-size="10.00"> and of mateTarget to 0.0</text>
</g>
<!-- M_2_e&#45;&gt;M_2_f -->
<g id="edge37" class="edge">
<title>M_2_e&#45;&gt;M_2_f</title>
<path fill="none" stroke="#555555" d="M967.8,-958.48C966.74,-939.23 965.48,-916.58 964.52,-899.28"/>
<polygon fill="#555555" stroke="#555555" points="968.01,-899.08 963.96,-889.29 961.02,-899.47 968.01,-899.08"/>
<text text-anchor="middle" x="974" y="-921.8" font-family="Arial" font-size="9.00">Yes</text>
</g>
<!-- M_2_e&#45;&gt;M_3 -->
<g id="edge50" class="edge">
<title>M_2_e&#45;&gt;M_3</title>
<path fill="none" stroke="#555555" d="M1029.37,-977.4C1070.16,-963.25 1117,-947 1117,-947 1117,-947 1199,-929 1199,-929 1199,-929 1206,-872 1206,-872 1206,-872 1206,-872 1206,-564 1206,-564 1186.58,-524.3 1173.26,-497.06"/>
<polygon fill="#555555" stroke="#555555" points="1176.38,-495.47 1168.84,-488.03 1170.09,-498.55 1176.38,-495.47"/>
<text text-anchor="middle" x="1212.5" y="-709.8" font-family="Arial" font-size="9.00">No</text>
</g>
<!-- M_2_g -->
<g id="node34" class="node">
<title>M_2_g</title>
<path fill="#f5f5f5" stroke="#333333" d="M951.15,-781.09C951.15,-781.09 863.24,-766.91 863.24,-766.91 857.31,-765.96 857.31,-764.04 863.24,-763.09 863.24,-763.09 951.15,-748.91 951.15,-748.91 957.08,-747.96 968.92,-747.96 974.85,-748.91 974.85,-748.91 1062.76,-763.09 1062.76,-763.09 1068.69,-764.04 1068.69,-765.96 1062.76,-766.91 1062.76,-766.91 974.85,-781.09 974.85,-781.09 968.92,-782.04 957.08,-782.04 951.15,-781.09"/>
<text text-anchor="middle" x="963" y="-762.5" font-family="Arial" font-size="10.00">2.vi.b: has a baby already?</text>
</g>
<!-- M_2_f&#45;&gt;M_2_g -->
<g id="edge38" class="edge">
<title>M_2_f&#45;&gt;M_2_g</title>
<path fill="none" stroke="#555555" d="M963,-852.83C963,-836.64 963,-812.13 963,-793.27"/>
<polygon fill="#555555" stroke="#555555" points="966.5,-793.2 963,-783.2 959.5,-793.2 966.5,-793.2"/>
</g>
<!-- M_2_h -->
<g id="node35" class="node">
<title>M_2_h</title>
<path fill="#f5f5f5" stroke="#333333" d="M990.5,-685C990.5,-685 869.5,-685 869.5,-685 863.5,-685 857.5,-679 857.5,-673 857.5,-673 857.5,-645 857.5,-645 857.5,-639 863.5,-633 869.5,-633 869.5,-633 990.5,-633 990.5,-633 996.5,-633 1002.5,-639 1002.5,-645 1002.5,-645 1002.5,-673 1002.5,-673 1002.5,-679 996.5,-685 990.5,-685"/>
<text text-anchor="start" x="865.5" y="-673" font-family="Arial" font-size="10.00">2.vi.b: with probability </text>
<text text-anchor="start" x="865.5" y="-662" font-family="Arial" font-size="10.00"> de 0.9 it carries a </text>
<text text-anchor="start" x="865.5" y="-651" font-family="Arial" font-size="10.00"> new baby using </text>
<text text-anchor="middle" x="930" y="-640" font-family="Arial" font-size="10.00"> new Sheep(this, mateTarget)</text>
</g>
<!-- M_2_g&#45;&gt;M_2_h -->
<g id="edge39" class="edge">
<title>M_2_g&#45;&gt;M_2_h</title>
<path fill="none" stroke="#555555" d="M957.84,-747.75C953.35,-733.58 946.67,-712.54 940.98,-694.62"/>
<polygon fill="#555555" stroke="#555555" points="944.31,-693.52 937.95,-685.04 937.63,-695.63 944.31,-693.52"/>
<text text-anchor="middle" x="953.5" y="-709.8" font-family="Arial" font-size="9.00">No</text>
</g>
<!-- M_2_i -->
<g id="node36" class="node">
<title>M_2_i</title>
<path fill="#f5f5f5" stroke="#333333" d="M1100.5,-583C1100.5,-583 983.5,-583 983.5,-583 977.5,-583 971.5,-577 971.5,-571 971.5,-571 971.5,-559 971.5,-559 971.5,-553 977.5,-547 983.5,-547 983.5,-547 1100.5,-547 1100.5,-547 1106.5,-547 1112.5,-553 1112.5,-559 1112.5,-559 1112.5,-571 1112.5,-571 1112.5,-577 1106.5,-583 1100.5,-583"/>
<text text-anchor="middle" x="1042" y="-562.5" font-family="Arial" font-size="10.00">2.vi.c: set mateTarget to null</text>
</g>
<!-- M_2_g&#45;&gt;M_2_i -->
<g id="edge40" class="edge">
<title>M_2_g&#45;&gt;M_2_i</title>
<path fill="none" stroke="#555555" d="M975.34,-748.82C993.17,-726.91 1024,-689 1024,-689 1024,-689 1032.74,-629.27 1038.04,-593.06"/>
<polygon fill="#555555" stroke="#555555" points="1041.51,-593.5 1039.5,-583.1 1034.59,-592.49 1041.51,-593.5"/>
<text text-anchor="middle" x="1040" y="-656.8" font-family="Arial" font-size="9.00">Yes</text>
</g>
<!-- M_2_h&#45;&gt;M_2_i -->
<g id="edge41" class="edge">
<title>M_2_h&#45;&gt;M_2_i</title>
<path fill="none" stroke="#555555" d="M960.6,-632.86C976.93,-619.45 996.91,-603.04 1012.99,-589.83"/>
<polygon fill="#555555" stroke="#555555" points="1015.49,-592.3 1021,-583.25 1011.05,-586.89 1015.49,-592.3"/>
</g>
<!-- M_2_i&#45;&gt;M_3 -->
<g id="edge51" class="edge">
<title>M_2_i&#45;&gt;M_3</title>
<path fill="none" stroke="#555555" d="M1064.1,-546.91C1084.16,-531.41 1113.75,-508.53 1134.95,-492.14"/>
<polygon fill="#555555" stroke="#555555" points="1137.13,-494.87 1142.91,-485.99 1132.85,-489.34 1137.13,-494.87"/>
</g>
<!-- M_3_a -->
<g id="node38" class="node">
<title>M_3_a</title>
<path fill="#f5f5f5" stroke="#333333" d="M1206.5,-407C1206.5,-407 1085.5,-407 1085.5,-407 1079.5,-407 1073.5,-401 1073.5,-395 1073.5,-395 1073.5,-383 1073.5,-383 1073.5,-377 1079.5,-371 1085.5,-371 1085.5,-371 1206.5,-371 1206.5,-371 1212.5,-371 1218.5,-377 1218.5,-383 1218.5,-383 1218.5,-395 1218.5,-395 1218.5,-401 1212.5,-407 1206.5,-407"/>
<text text-anchor="start" x="1081.5" y="-392" font-family="Arial" font-size="10.00">3: choose a new animal </text>
<text text-anchor="middle" x="1146" y="-381" font-family="Arial" font-size="10.00"> that is considered dangerous</text>
</g>
<!-- M_3&#45;&gt;M_3_a -->
<g id="edge42" class="edge">
<title>M_3&#45;&gt;M_3_a</title>
<path fill="none" stroke="#555555" d="M1157.89,-453.42C1155.93,-442.95 1153.34,-429.16 1151.08,-417.11"/>
<polygon fill="#555555" stroke="#555555" points="1154.49,-416.29 1149.21,-407.11 1147.61,-417.58 1154.49,-416.29"/>
<text text-anchor="middle" x="1162" y="-427.8" font-family="Arial" font-size="9.00">Yes</text>
</g>
<!-- M_4 -->
<g id="node39" class="node">
<title>M_4</title>
<path fill="#f5f5f5" stroke="#333333" d="M1143.18,-310.91C1143.18,-310.91 1065.19,-297.09 1065.19,-297.09 1059.28,-296.05 1059.28,-293.95 1065.19,-292.91 1065.19,-292.91 1143.18,-279.09 1143.18,-279.09 1149.09,-278.05 1160.91,-278.05 1166.82,-279.09 1166.82,-279.09 1244.81,-292.91 1244.81,-292.91 1250.72,-293.95 1250.72,-296.05 1244.81,-297.09 1244.81,-297.09 1166.82,-310.91 1166.82,-310.91 1160.91,-311.95 1149.09,-311.95 1143.18,-310.91"/>
<text text-anchor="middle" x="1155" y="-292.5" font-family="Arial" font-size="10.00">4: dangerSource is null?</text>
</g>
<!-- M_3&#45;&gt;M_4 -->
<g id="edge53" class="edge">
<title>M_3&#45;&gt;M_4</title>
<path fill="none" stroke="#555555" d="M1178.53,-456.02C1201.81,-437.46 1240,-407 1240,-407 1240,-407 1240,-363 1240,-363 1240,-363 1205.7,-335.96 1180.68,-316.24"/>
<polygon fill="#555555" stroke="#555555" points="1182.63,-313.32 1172.61,-309.88 1178.3,-318.82 1182.63,-313.32"/>
<text text-anchor="middle" x="1246.5" y="-386.8" font-family="Arial" font-size="9.00">No</text>
</g>
<!-- M_3_a&#45;&gt;M_4 -->
<g id="edge52" class="edge">
<title>M_3_a&#45;&gt;M_4</title>
<path fill="none" stroke="#555555" d="M1147.69,-370.7C1149.01,-357.25 1150.86,-338.35 1152.37,-322.93"/>
<polygon fill="#555555" stroke="#555555" points="1155.85,-323.21 1153.35,-312.92 1148.89,-322.53 1155.85,-323.21"/>
</g>
<!-- M_4_a -->
<g id="node40" class="node">
<title>M_4_a</title>
<path fill="#f5f5f5" stroke="#333333" d="M1017,-219C1017,-219 917,-219 917,-219 911,-219 905,-213 905,-207 905,-207 905,-195 905,-195 905,-189 911,-183 917,-183 917,-183 1017,-183 1017,-183 1023,-183 1029,-189 1029,-195 1029,-195 1029,-207 1029,-207 1029,-213 1023,-219 1017,-219"/>
<text text-anchor="middle" x="967" y="-198.5" font-family="Arial" font-size="10.00">4: set state to DANGER</text>
</g>
<!-- M_4&#45;&gt;M_4_a -->
<g id="edge43" class="edge">
<title>M_4&#45;&gt;M_4_a</title>
<path fill="none" stroke="#555555" d="M1129.25,-281.4C1098.85,-266.52 1047.76,-241.52 1011.03,-223.55"/>
<polygon fill="#555555" stroke="#555555" points="1012.54,-220.39 1002.02,-219.14 1009.47,-226.68 1012.54,-220.39"/>
<text text-anchor="middle" x="1091" y="-251.8" font-family="Arial" font-size="9.00">Yes</text>
</g>
<!-- M_4_b -->
<g id="node41" class="node">
<title>M_4_b</title>
<path fill="#f5f5f5" stroke="#333333" d="M1165.46,-227.7C1165.46,-227.7 1083.54,-204.3 1083.54,-204.3 1077.77,-202.65 1077.77,-199.35 1083.54,-197.7 1083.54,-197.7 1165.46,-174.3 1165.46,-174.3 1171.23,-172.65 1182.77,-172.65 1188.54,-174.3 1188.54,-174.3 1270.46,-197.7 1270.46,-197.7 1276.23,-199.35 1276.23,-202.65 1270.46,-204.3 1270.46,-204.3 1188.54,-227.7 1188.54,-227.7 1182.77,-229.35 1171.23,-229.35 1165.46,-227.7"/>
<text text-anchor="middle" x="1177" y="-204" font-family="Arial" font-size="10.00">4: the desire is less </text>
<text text-anchor="middle" x="1177" y="-193" font-family="Arial" font-size="10.00"> than 65.0?</text>
</g>
<!-- M_4&#45;&gt;M_4_b -->
<g id="edge44" class="edge">
<title>M_4&#45;&gt;M_4_b</title>
<path fill="none" stroke="#555555" d="M1158.93,-277.55C1161.47,-266.93 1164.89,-252.65 1168.06,-239.37"/>
<polygon fill="#555555" stroke="#555555" points="1171.5,-240.03 1170.43,-229.49 1164.7,-238.4 1171.5,-240.03"/>
<text text-anchor="middle" x="1171.5" y="-251.8" font-family="Arial" font-size="9.00">No</text>
</g>
<!-- M_end -->
<g id="node43" class="node">
<title>M_end</title>
<path fill="#f5f5f5" stroke="#333333" d="M1128.5,-52C1128.5,-52 1051.5,-52 1051.5,-52 1045.5,-52 1039.5,-46 1039.5,-40 1039.5,-40 1039.5,-28 1039.5,-28 1039.5,-22 1045.5,-16 1051.5,-16 1051.5,-16 1128.5,-16 1128.5,-16 1134.5,-16 1140.5,-22 1140.5,-28 1140.5,-28 1140.5,-40 1140.5,-40 1140.5,-46 1134.5,-52 1128.5,-52"/>
<text text-anchor="middle" x="1090" y="-31.5" font-family="Arial" font-size="10.00">End of MATE State</text>
</g>
<!-- M_4_a&#45;&gt;M_end -->
<g id="edge54" class="edge">
<title>M_4_a&#45;&gt;M_end</title>
<path fill="none" stroke="#555555" d="M995.97,-182.77C1018.51,-169.35 1046,-153 1046,-153 1046,-153 1067,-125 1067,-125 1067,-125 1076.26,-88.76 1083.03,-62.28"/>
<polygon fill="#555555" stroke="#555555" points="1086.48,-62.91 1085.57,-52.35 1079.7,-61.17 1086.48,-62.91"/>
</g>
<!-- M_4_c -->
<g id="node42" class="node">
<title>M_4_c</title>
<path fill="#f5f5f5" stroke="#333333" d="M1033.5,-125C1033.5,-125 934.5,-125 934.5,-125 928.5,-125 922.5,-119 922.5,-113 922.5,-113 922.5,-101 922.5,-101 922.5,-95 928.5,-89 934.5,-89 934.5,-89 1033.5,-89 1033.5,-89 1039.5,-89 1045.5,-95 1045.5,-101 1045.5,-101 1045.5,-113 1045.5,-113 1045.5,-119 1039.5,-125 1033.5,-125"/>
<text text-anchor="middle" x="984" y="-104.5" font-family="Arial" font-size="10.00">4: set state to NORMAL</text>
</g>
<!-- M_4_b&#45;&gt;M_4_c -->
<g id="edge45" class="edge">
<title>M_4_b&#45;&gt;M_4_c</title>
<path fill="none" stroke="#555555" d="M1127.32,-185.13C1081.33,-171.36 1020,-153 1020,-153 1020,-153 1012.26,-143.32 1003.95,-132.94"/>
<polygon fill="#555555" stroke="#555555" points="1006.59,-130.63 997.61,-125.01 1001.12,-135.01 1006.59,-130.63"/>
<text text-anchor="middle" x="1028" y="-145.8" font-family="Arial" font-size="9.00">Yes</text>
</g>
<!-- M_4_b&#45;&gt;M_end -->
<g id="edge55" class="edge">
<title>M_4_b&#45;&gt;M_end</title>
<path fill="none" stroke="#555555" d="M1163.6,-174.58C1147.36,-143.78 1120.13,-92.15 1103.74,-61.06"/>
<polygon fill="#555555" stroke="#555555" points="1106.79,-59.33 1099.03,-52.12 1100.59,-62.6 1106.79,-59.33"/>
<text text-anchor="middle" x="1142.5" y="-104.8" font-family="Arial" font-size="9.00">No</text>
</g>
<!-- M_4_c&#45;&gt;M_end -->
<g id="edge56" class="edge">
<title>M_4_c&#45;&gt;M_end</title>
<path fill="none" stroke="#555555" d="M1009.39,-88.99C1023.32,-79.67 1040.77,-67.97 1055.87,-57.86"/>
<polygon fill="#555555" stroke="#555555" points="1058.09,-60.59 1064.45,-52.11 1054.19,-54.77 1058.09,-60.59"/>
</g>
</g>
</svg>
