<?xml version="1.0" encoding="UTF-8" standalone="no"?>
<!DOCTYPE svg PUBLIC "-//W3C//DTD SVG 1.1//EN"
 "http://www.w3.org/Graphics/SVG/1.1/DTD/svg11.dtd">
<!-- Generated by graphviz version 2.43.0 (0)
 -->
<!-- Title: AnimalStateUpdate_Acyclic Pages: 1 -->
<svg width="1322pt" height="1630pt"
 viewBox="0.00 0.00 1322.00 1630.00" xmlns="http://www.w3.org/2000/svg" xmlns:xlink="http://www.w3.org/1999/xlink">
<g id="graph0" class="graph" transform="scale(1 1) rotate(0) translate(4 1626)">
<title>AnimalStateUpdate_Acyclic</title>
<polygon fill="white" stroke="transparent" points="-4,4 -4,-1626 1318,-1626 1318,4 -4,4"/>
<g id="clust1" class="cluster">
<title>cluster_normal_flow</title>
<polygon fill="#f1f8e9" stroke="#f1f8e9" points="8,-660 8,-1466 429,-1466 429,-660 8,-660"/>
<text text-anchor="middle" x="218.5" y="-1450.8" font-family="Times,serif" font-size="14.00">State: NORMAL</text>
</g>
<g id="clust2" class="cluster">
<title>cluster_normal_flow_1</title>
<polygon fill="#00f8e9" stroke="#00f8e9" points="179,-1115 179,-1435 421,-1435 421,-1115 179,-1115"/>
<text text-anchor="middle" x="300" y="-1419.8" font-family="Times,serif" font-size="14.00">(1)</text>
</g>
<g id="clust3" class="cluster">
<title>cluster_normal_flow_2</title>
<polygon fill="#00f8e9" stroke="#00f8e9" points="16,-766 16,-1075 421,-1075 421,-766 16,-766"/>
<text text-anchor="middle" x="218.5" y="-1059.8" font-family="Times,serif" font-size="14.00">(2)</text>
</g>
<g id="clust4" class="cluster">
<title>cluster_hunger_flow</title>
<polygon fill="#f1f8e9" stroke="#f1f8e9" points="437,-387 437,-1477 791,-1477 791,-387 437,-387"/>
<text text-anchor="middle" x="614" y="-1461.8" font-family="Times,serif" font-size="14.00">State: HUNGER</text>
</g>
<g id="clust5" class="cluster">
<title>cluster_hunger_flow_1</title>
<polygon fill="#00f8e9" stroke="#00f8e9" points="452,-1221 452,-1446 736,-1446 736,-1221 452,-1221"/>
<text text-anchor="middle" x="594" y="-1430.8" font-family="Times,serif" font-size="14.00">(1)</text>
</g>
<g id="clust6" class="cluster">
<title>cluster_hunger_flow_2</title>
<polygon fill="#00f8e9" stroke="#00f8e9" points="469,-766 469,-1202 648,-1202 648,-766 469,-766"/>
<text text-anchor="middle" x="558.5" y="-1186.8" font-family="Times,serif" font-size="14.00">(2)</text>
</g>
<g id="clust7" class="cluster">
<title>cluster_hunger_flow_3</title>
<polygon fill="#00f8e9" stroke="#00f8e9" points="445,-460 445,-747 746,-747 746,-460 445,-460"/>
<text text-anchor="middle" x="595.5" y="-731.8" font-family="Times,serif" font-size="14.00">(3)</text>
</g>
<g id="clust8" class="cluster">
<title>cluster_mate_flow</title>
<polygon fill="#f1f8e9" stroke="#f1f8e9" points="799,-8 799,-1466 1306,-1466 1306,-8 799,-8"/>
<text text-anchor="middle" x="1052.5" y="-1450.8" font-family="Times,serif" font-size="14.00">State: MATE</text>
</g>
<g id="clust9" class="cluster">
<title>cluster_mate_flow_1</title>
<polygon fill="#00f8e9" stroke="#00f8e9" points="807,-1221 807,-1435 1115,-1435 1115,-1221 807,-1221"/>
<text text-anchor="middle" x="961" y="-1419.8" font-family="Times,serif" font-size="14.00">(1)</text>
</g>
<g id="clust10" class="cluster">
<title>cluster_mate_flow_2</title>
<polygon fill="#00f8e9" stroke="#00f8e9" points="807,-387 807,-1190 1284,-1190 1284,-387 807,-387"/>
<text text-anchor="middle" x="1045.5" y="-1174.8" font-family="Times,serif" font-size="14.00">(2)</text>
</g>
<g id="clust11" class="cluster">
<title>cluster_mate_flow_3</title>
<polygon fill="#00f8e9" stroke="#00f8e9" points="890,-81 890,-368 1275,-368 1275,-81 890,-81"/>
<text text-anchor="middle" x="1082.5" y="-352.8" font-family="Times,serif" font-size="14.00">(3)</text>
</g>
<!-- Start -->
<g id="node1" class="node">
<title>Start</title>
<ellipse fill="#e1f5fe" stroke="#333333" cx="594" cy="-1604" rx="72.99" ry="18"/>
<text text-anchor="middle" x="594" y="-1601.5" font-family="Arial" font-size="10.00">Start: Update State Wolf</text>
</g>
<!-- StateDecider -->
<g id="node2" class="node">
<title>StateDecider</title>
<polygon fill="#f5f5f5" stroke="#333333" points="594,-1549 527.3,-1531 594,-1513 660.7,-1531 594,-1549"/>
<text text-anchor="middle" x="594" y="-1528.5" font-family="Arial" font-size="10.00">Current State?</text>
</g>
<!-- Start&#45;&gt;StateDecider -->
<g id="edge1" class="edge">
<title>Start&#45;&gt;StateDecider</title>
<path fill="none" stroke="#555555" d="M594,-1585.81C594,-1577.79 594,-1568.05 594,-1559.07"/>
<polygon fill="#555555" stroke="#555555" points="597.5,-1559.03 594,-1549.03 590.5,-1559.03 597.5,-1559.03"/>
</g>
<!-- N_1_i -->
<g id="node3" class="node">
<title>N_1_i</title>
<path fill="#f5f5f5" stroke="#333333" d="M288.72,-1399.91C288.72,-1399.91 198.28,-1367.09 198.28,-1367.09 192.64,-1365.05 192.64,-1360.95 198.28,-1358.91 198.28,-1358.91 288.72,-1326.09 288.72,-1326.09 294.36,-1324.05 305.64,-1324.05 311.28,-1326.09 311.28,-1326.09 401.72,-1358.91 401.72,-1358.91 407.36,-1360.95 407.36,-1365.05 401.72,-1367.09 401.72,-1367.09 311.28,-1399.91 311.28,-1399.91 305.64,-1401.95 294.36,-1401.95 288.72,-1399.91"/>
<text text-anchor="middle" x="300" y="-1371.5" font-family="Arial" font-size="10.00">i: the distance of the</text>
<text text-anchor="middle" x="300" y="-1360.5" font-family="Arial" font-size="10.00"> animal to destination </text>
<text text-anchor="middle" x="300" y="-1349.5" font-family="Arial" font-size="10.00"> is smaller than 8.0?</text>
</g>
<!-- StateDecider&#45;&gt;N_1_i -->
<g id="edge52" class="edge">
<title>StateDecider&#45;&gt;N_1_i</title>
<path fill="none" stroke="#555555" d="M566.47,-1520.4C522.67,-1505.13 442,-1477 442,-1477 442,-1477 384.44,-1431.19 342.61,-1397.91"/>
<polygon fill="#555555" stroke="#555555" points="344.74,-1395.13 334.74,-1391.64 340.38,-1400.61 344.74,-1395.13"/>
<text text-anchor="middle" x="511" y="-1487.8" font-family="Arial" font-size="9.00">NORMAL</text>
</g>
<!-- H_1 -->
<g id="node11" class="node">
<title>H_1</title>
<path fill="#f5f5f5" stroke="#333333" d="M582.81,-1410.66C582.81,-1410.66 471.19,-1367.34 471.19,-1367.34 465.59,-1365.17 465.59,-1360.83 471.19,-1358.66 471.19,-1358.66 582.81,-1315.34 582.81,-1315.34 588.41,-1313.17 599.59,-1313.17 605.19,-1315.34 605.19,-1315.34 716.81,-1358.66 716.81,-1358.66 722.41,-1360.83 722.41,-1365.17 716.81,-1367.34 716.81,-1367.34 605.19,-1410.66 605.19,-1410.66 599.59,-1412.83 588.41,-1412.83 582.81,-1410.66"/>
<text text-anchor="middle" x="594" y="-1377" font-family="Arial" font-size="10.00">1: huntTarget is null, or </text>
<text text-anchor="middle" x="594" y="-1366" font-family="Arial" font-size="10.00"> huntTarget is not null </text>
<text text-anchor="middle" x="594" y="-1355" font-family="Arial" font-size="10.00"> and its state is DEAD or </text>
<text text-anchor="middle" x="594" y="-1344" font-family="Arial" font-size="10.00"> it is out of the visual field?</text>
</g>
<!-- StateDecider&#45;&gt;H_1 -->
<g id="edge53" class="edge">
<title>StateDecider&#45;&gt;H_1</title>
<path fill="none" stroke="#555555" d="M594,-1512.86C594,-1492.32 594,-1456.76 594,-1425.54"/>
<polygon fill="#555555" stroke="#555555" points="597.5,-1425.15 594,-1415.15 590.5,-1425.15 597.5,-1425.15"/>
<text text-anchor="middle" x="614" y="-1487.8" font-family="Arial" font-size="9.00">HUNGER</text>
</g>
<!-- M_1 -->
<g id="node23" class="node">
<title>M_1</title>
<path fill="#f5f5f5" stroke="#333333" d="M949.45,-1400.76C949.45,-1400.76 826.55,-1366.24 826.55,-1366.24 820.78,-1364.62 820.78,-1361.38 826.55,-1359.76 826.55,-1359.76 949.45,-1325.24 949.45,-1325.24 955.22,-1323.62 966.78,-1323.62 972.55,-1325.24 972.55,-1325.24 1095.45,-1359.76 1095.45,-1359.76 1101.22,-1361.38 1101.22,-1364.62 1095.45,-1366.24 1095.45,-1366.24 972.55,-1400.76 972.55,-1400.76 966.78,-1402.38 955.22,-1402.38 949.45,-1400.76"/>
<text text-anchor="middle" x="961" y="-1371.5" font-family="Arial" font-size="10.00">1: mateTarget is not </text>
<text text-anchor="middle" x="961" y="-1360.5" font-family="Arial" font-size="10.00"> null and its state is DEAD </text>
<text text-anchor="middle" x="961" y="-1349.5" font-family="Arial" font-size="10.00"> or it is out of the visual field?</text>
</g>
<!-- StateDecider&#45;&gt;M_1 -->
<g id="edge54" class="edge">
<title>StateDecider&#45;&gt;M_1</title>
<path fill="none" stroke="#555555" d="M621.53,-1520.4C665.33,-1505.13 746,-1477 746,-1477 746,-1477 838.32,-1428.48 901.97,-1395.03"/>
<polygon fill="#555555" stroke="#555555" points="903.91,-1397.96 911.13,-1390.21 900.65,-1391.76 903.91,-1397.96"/>
<text text-anchor="middle" x="732.5" y="-1487.8" font-family="Arial" font-size="9.00">MATE</text>
</g>
<!-- N_1_i_yes -->
<g id="node4" class="node">
<title>N_1_i_yes</title>
<path fill="#f5f5f5" stroke="#333333" d="M289,-1265C289,-1265 211,-1265 211,-1265 205,-1265 199,-1259 199,-1253 199,-1253 199,-1241 199,-1241 199,-1235 205,-1229 211,-1229 211,-1229 289,-1229 289,-1229 295,-1229 301,-1235 301,-1241 301,-1241 301,-1253 301,-1253 301,-1259 295,-1265 289,-1265"/>
<text text-anchor="start" x="207" y="-1250" font-family="Arial" font-size="10.00">i: Choose a new </text>
<text text-anchor="middle" x="250" y="-1239" font-family="Arial" font-size="10.00"> random destination</text>
</g>
<!-- N_1_i&#45;&gt;N_1_i_yes -->
<g id="edge2" class="edge">
<title>N_1_i&#45;&gt;N_1_i_yes</title>
<path fill="none" stroke="#555555" d="M284.86,-1327.49C277.39,-1310.45 268.51,-1290.21 261.59,-1274.42"/>
<polygon fill="#555555" stroke="#555555" points="264.78,-1272.99 257.56,-1265.24 258.37,-1275.8 264.78,-1272.99"/>
<text text-anchor="middle" x="278" y="-1285.8" font-family="Arial" font-size="9.00">Yes</text>
</g>
<!-- N_1_ii -->
<g id="node5" class="node">
<title>N_1_ii</title>
<path fill="#f5f5f5" stroke="#333333" d="M284,-1159C284,-1159 254,-1159 254,-1159 248,-1159 242,-1153 242,-1147 242,-1147 242,-1135 242,-1135 242,-1129 248,-1123 254,-1123 254,-1123 284,-1123 284,-1123 290,-1123 296,-1129 296,-1135 296,-1135 296,-1147 296,-1147 296,-1153 290,-1159 284,-1159"/>
<text text-anchor="middle" x="269" y="-1138.5" font-family="Arial" font-size="10.00">1.ii &#45; 1.v</text>
</g>
<!-- N_1_i&#45;&gt;N_1_ii -->
<g id="edge3" class="edge">
<title>N_1_i&#45;&gt;N_1_ii</title>
<path fill="none" stroke="#555555" d="M308.44,-1324.77C314.65,-1297.42 322,-1265 322,-1265 322,-1265 322,-1221 322,-1221 322,-1221 301.63,-1190.63 286.14,-1167.55"/>
<polygon fill="#555555" stroke="#555555" points="288.98,-1165.5 280.5,-1159.14 283.16,-1169.4 288.98,-1165.5"/>
<text text-anchor="middle" x="328.5" y="-1244.8" font-family="Arial" font-size="9.00">No</text>
</g>
<!-- N_1_i_yes&#45;&gt;N_1_ii -->
<g id="edge4" class="edge">
<title>N_1_i_yes&#45;&gt;N_1_ii</title>
<path fill="none" stroke="#555555" d="M253.14,-1228.83C256.09,-1212.64 260.57,-1188.13 264.02,-1169.27"/>
<polygon fill="#555555" stroke="#555555" points="267.5,-1169.67 265.86,-1159.2 260.62,-1168.41 267.5,-1169.67"/>
</g>
<!-- N_2_i -->
<g id="node6" class="node">
<title>N_2_i</title>
<path fill="#f5f5f5" stroke="#333333" d="M257.51,-1040.55C257.51,-1040.55 180.49,-1017.45 180.49,-1017.45 174.75,-1015.72 174.75,-1012.28 180.49,-1010.55 180.49,-1010.55 257.51,-987.45 257.51,-987.45 263.25,-985.72 274.75,-985.72 280.49,-987.45 280.49,-987.45 357.51,-1010.55 357.51,-1010.55 363.25,-1012.28 363.25,-1015.72 357.51,-1017.45 357.51,-1017.45 280.49,-1040.55 280.49,-1040.55 274.75,-1042.28 263.25,-1042.28 257.51,-1040.55"/>
<text text-anchor="middle" x="269" y="-1017" font-family="Arial" font-size="10.00">i: its energy is </text>
<text text-anchor="middle" x="269" y="-1006" font-family="Arial" font-size="10.00"> smaller than 50.0?</text>
</g>
<!-- N_1_ii&#45;&gt;N_2_i -->
<g id="edge8" class="edge">
<title>N_1_ii&#45;&gt;N_2_i</title>
<path fill="none" stroke="#555555" d="M269,-1122.88C269,-1105.37 269,-1077.55 269,-1054.54"/>
<polygon fill="#555555" stroke="#555555" points="272.5,-1054.37 269,-1044.37 265.5,-1054.37 272.5,-1054.37"/>
</g>
<!-- N_2_i_yes -->
<g id="node7" class="node">
<title>N_2_i_yes</title>
<path fill="#f5f5f5" stroke="#333333" d="M134,-915C134,-915 36,-915 36,-915 30,-915 24,-909 24,-903 24,-903 24,-891 24,-891 24,-885 30,-879 36,-879 36,-879 134,-879 134,-879 140,-879 146,-885 146,-891 146,-891 146,-903 146,-903 146,-909 140,-915 134,-915"/>
<text text-anchor="middle" x="85" y="-894.5" font-family="Arial" font-size="10.00">i: set state to HUNGER</text>
</g>
<!-- N_2_i&#45;&gt;N_2_i_yes -->
<g id="edge5" class="edge">
<title>N_2_i&#45;&gt;N_2_i_yes</title>
<path fill="none" stroke="#555555" d="M237.37,-993.23C205.02,-973.01 154.83,-941.65 120.98,-920.49"/>
<polygon fill="#555555" stroke="#555555" points="122.66,-917.41 112.32,-915.08 118.95,-923.35 122.66,-917.41"/>
<text text-anchor="middle" x="202" y="-958.8" font-family="Arial" font-size="9.00">Yes</text>
</g>
<!-- N_2_ii_b -->
<g id="node8" class="node">
<title>N_2_ii_b</title>
<path fill="#f5f5f5" stroke="#333333" d="M289.41,-923.9C289.41,-923.9 200.59,-900.1 200.59,-900.1 194.8,-898.55 194.8,-895.45 200.59,-893.9 200.59,-893.9 289.41,-870.1 289.41,-870.1 295.2,-868.55 306.8,-868.55 312.59,-870.1 312.59,-870.1 401.41,-893.9 401.41,-893.9 407.2,-895.45 407.2,-898.55 401.41,-900.1 401.41,-900.1 312.59,-923.9 312.59,-923.9 306.8,-925.45 295.2,-925.45 289.41,-923.9"/>
<text text-anchor="middle" x="301" y="-900" font-family="Arial" font-size="10.00">ii: its desire is </text>
<text text-anchor="middle" x="301" y="-889" font-family="Arial" font-size="10.00"> greater than de 65.0?</text>
</g>
<!-- N_2_i&#45;&gt;N_2_ii_b -->
<g id="edge6" class="edge">
<title>N_2_i&#45;&gt;N_2_ii_b</title>
<path fill="none" stroke="#555555" d="M276.5,-986.04C280.72,-970.86 286.06,-951.69 290.67,-935.12"/>
<polygon fill="#555555" stroke="#555555" points="294.12,-935.76 293.43,-925.19 287.38,-933.89 294.12,-935.76"/>
<text text-anchor="middle" x="291.5" y="-958.8" font-family="Arial" font-size="9.00">No</text>
</g>
<!-- N_end -->
<g id="node10" class="node">
<title>N_end</title>
<path fill="#f5f5f5" stroke="#333333" d="M255,-704C255,-704 173,-704 173,-704 167,-704 161,-698 161,-692 161,-692 161,-680 161,-680 161,-674 167,-668 173,-668 173,-668 255,-668 255,-668 261,-668 267,-674 267,-680 267,-680 267,-692 267,-692 267,-698 261,-704 255,-704"/>
<text text-anchor="middle" x="214" y="-683.5" font-family="Arial" font-size="10.00">End of Normal State</text>
</g>
<!-- N_2_i_yes&#45;&gt;N_end -->
<g id="edge9" class="edge">
<title>N_2_i_yes&#45;&gt;N_end</title>
<path fill="none" stroke="#555555" d="M111.22,-878.91C137.47,-861.8 174,-838 174,-838 174,-838 191,-810 191,-810 191,-810 202.17,-750.27 208.94,-714.06"/>
<polygon fill="#555555" stroke="#555555" points="212.4,-714.58 210.8,-704.1 205.52,-713.29 212.4,-714.58"/>
</g>
<!-- N_2_ii_c -->
<g id="node9" class="node">
<title>N_2_ii_c</title>
<path fill="#f5f5f5" stroke="#333333" d="M157.5,-810C157.5,-810 74.5,-810 74.5,-810 68.5,-810 62.5,-804 62.5,-798 62.5,-798 62.5,-786 62.5,-786 62.5,-780 68.5,-774 74.5,-774 74.5,-774 157.5,-774 157.5,-774 163.5,-774 169.5,-780 169.5,-786 169.5,-786 169.5,-798 169.5,-798 169.5,-804 163.5,-810 157.5,-810"/>
<text text-anchor="middle" x="116" y="-789.5" font-family="Arial" font-size="10.00">ii: set state to MATE</text>
</g>
<!-- N_2_ii_b&#45;&gt;N_2_ii_c -->
<g id="edge7" class="edge">
<title>N_2_ii_b&#45;&gt;N_2_ii_c</title>
<path fill="none" stroke="#555555" d="M255.92,-878.91C210.79,-861.8 148,-838 148,-838 148,-838 141.25,-828.51 133.95,-818.24"/>
<polygon fill="#555555" stroke="#555555" points="136.75,-816.13 128.1,-810.01 131.04,-820.19 136.75,-816.13"/>
<text text-anchor="middle" x="156" y="-830.8" font-family="Arial" font-size="9.00">Yes</text>
</g>
<!-- N_2_ii_b&#45;&gt;N_end -->
<g id="edge10" class="edge">
<title>N_2_ii_b&#45;&gt;N_end</title>
<path fill="none" stroke="#555555" d="M289.98,-869.53C273.29,-829.43 241.77,-753.72 225.06,-713.56"/>
<polygon fill="#555555" stroke="#555555" points="228.22,-712.05 221.14,-704.16 221.76,-714.74 228.22,-712.05"/>
<text text-anchor="middle" x="271.5" y="-789.8" font-family="Arial" font-size="9.00">No</text>
</g>
<!-- N_2_ii_c&#45;&gt;N_end -->
<g id="edge11" class="edge">
<title>N_2_ii_c&#45;&gt;N_end</title>
<path fill="none" stroke="#555555" d="M132.18,-773.83C148.14,-756.89 172.7,-730.83 190.74,-711.68"/>
<polygon fill="#555555" stroke="#555555" points="193.48,-713.88 197.79,-704.2 188.39,-709.08 193.48,-713.88"/>
</g>
<!-- H_1_a -->
<g id="node12" class="node">
<title>H_1_a</title>
<path fill="#f5f5f5" stroke="#333333" d="M609.5,-1265C609.5,-1265 484.5,-1265 484.5,-1265 478.5,-1265 472.5,-1259 472.5,-1253 472.5,-1253 472.5,-1241 472.5,-1241 472.5,-1235 478.5,-1229 484.5,-1229 484.5,-1229 609.5,-1229 609.5,-1229 615.5,-1229 621.5,-1235 621.5,-1241 621.5,-1241 621.5,-1253 621.5,-1253 621.5,-1259 615.5,-1265 609.5,-1265"/>
<text text-anchor="middle" x="547" y="-1244.5" font-family="Arial" font-size="10.00">1: search for an animal to hunt</text>
</g>
<!-- H_1&#45;&gt;H_1_a -->
<g id="edge12" class="edge">
<title>H_1&#45;&gt;H_1_a</title>
<path fill="none" stroke="#555555" d="M575.83,-1317.92C569.84,-1303.39 563.36,-1287.67 558.06,-1274.83"/>
<polygon fill="#555555" stroke="#555555" points="561.15,-1273.13 554.1,-1265.22 554.67,-1275.8 561.15,-1273.13"/>
<text text-anchor="middle" x="572" y="-1285.8" font-family="Arial" font-size="9.00">Yes</text>
</g>
<!-- H_2 -->
<g id="node13" class="node">
<title>H_2</title>
<path fill="#f5f5f5" stroke="#333333" d="M546.82,-1166.64C546.82,-1166.64 492.18,-1145.36 492.18,-1145.36 486.59,-1143.18 486.59,-1138.82 492.18,-1136.64 492.18,-1136.64 546.82,-1115.36 546.82,-1115.36 552.41,-1113.18 563.59,-1113.18 569.18,-1115.36 569.18,-1115.36 623.82,-1136.64 623.82,-1136.64 629.41,-1138.82 629.41,-1143.18 623.82,-1145.36 623.82,-1145.36 569.18,-1166.64 569.18,-1166.64 563.59,-1168.82 552.41,-1168.82 546.82,-1166.64"/>
<text text-anchor="middle" x="558" y="-1144" font-family="Arial" font-size="10.00">2: huntTarget </text>
<text text-anchor="middle" x="558" y="-1133" font-family="Arial" font-size="10.00"> is null</text>
</g>
<!-- H_1&#45;&gt;H_2 -->
<g id="edge20" class="edge">
<title>H_1&#45;&gt;H_2</title>
<path fill="none" stroke="#555555" d="M615.63,-1319.17C628.76,-1293.19 643,-1265 643,-1265 643,-1265 643,-1221 643,-1221 643,-1221 612.22,-1192.39 587.7,-1169.6"/>
<polygon fill="#555555" stroke="#555555" points="590.04,-1167 580.33,-1162.76 585.27,-1172.13 590.04,-1167"/>
<text text-anchor="middle" x="649.5" y="-1244.8" font-family="Arial" font-size="9.00">No</text>
</g>
<!-- H_1_a&#45;&gt;H_2 -->
<g id="edge21" class="edge">
<title>H_1_a&#45;&gt;H_2</title>
<path fill="none" stroke="#555555" d="M548.82,-1228.83C550.21,-1215.64 552.19,-1196.92 553.96,-1180.24"/>
<polygon fill="#555555" stroke="#555555" points="557.45,-1180.5 555.02,-1170.19 550.49,-1179.76 557.45,-1180.5"/>
</g>
<!-- H_2_a -->
<g id="node14" class="node">
<title>H_2_a</title>
<path fill="#f5f5f5" stroke="#333333" d="M627.5,-1032C627.5,-1032 586.5,-1032 586.5,-1032 580.5,-1032 574.5,-1026 574.5,-1020 574.5,-1020 574.5,-1008 574.5,-1008 574.5,-1002 580.5,-996 586.5,-996 586.5,-996 627.5,-996 627.5,-996 633.5,-996 639.5,-1002 639.5,-1008 639.5,-1008 639.5,-1020 639.5,-1020 639.5,-1026 633.5,-1032 627.5,-1032"/>
<text text-anchor="middle" x="607" y="-1011.5" font-family="Arial" font-size="10.00">2: Advance</text>
</g>
<!-- H_2&#45;&gt;H_2_a -->
<g id="edge13" class="edge">
<title>H_2&#45;&gt;H_2_a</title>
<path fill="none" stroke="#555555" d="M567.92,-1114.7C576.22,-1093.52 588.04,-1063.37 596.5,-1041.78"/>
<polygon fill="#555555" stroke="#555555" points="599.85,-1042.82 600.24,-1032.23 593.34,-1040.27 599.85,-1042.82"/>
<text text-anchor="middle" x="587" y="-1085.8" font-family="Arial" font-size="9.00">Yes</text>
</g>
<!-- H_2_b -->
<g id="node15" class="node">
<title>H_2_b</title>
<path fill="#f5f5f5" stroke="#333333" d="M519,-1032C519,-1032 489,-1032 489,-1032 483,-1032 477,-1026 477,-1020 477,-1020 477,-1008 477,-1008 477,-1002 483,-996 489,-996 489,-996 519,-996 519,-996 525,-996 531,-1002 531,-1008 531,-1008 531,-1020 531,-1020 531,-1026 525,-1032 519,-1032"/>
<text text-anchor="middle" x="504" y="-1011.5" font-family="Arial" font-size="10.00">2.i &#45; 2.v</text>
</g>
<!-- H_2&#45;&gt;H_2_b -->
<g id="edge14" class="edge">
<title>H_2&#45;&gt;H_2_b</title>
<path fill="none" stroke="#555555" d="M547.2,-1115C538.02,-1093.75 524.87,-1063.32 515.5,-1041.61"/>
<polygon fill="#555555" stroke="#555555" points="518.66,-1040.11 511.48,-1032.32 512.23,-1042.89 518.66,-1040.11"/>
<text text-anchor="middle" x="543.5" y="-1085.8" font-family="Arial" font-size="9.00">No</text>
</g>
<!-- H_3 -->
<g id="node18" class="node">
<title>H_3</title>
<path fill="#f5f5f5" stroke="#333333" d="M625.53,-712.49C625.53,-712.49 550.47,-689.51 550.47,-689.51 544.74,-687.76 544.74,-684.24 550.47,-682.49 550.47,-682.49 625.53,-659.51 625.53,-659.51 631.26,-657.76 642.74,-657.76 648.47,-659.51 648.47,-659.51 723.53,-682.49 723.53,-682.49 729.26,-684.24 729.26,-687.76 723.53,-689.51 723.53,-689.51 648.47,-712.49 648.47,-712.49 642.74,-714.24 631.26,-714.24 625.53,-712.49"/>
<text text-anchor="middle" x="637" y="-689" font-family="Arial" font-size="10.00">i: its energy is </text>
<text text-anchor="middle" x="637" y="-678" font-family="Arial" font-size="10.00"> greater than 50.0?</text>
</g>
<!-- H_2_a&#45;&gt;H_3 -->
<g id="edge22" class="edge">
<title>H_2_a&#45;&gt;H_3</title>
<path fill="none" stroke="#555555" d="M610.18,-995.98C614.31,-973.85 621,-938 621,-938 621,-938 630.01,-796.61 634.51,-726.07"/>
<polygon fill="#555555" stroke="#555555" points="638.02,-726 635.16,-715.79 631.04,-725.55 638.02,-726"/>
</g>
<!-- H_2_c -->
<g id="node16" class="node">
<title>H_2_c</title>
<path fill="#f5f5f5" stroke="#333333" d="M587,-917.5C587,-917.5 489,-917.5 489,-917.5 483,-917.5 477,-911.5 477,-905.5 477,-905.5 477,-888.5 477,-888.5 477,-882.5 483,-876.5 489,-876.5 489,-876.5 587,-876.5 587,-876.5 593,-876.5 599,-882.5 599,-888.5 599,-888.5 599,-905.5 599,-905.5 599,-911.5 593,-917.5 587,-917.5"/>
<text text-anchor="middle" x="538" y="-905.5" font-family="Arial" font-size="10.00">2.vi: the distance of the </text>
<text text-anchor="middle" x="538" y="-894.5" font-family="Arial" font-size="10.00"> animal from huntTarget </text>
<text text-anchor="middle" x="538" y="-883.5" font-family="Arial" font-size="10.00"> is smaller than 8.0?</text>
</g>
<!-- H_2_b&#45;&gt;H_2_c -->
<g id="edge15" class="edge">
<title>H_2_b&#45;&gt;H_2_c</title>
<path fill="none" stroke="#555555" d="M509.16,-995.53C514.52,-977.42 522.99,-948.77 529.37,-927.2"/>
<polygon fill="#555555" stroke="#555555" points="532.74,-928.14 532.22,-917.56 526.03,-926.16 532.74,-928.14"/>
</g>
<!-- H_2_d -->
<g id="node17" class="node">
<title>H_2_d</title>
<path fill="#f5f5f5" stroke="#333333" d="M539,-810C539,-810 489,-810 489,-810 483,-810 477,-804 477,-798 477,-798 477,-786 477,-786 477,-780 483,-774 489,-774 489,-774 539,-774 539,-774 545,-774 551,-780 551,-786 551,-786 551,-798 551,-798 551,-804 545,-810 539,-810"/>
<text text-anchor="middle" x="514" y="-789.5" font-family="Arial" font-size="10.00">2.vi.a &#45; 2.vi.c</text>
</g>
<!-- H_2_c&#45;&gt;H_2_d -->
<g id="edge16" class="edge">
<title>H_2_c&#45;&gt;H_2_d</title>
<path fill="none" stroke="#555555" d="M533.37,-876.14C529.67,-860.26 524.45,-837.83 520.35,-820.27"/>
<polygon fill="#555555" stroke="#555555" points="523.65,-819.01 517.98,-810.07 516.84,-820.6 523.65,-819.01"/>
<text text-anchor="middle" x="531" y="-830.8" font-family="Arial" font-size="9.00">Yes</text>
</g>
<!-- H_2_c&#45;&gt;H_3 -->
<g id="edge24" class="edge">
<title>H_2_c&#45;&gt;H_3</title>
<path fill="none" stroke="#555555" d="M547.31,-876.34C564.09,-840.93 599.57,-766.03 620.52,-721.78"/>
<polygon fill="#555555" stroke="#555555" points="623.77,-723.1 624.89,-712.57 617.45,-720.11 623.77,-723.1"/>
<text text-anchor="middle" x="604.5" y="-789.8" font-family="Arial" font-size="9.00">No</text>
</g>
<!-- H_2_d&#45;&gt;H_3 -->
<g id="edge23" class="edge">
<title>H_2_d&#45;&gt;H_3</title>
<path fill="none" stroke="#555555" d="M534.31,-773.83C553.15,-757.9 581.53,-733.9 603.69,-715.17"/>
<polygon fill="#555555" stroke="#555555" points="606.16,-717.66 611.54,-708.53 601.64,-712.31 606.16,-717.66"/>
</g>
<!-- H_3_a -->
<g id="node19" class="node">
<title>H_3_a</title>
<path fill="#f5f5f5" stroke="#333333" d="M614.51,-606.55C614.51,-606.55 537.49,-583.45 537.49,-583.45 531.75,-581.72 531.75,-578.28 537.49,-576.55 537.49,-576.55 614.51,-553.45 614.51,-553.45 620.25,-551.72 631.75,-551.72 637.49,-553.45 637.49,-553.45 714.51,-576.55 714.51,-576.55 720.25,-578.28 720.25,-581.72 714.51,-583.45 714.51,-583.45 637.49,-606.55 637.49,-606.55 631.75,-608.28 620.25,-608.28 614.51,-606.55"/>
<text text-anchor="middle" x="626" y="-583" font-family="Arial" font-size="10.00">i.a: its desire is </text>
<text text-anchor="middle" x="626" y="-572" font-family="Arial" font-size="10.00"> smaller than 65.0?</text>
</g>
<!-- H_3&#45;&gt;H_3_a -->
<g id="edge17" class="edge">
<title>H_3&#45;&gt;H_3_a</title>
<path fill="none" stroke="#555555" d="M629.59,-658.2C626.67,-647.65 624,-638 624,-638 624,-638 624,-628 624,-628 624,-628 624.14,-624.67 624.35,-619.79"/>
<polygon fill="#555555" stroke="#555555" points="627.85,-619.83 624.78,-609.69 620.86,-619.54 627.85,-619.83"/>
<text text-anchor="middle" x="632" y="-630.8" font-family="Arial" font-size="9.00">Yes</text>
</g>
<!-- H_end -->
<g id="node22" class="node">
<title>H_end</title>
<path fill="#f5f5f5" stroke="#333333" d="M721.5,-431C721.5,-431 626.5,-431 626.5,-431 620.5,-431 614.5,-425 614.5,-419 614.5,-419 614.5,-407 614.5,-407 614.5,-401 620.5,-395 626.5,-395 626.5,-395 721.5,-395 721.5,-395 727.5,-395 733.5,-401 733.5,-407 733.5,-407 733.5,-419 733.5,-419 733.5,-425 727.5,-431 721.5,-431"/>
<text text-anchor="middle" x="674" y="-410.5" font-family="Arial" font-size="10.00">End of HUNGER State</text>
</g>
<!-- H_3&#45;&gt;H_end -->
<g id="edge25" class="edge">
<title>H_3&#45;&gt;H_end</title>
<path fill="none" stroke="#555555" d="M666.75,-664.9C699.63,-642.69 748,-610 748,-610 748,-610 760,-504 760,-504 760,-504 760,-460 760,-460 760,-460 737.19,-447.8 715.07,-435.97"/>
<polygon fill="#555555" stroke="#555555" points="716.49,-432.76 706.02,-431.13 713.19,-438.93 716.49,-432.76"/>
<text text-anchor="middle" x="763.5" y="-524.8" font-family="Arial" font-size="9.00">No</text>
</g>
<!-- H_3_b -->
<g id="node20" class="node">
<title>H_3_b</title>
<path fill="#f5f5f5" stroke="#333333" d="M726,-504C726,-504 622,-504 622,-504 616,-504 610,-498 610,-492 610,-492 610,-480 610,-480 610,-474 616,-468 622,-468 622,-468 726,-468 726,-468 732,-468 738,-474 738,-480 738,-480 738,-492 738,-492 738,-498 732,-504 726,-504"/>
<text text-anchor="middle" x="674" y="-483.5" font-family="Arial" font-size="10.00">i.a: set state to NORMAL</text>
</g>
<!-- H_3_a&#45;&gt;H_3_b -->
<g id="edge18" class="edge">
<title>H_3_a&#45;&gt;H_3_b</title>
<path fill="none" stroke="#555555" d="M634.37,-552.5C639.07,-537.62 644,-522 644,-522 644,-522 647.82,-517.54 652.74,-511.8"/>
<polygon fill="#555555" stroke="#555555" points="655.5,-513.96 659.35,-504.09 650.19,-509.4 655.5,-513.96"/>
<text text-anchor="middle" x="652" y="-524.8" font-family="Arial" font-size="9.00">Yes</text>
</g>
<!-- H_3_c -->
<g id="node21" class="node">
<title>H_3_c</title>
<path fill="#f5f5f5" stroke="#333333" d="M554.5,-504C554.5,-504 465.5,-504 465.5,-504 459.5,-504 453.5,-498 453.5,-492 453.5,-492 453.5,-480 453.5,-480 453.5,-474 459.5,-468 465.5,-468 465.5,-468 554.5,-468 554.5,-468 560.5,-468 566.5,-474 566.5,-480 566.5,-480 566.5,-492 566.5,-492 566.5,-498 560.5,-504 554.5,-504"/>
<text text-anchor="middle" x="510" y="-483.5" font-family="Arial" font-size="10.00">i.a: set state to MATE</text>
</g>
<!-- H_3_a&#45;&gt;H_3_c -->
<g id="edge19" class="edge">
<title>H_3_a&#45;&gt;H_3_c</title>
<path fill="none" stroke="#555555" d="M599.39,-557.89C581.52,-543.72 557.97,-525.05 539.53,-510.42"/>
<polygon fill="#555555" stroke="#555555" points="541.46,-507.49 531.45,-504.01 537.11,-512.97 541.46,-507.49"/>
<text text-anchor="middle" x="570.5" y="-524.8" font-family="Arial" font-size="9.00">No</text>
</g>
<!-- H_3_b&#45;&gt;H_end -->
<g id="edge26" class="edge">
<title>H_3_b&#45;&gt;H_end</title>
<path fill="none" stroke="#555555" d="M674,-467.81C674,-459.79 674,-450.05 674,-441.07"/>
<polygon fill="#555555" stroke="#555555" points="677.5,-441.03 674,-431.03 670.5,-441.03 677.5,-441.03"/>
</g>
<!-- H_3_c&#45;&gt;H_end -->
<g id="edge27" class="edge">
<title>H_3_c&#45;&gt;H_end</title>
<path fill="none" stroke="#555555" d="M549.28,-467.99C572.04,-458.14 600.88,-445.66 625.1,-435.17"/>
<polygon fill="#555555" stroke="#555555" points="626.68,-438.3 634.47,-431.11 623.9,-431.87 626.68,-438.3"/>
</g>
<!-- M_1_a -->
<g id="node24" class="node">
<title>M_1_a</title>
<path fill="#f5f5f5" stroke="#333333" d="M953,-1265C953,-1265 855,-1265 855,-1265 849,-1265 843,-1259 843,-1253 843,-1253 843,-1241 843,-1241 843,-1235 849,-1229 855,-1229 855,-1229 953,-1229 953,-1229 959,-1229 965,-1235 965,-1241 965,-1241 965,-1253 965,-1253 965,-1259 959,-1265 953,-1265"/>
<text text-anchor="middle" x="904" y="-1244.5" font-family="Arial" font-size="10.00">1: set mateTarget to null</text>
</g>
<!-- M_1&#45;&gt;M_1_a -->
<g id="edge28" class="edge">
<title>M_1&#45;&gt;M_1_a</title>
<path fill="none" stroke="#555555" d="M943.43,-1326.87C934.93,-1309.85 924.89,-1289.78 917.07,-1274.14"/>
<polygon fill="#555555" stroke="#555555" points="920.13,-1272.42 912.52,-1265.04 913.86,-1275.55 920.13,-1272.42"/>
<text text-anchor="middle" x="933" y="-1285.8" font-family="Arial" font-size="9.00">Yes</text>
</g>
<!-- M_2 -->
<g id="node25" class="node">
<title>M_2</title>
<path fill="#f5f5f5" stroke="#333333" d="M1007.22,-1156.69C1007.22,-1156.69 939.13,-1143.31 939.13,-1143.31 933.24,-1142.16 933.24,-1139.84 939.13,-1138.69 939.13,-1138.69 1007.22,-1125.31 1007.22,-1125.31 1013.11,-1124.16 1024.89,-1124.16 1030.78,-1125.31 1030.78,-1125.31 1098.87,-1138.69 1098.87,-1138.69 1104.76,-1139.84 1104.76,-1142.16 1098.87,-1143.31 1098.87,-1143.31 1030.78,-1156.69 1030.78,-1156.69 1024.89,-1157.84 1013.11,-1157.84 1007.22,-1156.69"/>
<text text-anchor="middle" x="1019" y="-1138.5" font-family="Arial" font-size="10.00">2: mateTarget is null?</text>
</g>
<!-- M_1&#45;&gt;M_2 -->
<g id="edge44" class="edge">
<title>M_1&#45;&gt;M_2</title>
<path fill="none" stroke="#555555" d="M970.98,-1324.77C978.31,-1297.42 987,-1265 987,-1265 987,-1265 1002.78,-1204.36 1012.18,-1168.23"/>
<polygon fill="#555555" stroke="#555555" points="1015.62,-1168.89 1014.75,-1158.33 1008.85,-1167.13 1015.62,-1168.89"/>
<text text-anchor="middle" x="1004.5" y="-1244.8" font-family="Arial" font-size="9.00">No</text>
</g>
<!-- M_1_a&#45;&gt;M_2 -->
<g id="edge43" class="edge">
<title>M_1_a&#45;&gt;M_2</title>
<path fill="none" stroke="#555555" d="M922.99,-1228.83C942.9,-1210.82 974.22,-1182.5 995.63,-1163.13"/>
<polygon fill="#555555" stroke="#555555" points="998.24,-1165.49 1003.31,-1156.19 993.55,-1160.3 998.24,-1165.49"/>
</g>
<!-- M_2_a -->
<g id="node26" class="node">
<title>M_2_a</title>
<path fill="#f5f5f5" stroke="#333333" d="M1252.5,-1032C1252.5,-1032 1087.5,-1032 1087.5,-1032 1081.5,-1032 1075.5,-1026 1075.5,-1020 1075.5,-1020 1075.5,-1008 1075.5,-1008 1075.5,-1002 1081.5,-996 1087.5,-996 1087.5,-996 1252.5,-996 1252.5,-996 1258.5,-996 1264.5,-1002 1264.5,-1008 1264.5,-1008 1264.5,-1020 1264.5,-1020 1264.5,-1026 1258.5,-1032 1252.5,-1032"/>
<text text-anchor="middle" x="1170" y="-1011.5" font-family="Arial" font-size="10.00">2: search for a new animal to mate with</text>
</g>
<!-- M_2&#45;&gt;M_2_a -->
<g id="edge29" class="edge">
<title>M_2&#45;&gt;M_2_a</title>
<path fill="none" stroke="#555555" d="M1035.74,-1126.15C1061.25,-1105.02 1110.21,-1064.5 1141.42,-1038.66"/>
<polygon fill="#555555" stroke="#555555" points="1143.87,-1041.18 1149.34,-1032.1 1139.4,-1035.79 1143.87,-1041.18"/>
<text text-anchor="middle" x="1093" y="-1085.8" font-family="Arial" font-size="9.00">Yes</text>
</g>
<!-- M_2_d -->
<g id="node29" class="node">
<title>M_2_d</title>
<path fill="#f5f5f5" stroke="#333333" d="M978,-1032C978,-1032 948,-1032 948,-1032 942,-1032 936,-1026 936,-1020 936,-1020 936,-1008 936,-1008 936,-1002 942,-996 948,-996 948,-996 978,-996 978,-996 984,-996 990,-1002 990,-1008 990,-1008 990,-1020 990,-1020 990,-1026 984,-1032 978,-1032"/>
<text text-anchor="middle" x="963" y="-1011.5" font-family="Arial" font-size="10.00">2.i &#45; 2.v</text>
</g>
<!-- M_2&#45;&gt;M_2_d -->
<g id="edge32" class="edge">
<title>M_2&#45;&gt;M_2_d</title>
<path fill="none" stroke="#555555" d="M1011.91,-1124.17C1002.61,-1103.41 986.15,-1066.68 974.92,-1041.61"/>
<polygon fill="#555555" stroke="#555555" points="978.04,-1040 970.75,-1032.3 971.65,-1042.86 978.04,-1040"/>
<text text-anchor="middle" x="1003.5" y="-1085.8" font-family="Arial" font-size="9.00">No</text>
</g>
<!-- M_2_b -->
<g id="node27" class="node">
<title>M_2_b</title>
<path fill="#f5f5f5" stroke="#333333" d="M1172.22,-912.69C1172.22,-912.69 1104.13,-899.31 1104.13,-899.31 1098.24,-898.16 1098.24,-895.84 1104.13,-894.69 1104.13,-894.69 1172.22,-881.31 1172.22,-881.31 1178.11,-880.16 1189.89,-880.16 1195.78,-881.31 1195.78,-881.31 1263.87,-894.69 1263.87,-894.69 1269.76,-895.84 1269.76,-898.16 1263.87,-899.31 1263.87,-899.31 1195.78,-912.69 1195.78,-912.69 1189.89,-913.84 1178.11,-913.84 1172.22,-912.69"/>
<text text-anchor="middle" x="1184" y="-894.5" font-family="Arial" font-size="10.00">2: mateTarget is null?</text>
</g>
<!-- M_2_a&#45;&gt;M_2_b -->
<g id="edge30" class="edge">
<title>M_2_a&#45;&gt;M_2_b</title>
<path fill="none" stroke="#555555" d="M1172.13,-995.53C1174.41,-976.74 1178.08,-946.63 1180.73,-924.83"/>
<polygon fill="#555555" stroke="#555555" points="1184.21,-925.23 1181.95,-914.88 1177.26,-924.38 1184.21,-925.23"/>
</g>
<!-- M_2_c -->
<g id="node28" class="node">
<title>M_2_c</title>
<path fill="#f5f5f5" stroke="#333333" d="M1124.5,-810C1124.5,-810 1083.5,-810 1083.5,-810 1077.5,-810 1071.5,-804 1071.5,-798 1071.5,-798 1071.5,-786 1071.5,-786 1071.5,-780 1077.5,-774 1083.5,-774 1083.5,-774 1124.5,-774 1124.5,-774 1130.5,-774 1136.5,-780 1136.5,-786 1136.5,-786 1136.5,-798 1136.5,-798 1136.5,-804 1130.5,-810 1124.5,-810"/>
<text text-anchor="middle" x="1104" y="-789.5" font-family="Arial" font-size="10.00">2: Advance</text>
</g>
<!-- M_2_b&#45;&gt;M_2_c -->
<g id="edge31" class="edge">
<title>M_2_b&#45;&gt;M_2_c</title>
<path fill="none" stroke="#555555" d="M1172.54,-881.24C1159.76,-864.79 1138.88,-837.9 1123.51,-818.12"/>
<polygon fill="#555555" stroke="#555555" points="1126.21,-815.88 1117.31,-810.13 1120.68,-820.18 1126.21,-815.88"/>
<text text-anchor="middle" x="1144" y="-830.8" font-family="Arial" font-size="9.00">Yes</text>
</g>
<!-- M_3 -->
<g id="node36" class="node">
<title>M_3</title>
<path fill="#f5f5f5" stroke="#333333" d="M1110.51,-333.55C1110.51,-333.55 1033.49,-310.45 1033.49,-310.45 1027.75,-308.72 1027.75,-305.28 1033.49,-303.55 1033.49,-303.55 1110.51,-280.45 1110.51,-280.45 1116.25,-278.72 1127.75,-278.72 1133.49,-280.45 1133.49,-280.45 1210.51,-303.55 1210.51,-303.55 1216.25,-305.28 1216.25,-308.72 1210.51,-310.45 1210.51,-310.45 1133.49,-333.55 1133.49,-333.55 1127.75,-335.28 1116.25,-335.28 1110.51,-333.55"/>
<text text-anchor="middle" x="1122" y="-310" font-family="Arial" font-size="10.00">3: its energy is </text>
<text text-anchor="middle" x="1122" y="-299" font-family="Arial" font-size="10.00"> smaller than 50.0?</text>
</g>
<!-- M_2_b&#45;&gt;M_3 -->
<g id="edge45" class="edge">
<title>M_2_b&#45;&gt;M_3</title>
<path fill="none" stroke="#555555" d="M1198.04,-881.68C1225.8,-853.38 1285,-793 1285,-793 1285,-793 1285,-793 1285,-412 1285,-412 1209.97,-364.13 1161.72,-333.34"/>
<polygon fill="#555555" stroke="#555555" points="1163.36,-330.23 1153.04,-327.81 1159.59,-336.14 1163.36,-330.23"/>
<text text-anchor="middle" x="1291.5" y="-577.8" font-family="Arial" font-size="9.00">No</text>
</g>
<!-- M_2_c&#45;&gt;M_3 -->
<g id="edge46" class="edge">
<title>M_2_c&#45;&gt;M_3</title>
<path fill="none" stroke="#555555" d="M1103.17,-773.83C1101.75,-744.29 1099,-687 1099,-687 1099,-687 1099,-687 1099,-412 1099,-412 1107.19,-374.98 1113.79,-345.12"/>
<polygon fill="#555555" stroke="#555555" points="1117.22,-345.84 1115.96,-335.32 1110.38,-344.33 1117.22,-345.84"/>
</g>
<!-- M_2_e -->
<g id="node30" class="node">
<title>M_2_e</title>
<path fill="#f5f5f5" stroke="#333333" d="M920.68,-934.03C920.68,-934.03 826.32,-900.97 826.32,-900.97 820.66,-898.98 820.66,-895.02 826.32,-893.03 826.32,-893.03 920.68,-859.97 920.68,-859.97 926.34,-857.98 937.66,-857.98 943.32,-859.97 943.32,-859.97 1037.68,-893.03 1037.68,-893.03 1043.34,-895.02 1043.34,-898.98 1037.68,-900.97 1037.68,-900.97 943.32,-934.03 943.32,-934.03 937.66,-936.02 926.34,-936.02 920.68,-934.03"/>
<text text-anchor="middle" x="932" y="-905.5" font-family="Arial" font-size="10.00">vi : the distance of the </text>
<text text-anchor="middle" x="932" y="-894.5" font-family="Arial" font-size="10.00"> animal to mateTarget </text>
<text text-anchor="middle" x="932" y="-883.5" font-family="Arial" font-size="10.00"> is smaller than 8.0?</text>
</g>
<!-- M_2_d&#45;&gt;M_2_e -->
<g id="edge33" class="edge">
<title>M_2_d&#45;&gt;M_2_e</title>
<path fill="none" stroke="#555555" d="M958.29,-995.53C954.63,-981.96 949.38,-962.48 944.53,-944.5"/>
<polygon fill="#555555" stroke="#555555" points="947.88,-943.45 941.89,-934.7 941.12,-945.27 947.88,-943.45"/>
</g>
<!-- M_2_f -->
<g id="node31" class="node">
<title>M_2_f</title>
<path fill="#f5f5f5" stroke="#333333" d="M1010.5,-810C1010.5,-810 853.5,-810 853.5,-810 847.5,-810 841.5,-804 841.5,-798 841.5,-798 841.5,-786 841.5,-786 841.5,-780 847.5,-774 853.5,-774 853.5,-774 1010.5,-774 1010.5,-774 1016.5,-774 1022.5,-780 1022.5,-786 1022.5,-786 1022.5,-798 1022.5,-798 1022.5,-804 1016.5,-810 1010.5,-810"/>
<text text-anchor="start" x="849.5" y="-795" font-family="Arial" font-size="10.00">2.vi.a: Reset the desire of the animal </text>
<text text-anchor="middle" x="932" y="-784" font-family="Arial" font-size="10.00"> and of mateTarget to 0.0</text>
</g>
<!-- M_2_e&#45;&gt;M_2_f -->
<g id="edge34" class="edge">
<title>M_2_e&#45;&gt;M_2_f</title>
<path fill="none" stroke="#555555" d="M932,-855.88C932,-843.94 932,-831.13 932,-820.21"/>
<polygon fill="#555555" stroke="#555555" points="935.5,-820.02 932,-810.02 928.5,-820.02 935.5,-820.02"/>
<text text-anchor="middle" x="940" y="-830.8" font-family="Arial" font-size="9.00">Yes</text>
</g>
<!-- M_2_e&#45;&gt;M_3 -->
<g id="edge47" class="edge">
<title>M_2_e&#45;&gt;M_3</title>
<path fill="none" stroke="#555555" d="M994.99,-877.87C1031.77,-867.29 1071,-856 1071,-856 1071,-856 1162,-838 1162,-838 1162,-838 1186,-793 1186,-793 1186,-793 1186,-793 1186,-412 1186,-412 1161.23,-371.74 1142.5,-341.32"/>
<polygon fill="#555555" stroke="#555555" points="1145.39,-339.33 1137.17,-332.65 1139.43,-343 1145.39,-339.33"/>
<text text-anchor="middle" x="1192.5" y="-577.8" font-family="Arial" font-size="9.00">No</text>
</g>
<!-- M_2_g -->
<g id="node32" class="node">
<title>M_2_g</title>
<path fill="#f5f5f5" stroke="#333333" d="M920.15,-702.09C920.15,-702.09 832.24,-687.91 832.24,-687.91 826.31,-686.96 826.31,-685.04 832.24,-684.09 832.24,-684.09 920.15,-669.91 920.15,-669.91 926.08,-668.96 937.92,-668.96 943.85,-669.91 943.85,-669.91 1031.76,-684.09 1031.76,-684.09 1037.69,-685.04 1037.69,-686.96 1031.76,-687.91 1031.76,-687.91 943.85,-702.09 943.85,-702.09 937.92,-703.04 926.08,-703.04 920.15,-702.09"/>
<text text-anchor="middle" x="932" y="-683.5" font-family="Arial" font-size="10.00">2.vi.b: has a baby already?</text>
</g>
<!-- M_2_f&#45;&gt;M_2_g -->
<g id="edge35" class="edge">
<title>M_2_f&#45;&gt;M_2_g</title>
<path fill="none" stroke="#555555" d="M932,-773.83C932,-757.64 932,-733.13 932,-714.27"/>
<polygon fill="#555555" stroke="#555555" points="935.5,-714.2 932,-704.2 928.5,-714.2 935.5,-714.2"/>
</g>
<!-- M_2_h -->
<g id="node33" class="node">
<title>M_2_h</title>
<path fill="#f5f5f5" stroke="#333333" d="M1042.5,-606C1042.5,-606 929.5,-606 929.5,-606 923.5,-606 917.5,-600 917.5,-594 917.5,-594 917.5,-566 917.5,-566 917.5,-560 923.5,-554 929.5,-554 929.5,-554 1042.5,-554 1042.5,-554 1048.5,-554 1054.5,-560 1054.5,-566 1054.5,-566 1054.5,-594 1054.5,-594 1054.5,-600 1048.5,-606 1042.5,-606"/>
<text text-anchor="start" x="925.5" y="-594" font-family="Arial" font-size="10.00">2.vi.b: with probability </text>
<text text-anchor="start" x="925.5" y="-583" font-family="Arial" font-size="10.00"> de 0.9 it carries a </text>
<text text-anchor="start" x="925.5" y="-572" font-family="Arial" font-size="10.00"> new baby using </text>
<text text-anchor="middle" x="986" y="-561" font-family="Arial" font-size="10.00"> new Wolf(this, mateTarget)</text>
</g>
<!-- M_2_g&#45;&gt;M_2_h -->
<g id="edge36" class="edge">
<title>M_2_g&#45;&gt;M_2_h</title>
<path fill="none" stroke="#555555" d="M940.2,-669.2C947.59,-654.98 958.7,-633.57 968.13,-615.41"/>
<polygon fill="#555555" stroke="#555555" points="971.38,-616.76 972.88,-606.27 965.17,-613.53 971.38,-616.76"/>
<text text-anchor="middle" x="966.5" y="-630.8" font-family="Arial" font-size="9.00">No</text>
</g>
<!-- M_2_i -->
<g id="node34" class="node">
<title>M_2_i</title>
<path fill="#f5f5f5" stroke="#333333" d="M1043,-504C1043,-504 891,-504 891,-504 885,-504 879,-498 879,-492 879,-492 879,-480 879,-480 879,-474 885,-468 891,-468 891,-468 1043,-468 1043,-468 1049,-468 1055,-474 1055,-480 1055,-480 1055,-492 1055,-492 1055,-498 1049,-504 1043,-504"/>
<text text-anchor="middle" x="967" y="-483.5" font-family="Arial" font-size="10.00">2.vi.c: Subtract 10.0 from the energy</text>
</g>
<!-- M_2_g&#45;&gt;M_2_i -->
<g id="edge37" class="edge">
<title>M_2_g&#45;&gt;M_2_i</title>
<path fill="none" stroke="#555555" d="M921.23,-669.46C905.99,-647.49 880,-610 880,-610 880,-610 880,-550 880,-550 880,-550 910.24,-528.1 935.07,-510.12"/>
<polygon fill="#555555" stroke="#555555" points="937.18,-512.91 943.23,-504.22 933.07,-507.25 937.18,-512.91"/>
<text text-anchor="middle" x="888" y="-577.8" font-family="Arial" font-size="9.00">Yes</text>
</g>
<!-- M_2_h&#45;&gt;M_2_i -->
<g id="edge38" class="edge">
<title>M_2_h&#45;&gt;M_2_i</title>
<path fill="none" stroke="#555555" d="M980.81,-553.86C978.27,-541.56 975.2,-526.73 972.61,-514.17"/>
<polygon fill="#555555" stroke="#555555" points="976.01,-513.34 970.56,-504.25 969.16,-514.75 976.01,-513.34"/>
</g>
<!-- M_2_ii -->
<g id="node35" class="node">
<title>M_2_ii</title>
<path fill="#f5f5f5" stroke="#333333" d="M1034.5,-431C1034.5,-431 917.5,-431 917.5,-431 911.5,-431 905.5,-425 905.5,-419 905.5,-419 905.5,-407 905.5,-407 905.5,-401 911.5,-395 917.5,-395 917.5,-395 1034.5,-395 1034.5,-395 1040.5,-395 1046.5,-401 1046.5,-407 1046.5,-407 1046.5,-419 1046.5,-419 1046.5,-425 1040.5,-431 1034.5,-431"/>
<text text-anchor="middle" x="976" y="-410.5" font-family="Arial" font-size="10.00">2.vi.d: set mateTarget to null</text>
</g>
<!-- M_2_i&#45;&gt;M_2_ii -->
<g id="edge39" class="edge">
<title>M_2_i&#45;&gt;M_2_ii</title>
<path fill="none" stroke="#555555" d="M969.18,-467.81C970.2,-459.79 971.43,-450.05 972.57,-441.07"/>
<polygon fill="#555555" stroke="#555555" points="976.06,-441.39 973.84,-431.03 969.11,-440.51 976.06,-441.39"/>
</g>
<!-- M_2_ii&#45;&gt;M_3 -->
<g id="edge48" class="edge">
<title>M_2_ii&#45;&gt;M_3</title>
<path fill="none" stroke="#555555" d="M1000.11,-394.83C1023.2,-378.38 1058.38,-353.32 1085.02,-334.34"/>
<polygon fill="#555555" stroke="#555555" points="1087.23,-337.07 1093.34,-328.42 1083.16,-331.37 1087.23,-337.07"/>
</g>
<!-- M_3_a -->
<g id="node37" class="node">
<title>M_3_a</title>
<path fill="#f5f5f5" stroke="#333333" d="M1011.5,-219C1011.5,-219 910.5,-219 910.5,-219 904.5,-219 898.5,-213 898.5,-207 898.5,-207 898.5,-195 898.5,-195 898.5,-189 904.5,-183 910.5,-183 910.5,-183 1011.5,-183 1011.5,-183 1017.5,-183 1023.5,-189 1023.5,-195 1023.5,-195 1023.5,-207 1023.5,-207 1023.5,-213 1017.5,-219 1011.5,-219"/>
<text text-anchor="middle" x="961" y="-198.5" font-family="Arial" font-size="10.00">3: set state to HUNGER</text>
</g>
<!-- M_3&#45;&gt;M_3_a -->
<g id="edge40" class="edge">
<title>M_3&#45;&gt;M_3_a</title>
<path fill="none" stroke="#555555" d="M1091.34,-286.19C1064.14,-268.62 1024.42,-242.96 995.98,-224.6"/>
<polygon fill="#555555" stroke="#555555" points="997.84,-221.63 987.55,-219.15 994.05,-227.51 997.84,-221.63"/>
<text text-anchor="middle" x="1054" y="-251.8" font-family="Arial" font-size="9.00">Yes</text>
</g>
<!-- M_3_b -->
<g id="node38" class="node">
<title>M_3_b</title>
<path fill="#f5f5f5" stroke="#333333" d="M1155.51,-227.55C1155.51,-227.55 1078.49,-204.45 1078.49,-204.45 1072.75,-202.72 1072.75,-199.28 1078.49,-197.55 1078.49,-197.55 1155.51,-174.45 1155.51,-174.45 1161.25,-172.72 1172.75,-172.72 1178.49,-174.45 1178.49,-174.45 1255.51,-197.55 1255.51,-197.55 1261.25,-199.28 1261.25,-202.72 1255.51,-204.45 1255.51,-204.45 1178.49,-227.55 1178.49,-227.55 1172.75,-229.28 1161.25,-229.28 1155.51,-227.55"/>
<text text-anchor="middle" x="1167" y="-204" font-family="Arial" font-size="10.00">3: its desire is </text>
<text text-anchor="middle" x="1167" y="-193" font-family="Arial" font-size="10.00"> smaller than 65.0?</text>
</g>
<!-- M_3&#45;&gt;M_3_b -->
<g id="edge41" class="edge">
<title>M_3&#45;&gt;M_3_b</title>
<path fill="none" stroke="#555555" d="M1133.12,-280.29C1138.75,-267.29 1145.66,-251.32 1151.77,-237.19"/>
<polygon fill="#555555" stroke="#555555" points="1155.09,-238.34 1155.85,-227.77 1148.67,-235.56 1155.09,-238.34"/>
<text text-anchor="middle" x="1151.5" y="-251.8" font-family="Arial" font-size="9.00">No</text>
</g>
<!-- M_end -->
<g id="node40" class="node">
<title>M_end</title>
<path fill="#f5f5f5" stroke="#333333" d="M1118.5,-52C1118.5,-52 1041.5,-52 1041.5,-52 1035.5,-52 1029.5,-46 1029.5,-40 1029.5,-40 1029.5,-28 1029.5,-28 1029.5,-22 1035.5,-16 1041.5,-16 1041.5,-16 1118.5,-16 1118.5,-16 1124.5,-16 1130.5,-22 1130.5,-28 1130.5,-28 1130.5,-40 1130.5,-40 1130.5,-46 1124.5,-52 1118.5,-52"/>
<text text-anchor="middle" x="1080" y="-31.5" font-family="Arial" font-size="10.00">End of MATE State</text>
</g>
<!-- M_3_a&#45;&gt;M_end -->
<g id="edge50" class="edge">
<title>M_3_a&#45;&gt;M_end</title>
<path fill="none" stroke="#555555" d="M988.5,-182.77C1009.91,-169.35 1036,-153 1036,-153 1036,-153 1057,-125 1057,-125 1057,-125 1066.26,-88.76 1073.03,-62.28"/>
<polygon fill="#555555" stroke="#555555" points="1076.48,-62.91 1075.57,-52.35 1069.7,-61.17 1076.48,-62.91"/>
</g>
<!-- M_3_c -->
<g id="node39" class="node">
<title>M_3_c</title>
<path fill="#f5f5f5" stroke="#333333" d="M1023.5,-125C1023.5,-125 924.5,-125 924.5,-125 918.5,-125 912.5,-119 912.5,-113 912.5,-113 912.5,-101 912.5,-101 912.5,-95 918.5,-89 924.5,-89 924.5,-89 1023.5,-89 1023.5,-89 1029.5,-89 1035.5,-95 1035.5,-101 1035.5,-101 1035.5,-113 1035.5,-113 1035.5,-119 1029.5,-125 1023.5,-125"/>
<text text-anchor="middle" x="974" y="-104.5" font-family="Arial" font-size="10.00">3: set state to NORMAL</text>
</g>
<!-- M_3_b&#45;&gt;M_3_c -->
<g id="edge42" class="edge">
<title>M_3_b&#45;&gt;M_3_c</title>
<path fill="none" stroke="#555555" d="M1118.61,-185.51C1072.48,-171.71 1010,-153 1010,-153 1010,-153 1002.26,-143.32 993.95,-132.94"/>
<polygon fill="#555555" stroke="#555555" points="996.59,-130.63 987.61,-125.01 991.12,-135.01 996.59,-130.63"/>
<text text-anchor="middle" x="1018" y="-145.8" font-family="Arial" font-size="9.00">Yes</text>
</g>
<!-- M_3_b&#45;&gt;M_end -->
<g id="edge49" class="edge">
<title>M_3_b&#45;&gt;M_end</title>
<path fill="none" stroke="#555555" d="M1153.79,-174.94C1137.59,-144.22 1110.27,-92.41 1093.81,-61.18"/>
<polygon fill="#555555" stroke="#555555" points="1096.83,-59.41 1089.07,-52.2 1090.64,-62.68 1096.83,-59.41"/>
<text text-anchor="middle" x="1132.5" y="-104.8" font-family="Arial" font-size="9.00">No</text>
</g>
<!-- M_3_c&#45;&gt;M_end -->
<g id="edge51" class="edge">
<title>M_3_c&#45;&gt;M_end</title>
<path fill="none" stroke="#555555" d="M999.39,-88.99C1013.32,-79.67 1030.77,-67.97 1045.87,-57.86"/>
<polygon fill="#555555" stroke="#555555" points="1048.09,-60.59 1054.45,-52.11 1044.19,-54.77 1048.09,-60.59"/>
</g>
</g>
</svg>
