<?xml version="1.0" encoding="UTF-8" standalone="no"?>
<!DOCTYPE svg PUBLIC "-//W3C//DTD SVG 1.1//EN"
 "http://www.w3.org/Graphics/SVG/1.1/DTD/svg11.dtd">
<!-- Generated by graphviz version 2.43.0 (0)
 -->
<!-- Title: AnimalStateUpdate_Acyclic Pages: 1 -->
<svg width="1421pt" height="1630pt"
 viewBox="0.00 0.00 1421.00 1630.00" xmlns="http://www.w3.org/2000/svg" xmlns:xlink="http://www.w3.org/1999/xlink">
<g id="graph0" class="graph" transform="scale(1 1) rotate(0) translate(4 1626)">
<title>AnimalStateUpdate_Acyclic</title>
<polygon fill="white" stroke="transparent" points="-4,4 -4,-1626 1417,-1626 1417,4 -4,4"/>
<g id="clust1" class="cluster">
<title>cluster_normal_flow</title>
<polygon fill="#f1f8e9" stroke="#f1f8e9" points="8,-660 8,-1466 469,-1466 469,-660 8,-660"/>
<text text-anchor="middle" x="238.5" y="-1450.8" font-family="Times,serif" font-size="14.00">Estado: NORMAL</text>
</g>
<g id="clust2" class="cluster">
<title>cluster_normal_flow_1</title>
<polygon fill="#00f8e9" stroke="#00f8e9" points="239,-1115 239,-1435 461,-1435 461,-1115 239,-1115"/>
<text text-anchor="middle" x="350" y="-1419.8" font-family="Times,serif" font-size="14.00">(1)</text>
</g>
<g id="clust3" class="cluster">
<title>cluster_normal_flow_2</title>
<polygon fill="#00f8e9" stroke="#00f8e9" points="16,-766 16,-1075 461,-1075 461,-766 16,-766"/>
<text text-anchor="middle" x="238.5" y="-1059.8" font-family="Times,serif" font-size="14.00">(2)</text>
</g>
<g id="clust4" class="cluster">
<title>cluster_hunger_flow</title>
<polygon fill="#f1f8e9" stroke="#f1f8e9" points="477,-387 477,-1477 897,-1477 897,-387 477,-387"/>
<text text-anchor="middle" x="687" y="-1461.8" font-family="Times,serif" font-size="14.00">Estado: HUNGER</text>
</g>
<g id="clust5" class="cluster">
<title>cluster_hunger_flow_1</title>
<polygon fill="#00f8e9" stroke="#00f8e9" points="488,-1221 488,-1446 794,-1446 794,-1221 488,-1221"/>
<text text-anchor="middle" x="641" y="-1430.8" font-family="Times,serif" font-size="14.00">(1)</text>
</g>
<g id="clust6" class="cluster">
<title>cluster_hunger_flow_2</title>
<polygon fill="#00f8e9" stroke="#00f8e9" points="570,-766 570,-1202 743,-1202 743,-766 570,-766"/>
<text text-anchor="middle" x="656.5" y="-1186.8" font-family="Times,serif" font-size="14.00">(2)</text>
</g>
<g id="clust7" class="cluster">
<title>cluster_hunger_flow_3</title>
<polygon fill="#00f8e9" stroke="#00f8e9" points="485,-460 485,-747 852,-747 852,-460 485,-460"/>
<text text-anchor="middle" x="668.5" y="-731.8" font-family="Times,serif" font-size="14.00">(3)</text>
</g>
<g id="clust8" class="cluster">
<title>cluster_mate_flow</title>
<polygon fill="#f1f8e9" stroke="#f1f8e9" points="905,-8 905,-1477 1405,-1477 1405,-8 905,-8"/>
<text text-anchor="middle" x="1155" y="-1461.8" font-family="Times,serif" font-size="14.00">Estado: MATE</text>
</g>
<g id="clust9" class="cluster">
<title>cluster_mate_flow_1</title>
<polygon fill="#00f8e9" stroke="#00f8e9" points="913,-1221 913,-1446 1203,-1446 1203,-1221 913,-1221"/>
<text text-anchor="middle" x="1058" y="-1430.8" font-family="Times,serif" font-size="14.00">(1)</text>
</g>
<g id="clust10" class="cluster">
<title>cluster_mate_flow_2</title>
<polygon fill="#00f8e9" stroke="#00f8e9" points="913,-387 913,-1190 1382,-1190 1382,-387 913,-387"/>
<text text-anchor="middle" x="1147.5" y="-1174.8" font-family="Times,serif" font-size="14.00">(2)</text>
</g>
<g id="clust11" class="cluster">
<title>cluster_mate_flow_3</title>
<polygon fill="#00f8e9" stroke="#00f8e9" points="951,-81 951,-368 1356,-368 1356,-81 951,-81"/>
<text text-anchor="middle" x="1153.5" y="-352.8" font-family="Times,serif" font-size="14.00">(3)</text>
</g>
<!-- Start -->
<g id="node1" class="node">
<title>Start</title>
<ellipse fill="#e1f5fe" stroke="#333333" cx="641" cy="-1604" rx="85.21" ry="18"/>
<text text-anchor="middle" x="641" y="-1601.5" font-family="Arial" font-size="10.00">Inicio: Actualizar Estado Wolf</text>
</g>
<!-- StateDecider -->
<g id="node2" class="node">
<title>StateDecider</title>
<polygon fill="#f5f5f5" stroke="#333333" points="641,-1549 571.81,-1531 641,-1513 710.19,-1531 641,-1549"/>
<text text-anchor="middle" x="641" y="-1528.5" font-family="Arial" font-size="10.00">Estado Actual?</text>
</g>
<!-- Start&#45;&gt;StateDecider -->
<g id="edge1" class="edge">
<title>Start&#45;&gt;StateDecider</title>
<path fill="none" stroke="#555555" d="M641,-1585.81C641,-1577.79 641,-1568.05 641,-1559.07"/>
<polygon fill="#555555" stroke="#555555" points="644.5,-1559.03 641,-1549.03 637.5,-1559.03 644.5,-1559.03"/>
</g>
<!-- N_1_i -->
<g id="node3" class="node">
<title>N_1_i</title>
<path fill="#f5f5f5" stroke="#333333" d="M340.88,-1399.49C340.88,-1399.49 262.12,-1367.51 262.12,-1367.51 256.56,-1365.26 256.56,-1360.74 262.12,-1358.49 262.12,-1358.49 340.88,-1326.51 340.88,-1326.51 346.44,-1324.26 357.56,-1324.26 363.12,-1326.51 363.12,-1326.51 441.88,-1358.49 441.88,-1358.49 447.44,-1360.74 447.44,-1365.26 441.88,-1367.51 441.88,-1367.51 363.12,-1399.49 363.12,-1399.49 357.56,-1401.74 346.44,-1401.74 340.88,-1399.49"/>
<text text-anchor="middle" x="352" y="-1371.5" font-family="Arial" font-size="10.00">i: la distancia del </text>
<text text-anchor="middle" x="352" y="-1360.5" font-family="Arial" font-size="10.00"> animal al destino </text>
<text text-anchor="middle" x="352" y="-1349.5" font-family="Arial" font-size="10.00"> es menor que 8.0?</text>
</g>
<!-- StateDecider&#45;&gt;N_1_i -->
<g id="edge52" class="edge">
<title>StateDecider&#45;&gt;N_1_i</title>
<path fill="none" stroke="#555555" d="M611.86,-1520.52C564.97,-1505.28 478,-1477 478,-1477 478,-1477 427.56,-1431.76 390.5,-1398.53"/>
<polygon fill="#555555" stroke="#555555" points="392.6,-1395.71 382.82,-1391.64 387.93,-1400.93 392.6,-1395.71"/>
<text text-anchor="middle" x="550" y="-1487.8" font-family="Arial" font-size="9.00">NORMAL</text>
</g>
<!-- H_1 -->
<g id="node11" class="node">
<title>H_1</title>
<path fill="#f5f5f5" stroke="#333333" d="M629.7,-1410.95C629.7,-1410.95 507.3,-1367.05 507.3,-1367.05 501.65,-1365.03 501.65,-1360.97 507.3,-1358.95 507.3,-1358.95 629.7,-1315.05 629.7,-1315.05 635.35,-1313.03 646.65,-1313.03 652.3,-1315.05 652.3,-1315.05 774.7,-1358.95 774.7,-1358.95 780.35,-1360.97 780.35,-1365.03 774.7,-1367.05 774.7,-1367.05 652.3,-1410.95 652.3,-1410.95 646.65,-1412.97 635.35,-1412.97 629.7,-1410.95"/>
<text text-anchor="middle" x="641" y="-1377" font-family="Arial" font-size="10.00">1: huntTarget es null, o </text>
<text text-anchor="middle" x="641" y="-1366" font-family="Arial" font-size="10.00"> huntTarget no es null </text>
<text text-anchor="middle" x="641" y="-1355" font-family="Arial" font-size="10.00"> y su estado es DEAD o </text>
<text text-anchor="middle" x="641" y="-1344" font-family="Arial" font-size="10.00"> está fuera del campo visual?</text>
</g>
<!-- StateDecider&#45;&gt;H_1 -->
<g id="edge53" class="edge">
<title>StateDecider&#45;&gt;H_1</title>
<path fill="none" stroke="#555555" d="M641,-1512.86C641,-1492.32 641,-1456.76 641,-1425.54"/>
<polygon fill="#555555" stroke="#555555" points="644.5,-1425.15 641,-1415.15 637.5,-1425.15 644.5,-1425.15"/>
<text text-anchor="middle" x="661" y="-1487.8" font-family="Arial" font-size="9.00">HUNGER</text>
</g>
<!-- M_1 -->
<g id="node23" class="node">
<title>M_1</title>
<path fill="#f5f5f5" stroke="#333333" d="M1046.78,-1410.74C1046.78,-1410.74 932.22,-1367.26 932.22,-1367.26 926.61,-1365.13 926.61,-1360.87 932.22,-1358.74 932.22,-1358.74 1046.78,-1315.26 1046.78,-1315.26 1052.39,-1313.13 1063.61,-1313.13 1069.22,-1315.26 1069.22,-1315.26 1183.78,-1358.74 1183.78,-1358.74 1189.39,-1360.87 1189.39,-1365.13 1183.78,-1367.26 1183.78,-1367.26 1069.22,-1410.74 1069.22,-1410.74 1063.61,-1412.87 1052.39,-1412.87 1046.78,-1410.74"/>
<text text-anchor="middle" x="1058" y="-1377" font-family="Arial" font-size="10.00">1: mateTarget no es </text>
<text text-anchor="middle" x="1058" y="-1366" font-family="Arial" font-size="10.00"> null y su estado es DEAD </text>
<text text-anchor="middle" x="1058" y="-1355" font-family="Arial" font-size="10.00"> o está fuera del </text>
<text text-anchor="middle" x="1058" y="-1344" font-family="Arial" font-size="10.00"> campo visual?</text>
</g>
<!-- StateDecider&#45;&gt;M_1 -->
<g id="edge54" class="edge">
<title>StateDecider&#45;&gt;M_1</title>
<path fill="none" stroke="#555555" d="M670.14,-1520.52C717.03,-1505.28 804,-1477 804,-1477 804,-1477 911.29,-1429.27 986.41,-1395.85"/>
<polygon fill="#555555" stroke="#555555" points="988.15,-1398.91 995.86,-1391.64 985.31,-1392.51 988.15,-1398.91"/>
<text text-anchor="middle" x="788.5" y="-1487.8" font-family="Arial" font-size="9.00">MATE</text>
</g>
<!-- N_1_i_yes -->
<g id="node4" class="node">
<title>N_1_i_yes</title>
<path fill="#f5f5f5" stroke="#333333" d="M341.5,-1265C341.5,-1265 258.5,-1265 258.5,-1265 252.5,-1265 246.5,-1259 246.5,-1253 246.5,-1253 246.5,-1241 246.5,-1241 246.5,-1235 252.5,-1229 258.5,-1229 258.5,-1229 341.5,-1229 341.5,-1229 347.5,-1229 353.5,-1235 353.5,-1241 353.5,-1241 353.5,-1253 353.5,-1253 353.5,-1259 347.5,-1265 341.5,-1265"/>
<text text-anchor="start" x="254.5" y="-1250" font-family="Arial" font-size="10.00">i: Elegir otro destino </text>
<text text-anchor="middle" x="300" y="-1239" font-family="Arial" font-size="10.00"> de manera aleatoria</text>
</g>
<!-- N_1_i&#45;&gt;N_1_i_yes -->
<g id="edge2" class="edge">
<title>N_1_i&#45;&gt;N_1_i_yes</title>
<path fill="none" stroke="#555555" d="M336.54,-1328.1C328.7,-1310.93 319.33,-1290.39 312.04,-1274.4"/>
<polygon fill="#555555" stroke="#555555" points="315.14,-1272.76 307.81,-1265.11 308.77,-1275.66 315.14,-1272.76"/>
<text text-anchor="middle" x="323.5" y="-1285.8" font-family="Arial" font-size="9.00">Sí</text>
</g>
<!-- N_1_ii -->
<g id="node5" class="node">
<title>N_1_ii</title>
<path fill="#f5f5f5" stroke="#333333" d="M330,-1159C330,-1159 300,-1159 300,-1159 294,-1159 288,-1153 288,-1147 288,-1147 288,-1135 288,-1135 288,-1129 294,-1123 300,-1123 300,-1123 330,-1123 330,-1123 336,-1123 342,-1129 342,-1135 342,-1135 342,-1147 342,-1147 342,-1153 336,-1159 330,-1159"/>
<text text-anchor="middle" x="315" y="-1138.5" font-family="Arial" font-size="10.00">1.ii &#45; 1.v</text>
</g>
<!-- N_1_i&#45;&gt;N_1_ii -->
<g id="edge3" class="edge">
<title>N_1_i&#45;&gt;N_1_ii</title>
<path fill="none" stroke="#555555" d="M360.7,-1325.33C367.21,-1297.86 375,-1265 375,-1265 375,-1265 375,-1221 375,-1221 375,-1221 351.73,-1190.36 334.18,-1167.25"/>
<polygon fill="#555555" stroke="#555555" points="336.85,-1164.99 328.02,-1159.14 331.28,-1169.22 336.85,-1164.99"/>
<text text-anchor="middle" x="381.5" y="-1244.8" font-family="Arial" font-size="9.00">No</text>
</g>
<!-- N_1_i_yes&#45;&gt;N_1_ii -->
<g id="edge4" class="edge">
<title>N_1_i_yes&#45;&gt;N_1_ii</title>
<path fill="none" stroke="#555555" d="M302.48,-1228.83C304.81,-1212.64 308.35,-1188.13 311.07,-1169.27"/>
<polygon fill="#555555" stroke="#555555" points="314.56,-1169.6 312.52,-1159.2 307.63,-1168.6 314.56,-1169.6"/>
</g>
<!-- N_2_i -->
<g id="node6" class="node">
<title>N_2_i</title>
<path fill="#f5f5f5" stroke="#333333" d="M303.59,-1040.28C303.59,-1040.28 234.41,-1017.72 234.41,-1017.72 228.7,-1015.86 228.7,-1012.14 234.41,-1010.28 234.41,-1010.28 303.59,-987.72 303.59,-987.72 309.3,-985.86 320.7,-985.86 326.41,-987.72 326.41,-987.72 395.59,-1010.28 395.59,-1010.28 401.3,-1012.14 401.3,-1015.86 395.59,-1017.72 395.59,-1017.72 326.41,-1040.28 326.41,-1040.28 320.7,-1042.14 309.3,-1042.14 303.59,-1040.28"/>
<text text-anchor="middle" x="315" y="-1017" font-family="Arial" font-size="10.00">i: su energía es </text>
<text text-anchor="middle" x="315" y="-1006" font-family="Arial" font-size="10.00"> menor que 50.0?</text>
</g>
<!-- N_1_ii&#45;&gt;N_2_i -->
<g id="edge8" class="edge">
<title>N_1_ii&#45;&gt;N_2_i</title>
<path fill="none" stroke="#555555" d="M315,-1122.88C315,-1105.37 315,-1077.55 315,-1054.54"/>
<polygon fill="#555555" stroke="#555555" points="318.5,-1054.37 315,-1044.37 311.5,-1054.37 318.5,-1054.37"/>
</g>
<!-- N_2_i_yes -->
<g id="node7" class="node">
<title>N_2_i_yes</title>
<path fill="#f5f5f5" stroke="#333333" d="M170,-915C170,-915 36,-915 36,-915 30,-915 24,-909 24,-903 24,-903 24,-891 24,-891 24,-885 30,-879 36,-879 36,-879 170,-879 170,-879 176,-879 182,-885 182,-891 182,-891 182,-903 182,-903 182,-909 176,-915 170,-915"/>
<text text-anchor="middle" x="103" y="-894.5" font-family="Arial" font-size="10.00">i: cambia de estado a HUNGER</text>
</g>
<!-- N_2_i&#45;&gt;N_2_i_yes -->
<g id="edge5" class="edge">
<title>N_2_i&#45;&gt;N_2_i_yes</title>
<path fill="none" stroke="#555555" d="M281.41,-994.78C243.93,-974.45 183.32,-941.57 143.31,-919.87"/>
<polygon fill="#555555" stroke="#555555" points="144.82,-916.7 134.36,-915.01 141.48,-922.86 144.82,-916.7"/>
<text text-anchor="middle" x="232.5" y="-958.8" font-family="Arial" font-size="9.00">Sí</text>
</g>
<!-- N_2_ii_b -->
<g id="node8" class="node">
<title>N_2_ii_b</title>
<path fill="#f5f5f5" stroke="#333333" d="M327.15,-913.13C327.15,-913.13 236.75,-898.87 236.75,-898.87 230.82,-897.93 230.82,-896.07 236.75,-895.13 236.75,-895.13 327.15,-880.87 327.15,-880.87 333.07,-879.93 344.93,-879.93 350.85,-880.87 350.85,-880.87 441.25,-895.13 441.25,-895.13 447.18,-896.07 447.18,-897.93 441.25,-898.87 441.25,-898.87 350.85,-913.13 350.85,-913.13 344.93,-914.07 333.07,-914.07 327.15,-913.13"/>
<text text-anchor="middle" x="339" y="-894.5" font-family="Arial" font-size="10.00">ii: su deseo mayor de 65.0?</text>
</g>
<!-- N_2_i&#45;&gt;N_2_ii_b -->
<g id="edge6" class="edge">
<title>N_2_i&#45;&gt;N_2_ii_b</title>
<path fill="none" stroke="#555555" d="M320.69,-985.75C324.53,-967.31 329.59,-943.08 333.42,-924.75"/>
<polygon fill="#555555" stroke="#555555" points="336.89,-925.24 335.51,-914.73 330.04,-923.81 336.89,-925.24"/>
<text text-anchor="middle" x="332.5" y="-958.8" font-family="Arial" font-size="9.00">No</text>
</g>
<!-- N_end -->
<g id="node10" class="node">
<title>N_end</title>
<path fill="#f5f5f5" stroke="#333333" d="M289,-704C289,-704 215,-704 215,-704 209,-704 203,-698 203,-692 203,-692 203,-680 203,-680 203,-674 209,-668 215,-668 215,-668 289,-668 289,-668 295,-668 301,-674 301,-680 301,-680 301,-692 301,-692 301,-698 295,-704 289,-704"/>
<text text-anchor="middle" x="252" y="-683.5" font-family="Arial" font-size="10.00">Fin Estado Normal</text>
</g>
<!-- N_2_i_yes&#45;&gt;N_end -->
<g id="edge9" class="edge">
<title>N_2_i_yes&#45;&gt;N_end</title>
<path fill="none" stroke="#555555" d="M133.35,-878.91C163.73,-861.8 206,-838 206,-838 206,-838 229,-810 229,-810 229,-810 240.17,-750.27 246.94,-714.06"/>
<polygon fill="#555555" stroke="#555555" points="250.4,-714.58 248.8,-704.1 243.52,-713.29 250.4,-714.58"/>
</g>
<!-- N_2_ii_c -->
<g id="node9" class="node">
<title>N_2_ii_c</title>
<path fill="#f5f5f5" stroke="#333333" d="M195.5,-810C195.5,-810 76.5,-810 76.5,-810 70.5,-810 64.5,-804 64.5,-798 64.5,-798 64.5,-786 64.5,-786 64.5,-780 70.5,-774 76.5,-774 76.5,-774 195.5,-774 195.5,-774 201.5,-774 207.5,-780 207.5,-786 207.5,-786 207.5,-798 207.5,-798 207.5,-804 201.5,-810 195.5,-810"/>
<text text-anchor="middle" x="136" y="-789.5" font-family="Arial" font-size="10.00">ii: cambiar el estado a MATE</text>
</g>
<!-- N_2_ii_b&#45;&gt;N_2_ii_c -->
<g id="edge7" class="edge">
<title>N_2_ii_b&#45;&gt;N_2_ii_c</title>
<path fill="none" stroke="#555555" d="M307.14,-883.84C262.56,-866.83 187,-838 187,-838 187,-838 175.15,-827.55 162.88,-816.71"/>
<polygon fill="#555555" stroke="#555555" points="165.1,-814 155.28,-810.01 160.46,-819.25 165.1,-814"/>
<text text-anchor="middle" x="191.5" y="-830.8" font-family="Arial" font-size="9.00">Sí</text>
</g>
<!-- N_2_ii_b&#45;&gt;N_end -->
<g id="edge10" class="edge">
<title>N_2_ii_b&#45;&gt;N_end</title>
<path fill="none" stroke="#555555" d="M332.32,-879.95C317.44,-844.21 281.46,-757.78 263.13,-713.75"/>
<polygon fill="#555555" stroke="#555555" points="266.26,-712.16 259.19,-704.27 259.8,-714.85 266.26,-712.16"/>
<text text-anchor="middle" x="308.5" y="-789.8" font-family="Arial" font-size="9.00">No</text>
</g>
<!-- N_2_ii_c&#45;&gt;N_end -->
<g id="edge11" class="edge">
<title>N_2_ii_c&#45;&gt;N_end</title>
<path fill="none" stroke="#555555" d="M155.16,-773.83C174.3,-756.66 203.89,-730.14 225.32,-710.92"/>
<polygon fill="#555555" stroke="#555555" points="227.71,-713.48 232.82,-704.2 223.03,-708.27 227.71,-713.48"/>
</g>
<!-- H_1_a -->
<g id="node12" class="node">
<title>H_1_a</title>
<path fill="#f5f5f5" stroke="#333333" d="M664,-1265C664,-1265 524,-1265 524,-1265 518,-1265 512,-1259 512,-1253 512,-1253 512,-1241 512,-1241 512,-1235 518,-1229 524,-1229 524,-1229 664,-1229 664,-1229 670,-1229 676,-1235 676,-1241 676,-1241 676,-1253 676,-1253 676,-1259 670,-1265 664,-1265"/>
<text text-anchor="middle" x="594" y="-1244.5" font-family="Arial" font-size="10.00">1: buscar otro animal para cazarlo</text>
</g>
<!-- H_1&#45;&gt;H_1_a -->
<g id="edge12" class="edge">
<title>H_1&#45;&gt;H_1_a</title>
<path fill="none" stroke="#555555" d="M622.56,-1317.27C616.59,-1302.8 610.17,-1287.22 604.93,-1274.51"/>
<polygon fill="#555555" stroke="#555555" points="608.06,-1272.92 601.01,-1265.01 601.59,-1275.59 608.06,-1272.92"/>
<text text-anchor="middle" x="615.5" y="-1285.8" font-family="Arial" font-size="9.00">Sí</text>
</g>
<!-- H_2 -->
<g id="node13" class="node">
<title>H_2</title>
<path fill="#f5f5f5" stroke="#333333" d="M644.82,-1166.64C644.82,-1166.64 590.18,-1145.36 590.18,-1145.36 584.59,-1143.18 584.59,-1138.82 590.18,-1136.64 590.18,-1136.64 644.82,-1115.36 644.82,-1115.36 650.41,-1113.18 661.59,-1113.18 667.18,-1115.36 667.18,-1115.36 721.82,-1136.64 721.82,-1136.64 727.41,-1138.82 727.41,-1143.18 721.82,-1145.36 721.82,-1145.36 667.18,-1166.64 667.18,-1166.64 661.59,-1168.82 650.41,-1168.82 644.82,-1166.64"/>
<text text-anchor="middle" x="656" y="-1144" font-family="Arial" font-size="10.00">2: huntTarget </text>
<text text-anchor="middle" x="656" y="-1133" font-family="Arial" font-size="10.00"> es null</text>
</g>
<!-- H_1&#45;&gt;H_2 -->
<g id="edge20" class="edge">
<title>H_1&#45;&gt;H_2</title>
<path fill="none" stroke="#555555" d="M665.84,-1319.74C681.2,-1293.6 698,-1265 698,-1265 698,-1265 698,-1221 698,-1221 698,-1221 685.12,-1196.78 673.63,-1175.16"/>
<polygon fill="#555555" stroke="#555555" points="676.61,-1173.32 668.83,-1166.13 670.43,-1176.6 676.61,-1173.32"/>
<text text-anchor="middle" x="704.5" y="-1244.8" font-family="Arial" font-size="9.00">No</text>
</g>
<!-- H_1_a&#45;&gt;H_2 -->
<g id="edge21" class="edge">
<title>H_1_a&#45;&gt;H_2</title>
<path fill="none" stroke="#555555" d="M604.24,-1228.83C612.97,-1214.19 625.76,-1192.73 636.44,-1174.81"/>
<polygon fill="#555555" stroke="#555555" points="639.69,-1176.2 641.8,-1165.81 633.68,-1172.61 639.69,-1176.2"/>
</g>
<!-- H_2_a -->
<g id="node14" class="node">
<title>H_2_a</title>
<path fill="#f5f5f5" stroke="#333333" d="M723,-1032C723,-1032 687,-1032 687,-1032 681,-1032 675,-1026 675,-1020 675,-1020 675,-1008 675,-1008 675,-1002 681,-996 687,-996 687,-996 723,-996 723,-996 729,-996 735,-1002 735,-1008 735,-1008 735,-1020 735,-1020 735,-1026 729,-1032 723,-1032"/>
<text text-anchor="middle" x="705" y="-1011.5" font-family="Arial" font-size="10.00">2: Avanza</text>
</g>
<!-- H_2&#45;&gt;H_2_a -->
<g id="edge13" class="edge">
<title>H_2&#45;&gt;H_2_a</title>
<path fill="none" stroke="#555555" d="M665.92,-1114.7C674.22,-1093.52 686.04,-1063.37 694.5,-1041.78"/>
<polygon fill="#555555" stroke="#555555" points="697.85,-1042.82 698.24,-1032.23 691.34,-1040.27 697.85,-1042.82"/>
<text text-anchor="middle" x="681.5" y="-1085.8" font-family="Arial" font-size="9.00">Sí</text>
</g>
<!-- H_2_b -->
<g id="node15" class="node">
<title>H_2_b</title>
<path fill="#f5f5f5" stroke="#333333" d="M620,-1032C620,-1032 590,-1032 590,-1032 584,-1032 578,-1026 578,-1020 578,-1020 578,-1008 578,-1008 578,-1002 584,-996 590,-996 590,-996 620,-996 620,-996 626,-996 632,-1002 632,-1008 632,-1008 632,-1020 632,-1020 632,-1026 626,-1032 620,-1032"/>
<text text-anchor="middle" x="605" y="-1011.5" font-family="Arial" font-size="10.00">2.i &#45; 2.v</text>
</g>
<!-- H_2&#45;&gt;H_2_b -->
<g id="edge14" class="edge">
<title>H_2&#45;&gt;H_2_b</title>
<path fill="none" stroke="#555555" d="M645.68,-1114.7C637.04,-1093.52 624.73,-1063.37 615.92,-1041.78"/>
<polygon fill="#555555" stroke="#555555" points="619.05,-1040.17 612.03,-1032.23 612.57,-1042.81 619.05,-1040.17"/>
<text text-anchor="middle" x="642.5" y="-1085.8" font-family="Arial" font-size="9.00">No</text>
</g>
<!-- H_3 -->
<g id="node18" class="node">
<title>H_3</title>
<path fill="#f5f5f5" stroke="#333333" d="M726.45,-712.73C726.45,-712.73 643.55,-689.27 643.55,-689.27 637.77,-687.63 637.77,-684.37 643.55,-682.73 643.55,-682.73 726.45,-659.27 726.45,-659.27 732.23,-657.63 743.77,-657.63 749.55,-659.27 749.55,-659.27 832.45,-682.73 832.45,-682.73 838.23,-684.37 838.23,-687.63 832.45,-689.27 832.45,-689.27 749.55,-712.73 749.55,-712.73 743.77,-714.37 732.23,-714.37 726.45,-712.73"/>
<text text-anchor="middle" x="738" y="-689" font-family="Arial" font-size="10.00">i: su energía </text>
<text text-anchor="middle" x="738" y="-678" font-family="Arial" font-size="10.00"> es mayor que 50.0?</text>
</g>
<!-- H_2_a&#45;&gt;H_3 -->
<g id="edge22" class="edge">
<title>H_2_a&#45;&gt;H_3</title>
<path fill="none" stroke="#555555" d="M706.73,-995.93C711.82,-945.59 726.89,-796.79 734.08,-725.69"/>
<polygon fill="#555555" stroke="#555555" points="737.6,-725.68 735.13,-715.37 730.64,-724.97 737.6,-725.68"/>
</g>
<!-- H_2_c -->
<g id="node16" class="node">
<title>H_2_c</title>
<path fill="#f5f5f5" stroke="#333333" d="M674,-917.5C674,-917.5 590,-917.5 590,-917.5 584,-917.5 578,-911.5 578,-905.5 578,-905.5 578,-888.5 578,-888.5 578,-882.5 584,-876.5 590,-876.5 590,-876.5 674,-876.5 674,-876.5 680,-876.5 686,-882.5 686,-888.5 686,-888.5 686,-905.5 686,-905.5 686,-911.5 680,-917.5 674,-917.5"/>
<text text-anchor="middle" x="632" y="-905.5" font-family="Arial" font-size="10.00">2.vi: la distancia del </text>
<text text-anchor="middle" x="632" y="-894.5" font-family="Arial" font-size="10.00"> animal a huntTarget </text>
<text text-anchor="middle" x="632" y="-883.5" font-family="Arial" font-size="10.00"> es menor que 8.0?</text>
</g>
<!-- H_2_b&#45;&gt;H_2_c -->
<g id="edge15" class="edge">
<title>H_2_b&#45;&gt;H_2_c</title>
<path fill="none" stroke="#555555" d="M609.1,-995.53C613.34,-977.5 620.02,-949.03 625.07,-927.5"/>
<polygon fill="#555555" stroke="#555555" points="628.53,-928.09 627.41,-917.56 621.71,-926.49 628.53,-928.09"/>
</g>
<!-- H_2_d -->
<g id="node17" class="node">
<title>H_2_d</title>
<path fill="#f5f5f5" stroke="#333333" d="M640,-810C640,-810 590,-810 590,-810 584,-810 578,-804 578,-798 578,-798 578,-786 578,-786 578,-780 584,-774 590,-774 590,-774 640,-774 640,-774 646,-774 652,-780 652,-786 652,-786 652,-798 652,-798 652,-804 646,-810 640,-810"/>
<text text-anchor="middle" x="615" y="-789.5" font-family="Arial" font-size="10.00">2.vi.a &#45; 2.vi.c</text>
</g>
<!-- H_2_c&#45;&gt;H_2_d -->
<g id="edge16" class="edge">
<title>H_2_c&#45;&gt;H_2_d</title>
<path fill="none" stroke="#555555" d="M628.72,-876.14C626.1,-860.26 622.4,-837.83 619.5,-820.27"/>
<polygon fill="#555555" stroke="#555555" points="622.9,-819.36 617.82,-810.07 615.99,-820.5 622.9,-819.36"/>
<text text-anchor="middle" x="625.5" y="-830.8" font-family="Arial" font-size="9.00">Sí</text>
</g>
<!-- H_2_c&#45;&gt;H_3 -->
<g id="edge24" class="edge">
<title>H_2_c&#45;&gt;H_3</title>
<path fill="none" stroke="#555555" d="M641.97,-876.34C659.97,-840.86 698.08,-765.71 720.5,-721.51"/>
<polygon fill="#555555" stroke="#555555" points="723.63,-723.07 725.03,-712.57 717.39,-719.9 723.63,-723.07"/>
<text text-anchor="middle" x="703.5" y="-789.8" font-family="Arial" font-size="9.00">No</text>
</g>
<!-- H_2_d&#45;&gt;H_3 -->
<g id="edge23" class="edge">
<title>H_2_d&#45;&gt;H_3</title>
<path fill="none" stroke="#555555" d="M635.31,-773.83C654.03,-758 682.17,-734.21 704.26,-715.53"/>
<polygon fill="#555555" stroke="#555555" points="706.72,-718.03 712.09,-708.9 702.2,-712.69 706.72,-718.03"/>
</g>
<!-- H_3_a -->
<g id="node19" class="node">
<title>H_3_a</title>
<path fill="#f5f5f5" stroke="#333333" d="M726.59,-606.28C726.59,-606.28 657.41,-583.72 657.41,-583.72 651.7,-581.86 651.7,-578.14 657.41,-576.28 657.41,-576.28 726.59,-553.72 726.59,-553.72 732.3,-551.86 743.7,-551.86 749.41,-553.72 749.41,-553.72 818.59,-576.28 818.59,-576.28 824.3,-578.14 824.3,-581.86 818.59,-583.72 818.59,-583.72 749.41,-606.28 749.41,-606.28 743.7,-608.14 732.3,-608.14 726.59,-606.28"/>
<text text-anchor="middle" x="738" y="-583" font-family="Arial" font-size="10.00">i.a: su deseo es </text>
<text text-anchor="middle" x="738" y="-572" font-family="Arial" font-size="10.00"> menor que 65.0?</text>
</g>
<!-- H_3&#45;&gt;H_3_a -->
<g id="edge17" class="edge">
<title>H_3&#45;&gt;H_3_a</title>
<path fill="none" stroke="#555555" d="M738,-655.75C738,-644.69 738,-631.92 738,-620.1"/>
<polygon fill="#555555" stroke="#555555" points="741.5,-620.03 738,-610.03 734.5,-620.03 741.5,-620.03"/>
<text text-anchor="middle" x="742.5" y="-630.8" font-family="Arial" font-size="9.00">Sí</text>
</g>
<!-- H_end -->
<g id="node22" class="node">
<title>H_end</title>
<path fill="#f5f5f5" stroke="#333333" d="M806.5,-431C806.5,-431 719.5,-431 719.5,-431 713.5,-431 707.5,-425 707.5,-419 707.5,-419 707.5,-407 707.5,-407 707.5,-401 713.5,-395 719.5,-395 719.5,-395 806.5,-395 806.5,-395 812.5,-395 818.5,-401 818.5,-407 818.5,-407 818.5,-419 818.5,-419 818.5,-425 812.5,-431 806.5,-431"/>
<text text-anchor="middle" x="763" y="-410.5" font-family="Arial" font-size="10.00">Fin Estado HUNGER</text>
</g>
<!-- H_3&#45;&gt;H_end -->
<g id="edge25" class="edge">
<title>H_3&#45;&gt;H_end</title>
<path fill="none" stroke="#555555" d="M768.85,-664.7C802.61,-642.49 852,-610 852,-610 852,-610 865,-504 865,-504 865,-504 865,-460 865,-460 865,-460 836.98,-447.36 810.31,-435.34"/>
<polygon fill="#555555" stroke="#555555" points="811.54,-432.05 800.98,-431.13 808.66,-438.43 811.54,-432.05"/>
<text text-anchor="middle" x="868.5" y="-524.8" font-family="Arial" font-size="9.00">No</text>
</g>
<!-- H_3_b -->
<g id="node20" class="node">
<title>H_3_b</title>
<path fill="#f5f5f5" stroke="#333333" d="M831.5,-504C831.5,-504 694.5,-504 694.5,-504 688.5,-504 682.5,-498 682.5,-492 682.5,-492 682.5,-480 682.5,-480 682.5,-474 688.5,-468 694.5,-468 694.5,-468 831.5,-468 831.5,-468 837.5,-468 843.5,-474 843.5,-480 843.5,-480 843.5,-492 843.5,-492 843.5,-498 837.5,-504 831.5,-504"/>
<text text-anchor="middle" x="763" y="-483.5" font-family="Arial" font-size="10.00">i.a: cambia el estado a NORMAL</text>
</g>
<!-- H_3_a&#45;&gt;H_3_b -->
<g id="edge18" class="edge">
<title>H_3_a&#45;&gt;H_3_b</title>
<path fill="none" stroke="#555555" d="M744.67,-551.84C748.28,-537.15 752,-522 752,-522 752,-522 753.11,-518.47 754.62,-513.66"/>
<polygon fill="#555555" stroke="#555555" points="757.97,-514.68 757.63,-504.09 751.29,-512.58 757.97,-514.68"/>
<text text-anchor="middle" x="756.5" y="-524.8" font-family="Arial" font-size="9.00">Sí</text>
</g>
<!-- H_3_c -->
<g id="node21" class="node">
<title>H_3_c</title>
<path fill="#f5f5f5" stroke="#333333" d="M627,-504C627,-504 505,-504 505,-504 499,-504 493,-498 493,-492 493,-492 493,-480 493,-480 493,-474 499,-468 505,-468 505,-468 627,-468 627,-468 633,-468 639,-474 639,-480 639,-480 639,-492 639,-492 639,-498 633,-504 627,-504"/>
<text text-anchor="middle" x="566" y="-483.5" font-family="Arial" font-size="10.00">i.a: cambia el estado a MATE</text>
</g>
<!-- H_3_a&#45;&gt;H_3_c -->
<g id="edge19" class="edge">
<title>H_3_a&#45;&gt;H_3_c</title>
<path fill="none" stroke="#555555" d="M704.02,-560.82C676.07,-545.87 636.38,-524.65 606.73,-508.79"/>
<polygon fill="#555555" stroke="#555555" points="608.35,-505.68 597.88,-504.05 605.05,-511.85 608.35,-505.68"/>
<text text-anchor="middle" x="652.5" y="-524.8" font-family="Arial" font-size="9.00">No</text>
</g>
<!-- H_3_b&#45;&gt;H_end -->
<g id="edge26" class="edge">
<title>H_3_b&#45;&gt;H_end</title>
<path fill="none" stroke="#555555" d="M763,-467.81C763,-459.79 763,-450.05 763,-441.07"/>
<polygon fill="#555555" stroke="#555555" points="766.5,-441.03 763,-431.03 759.5,-441.03 766.5,-441.03"/>
</g>
<!-- H_3_c&#45;&gt;H_end -->
<g id="edge27" class="edge">
<title>H_3_c&#45;&gt;H_end</title>
<path fill="none" stroke="#555555" d="M613.19,-467.99C641,-457.97 676.4,-445.21 705.8,-434.62"/>
<polygon fill="#555555" stroke="#555555" points="707.29,-437.8 715.52,-431.11 704.92,-431.21 707.29,-437.8"/>
</g>
<!-- M_1_a -->
<g id="node24" class="node">
<title>M_1_a</title>
<path fill="#f5f5f5" stroke="#333333" d="M1105,-1265C1105,-1265 999,-1265 999,-1265 993,-1265 987,-1259 987,-1253 987,-1253 987,-1241 987,-1241 987,-1235 993,-1229 999,-1229 999,-1229 1105,-1229 1105,-1229 1111,-1229 1117,-1235 1117,-1241 1117,-1241 1117,-1253 1117,-1253 1117,-1259 1111,-1265 1105,-1265"/>
<text text-anchor="middle" x="1052" y="-1244.5" font-family="Arial" font-size="10.00">1: poner mateTarget a null</text>
</g>
<!-- M_1&#45;&gt;M_1_a -->
<g id="edge28" class="edge">
<title>M_1&#45;&gt;M_1_a</title>
<path fill="none" stroke="#555555" d="M1055.37,-1312C1054.71,-1299.43 1054.02,-1286.41 1053.44,-1275.42"/>
<polygon fill="#555555" stroke="#555555" points="1056.93,-1275 1052.9,-1265.19 1049.94,-1275.36 1056.93,-1275"/>
<text text-anchor="middle" x="1058.5" y="-1285.8" font-family="Arial" font-size="9.00">Sí</text>
</g>
<!-- M_2 -->
<g id="node25" class="node">
<title>M_2</title>
<path fill="#f5f5f5" stroke="#333333" d="M1189.21,-1156.75C1189.21,-1156.75 1118.64,-1143.25 1118.64,-1143.25 1112.75,-1142.13 1112.75,-1139.87 1118.64,-1138.75 1118.64,-1138.75 1189.21,-1125.25 1189.21,-1125.25 1195.11,-1124.13 1206.89,-1124.13 1212.79,-1125.25 1212.79,-1125.25 1283.36,-1138.75 1283.36,-1138.75 1289.25,-1139.87 1289.25,-1142.13 1283.36,-1143.25 1283.36,-1143.25 1212.79,-1156.75 1212.79,-1156.75 1206.89,-1157.87 1195.11,-1157.87 1189.21,-1156.75"/>
<text text-anchor="middle" x="1201" y="-1138.5" font-family="Arial" font-size="10.00">2: mateTarget es null?</text>
</g>
<!-- M_1&#45;&gt;M_2 -->
<g id="edge44" class="edge">
<title>M_1&#45;&gt;M_2</title>
<path fill="none" stroke="#555555" d="M1090.48,-1323.11C1113.01,-1296.12 1139,-1265 1139,-1265 1139,-1265 1170.3,-1202.9 1188.42,-1166.95"/>
<polygon fill="#555555" stroke="#555555" points="1191.77,-1168.08 1193.15,-1157.58 1185.52,-1164.93 1191.77,-1168.08"/>
<text text-anchor="middle" x="1166.5" y="-1244.8" font-family="Arial" font-size="9.00">No</text>
</g>
<!-- M_1_a&#45;&gt;M_2 -->
<g id="edge43" class="edge">
<title>M_1_a&#45;&gt;M_2</title>
<path fill="none" stroke="#555555" d="M1076.6,-1228.83C1103.16,-1210.29 1145.36,-1180.84 1173.12,-1161.46"/>
<polygon fill="#555555" stroke="#555555" points="1175.39,-1164.14 1181.59,-1155.55 1171.38,-1158.4 1175.39,-1164.14"/>
</g>
<!-- M_2_a -->
<g id="node26" class="node">
<title>M_2_a</title>
<path fill="#f5f5f5" stroke="#333333" d="M1320,-1032C1320,-1032 1164,-1032 1164,-1032 1158,-1032 1152,-1026 1152,-1020 1152,-1020 1152,-1008 1152,-1008 1152,-1002 1158,-996 1164,-996 1164,-996 1320,-996 1320,-996 1326,-996 1332,-1002 1332,-1008 1332,-1008 1332,-1020 1332,-1020 1332,-1026 1326,-1032 1320,-1032"/>
<text text-anchor="middle" x="1242" y="-1011.5" font-family="Arial" font-size="10.00">2: buscar un animal para emparejarse</text>
</g>
<!-- M_2&#45;&gt;M_2_a -->
<g id="edge29" class="edge">
<title>M_2&#45;&gt;M_2_a</title>
<path fill="none" stroke="#555555" d="M1206.28,-1123.91C1213.08,-1103.17 1225.01,-1066.79 1233.2,-1041.82"/>
<polygon fill="#555555" stroke="#555555" points="1236.56,-1042.82 1236.35,-1032.23 1229.91,-1040.64 1236.56,-1042.82"/>
<text text-anchor="middle" x="1223.5" y="-1085.8" font-family="Arial" font-size="9.00">Sí</text>
</g>
<!-- M_2_d -->
<g id="node29" class="node">
<title>M_2_d</title>
<path fill="#f5f5f5" stroke="#333333" d="M1068,-1032C1068,-1032 1038,-1032 1038,-1032 1032,-1032 1026,-1026 1026,-1020 1026,-1020 1026,-1008 1026,-1008 1026,-1002 1032,-996 1038,-996 1038,-996 1068,-996 1068,-996 1074,-996 1080,-1002 1080,-1008 1080,-1008 1080,-1020 1080,-1020 1080,-1026 1074,-1032 1068,-1032"/>
<text text-anchor="middle" x="1053" y="-1011.5" font-family="Arial" font-size="10.00">2.i &#45; 2.v</text>
</g>
<!-- M_2&#45;&gt;M_2_d -->
<g id="edge32" class="edge">
<title>M_2&#45;&gt;M_2_d</title>
<path fill="none" stroke="#555555" d="M1184.31,-1125.9C1159.19,-1104.69 1111.36,-1064.29 1080.89,-1038.55"/>
<polygon fill="#555555" stroke="#555555" points="1083.06,-1035.81 1073.16,-1032.03 1078.54,-1041.15 1083.06,-1035.81"/>
<text text-anchor="middle" x="1150.5" y="-1085.8" font-family="Arial" font-size="9.00">No</text>
</g>
<!-- M_2_b -->
<g id="node27" class="node">
<title>M_2_b</title>
<path fill="#f5f5f5" stroke="#333333" d="M1268.21,-912.75C1268.21,-912.75 1197.64,-899.25 1197.64,-899.25 1191.75,-898.13 1191.75,-895.87 1197.64,-894.75 1197.64,-894.75 1268.21,-881.25 1268.21,-881.25 1274.11,-880.13 1285.89,-880.13 1291.79,-881.25 1291.79,-881.25 1362.36,-894.75 1362.36,-894.75 1368.25,-895.87 1368.25,-898.13 1362.36,-899.25 1362.36,-899.25 1291.79,-912.75 1291.79,-912.75 1285.89,-913.87 1274.11,-913.87 1268.21,-912.75"/>
<text text-anchor="middle" x="1280" y="-894.5" font-family="Arial" font-size="10.00">2: mateTarget es null?</text>
</g>
<!-- M_2_a&#45;&gt;M_2_b -->
<g id="edge30" class="edge">
<title>M_2_a&#45;&gt;M_2_b</title>
<path fill="none" stroke="#555555" d="M1247.77,-995.53C1254.08,-976.44 1264.25,-945.65 1271.48,-923.78"/>
<polygon fill="#555555" stroke="#555555" points="1274.85,-924.73 1274.67,-914.14 1268.21,-922.54 1274.85,-924.73"/>
</g>
<!-- M_2_c -->
<g id="node28" class="node">
<title>M_2_c</title>
<path fill="#f5f5f5" stroke="#333333" d="M1222,-810C1222,-810 1186,-810 1186,-810 1180,-810 1174,-804 1174,-798 1174,-798 1174,-786 1174,-786 1174,-780 1180,-774 1186,-774 1186,-774 1222,-774 1222,-774 1228,-774 1234,-780 1234,-786 1234,-786 1234,-798 1234,-798 1234,-804 1228,-810 1222,-810"/>
<text text-anchor="middle" x="1204" y="-789.5" font-family="Arial" font-size="10.00">2: Avanza</text>
</g>
<!-- M_2_b&#45;&gt;M_2_c -->
<g id="edge31" class="edge">
<title>M_2_b&#45;&gt;M_2_c</title>
<path fill="none" stroke="#555555" d="M1268.79,-880.8C1256.7,-864.42 1237.26,-838.08 1222.83,-818.51"/>
<polygon fill="#555555" stroke="#555555" points="1225.54,-816.3 1216.78,-810.33 1219.91,-820.45 1225.54,-816.3"/>
<text text-anchor="middle" x="1239.5" y="-830.8" font-family="Arial" font-size="9.00">Sí</text>
</g>
<!-- M_3 -->
<g id="node36" class="node">
<title>M_3</title>
<path fill="#f5f5f5" stroke="#333333" d="M1234.59,-333.28C1234.59,-333.28 1165.41,-310.72 1165.41,-310.72 1159.7,-308.86 1159.7,-305.14 1165.41,-303.28 1165.41,-303.28 1234.59,-280.72 1234.59,-280.72 1240.3,-278.86 1251.7,-278.86 1257.41,-280.72 1257.41,-280.72 1326.59,-303.28 1326.59,-303.28 1332.3,-305.14 1332.3,-308.86 1326.59,-310.72 1326.59,-310.72 1257.41,-333.28 1257.41,-333.28 1251.7,-335.14 1240.3,-335.14 1234.59,-333.28"/>
<text text-anchor="middle" x="1246" y="-310" font-family="Arial" font-size="10.00">3: su energía es </text>
<text text-anchor="middle" x="1246" y="-299" font-family="Arial" font-size="10.00"> menor que 50.0?</text>
</g>
<!-- M_2_b&#45;&gt;M_3 -->
<g id="edge45" class="edge">
<title>M_2_b&#45;&gt;M_3</title>
<path fill="none" stroke="#555555" d="M1294.46,-881.68C1323.04,-853.38 1384,-793 1384,-793 1384,-793 1384,-793 1384,-412 1384,-412 1321.94,-365.23 1281.06,-334.42"/>
<polygon fill="#555555" stroke="#555555" points="1283.03,-331.52 1272.94,-328.3 1278.82,-337.11 1283.03,-331.52"/>
<text text-anchor="middle" x="1390.5" y="-577.8" font-family="Arial" font-size="9.00">No</text>
</g>
<!-- M_2_c&#45;&gt;M_3 -->
<g id="edge46" class="edge">
<title>M_2_c&#45;&gt;M_3</title>
<path fill="none" stroke="#555555" d="M1203.01,-773.83C1201.31,-744.29 1198,-687 1198,-687 1198,-687 1198,-687 1198,-412 1198,-412 1215.95,-373.1 1229.9,-342.89"/>
<polygon fill="#555555" stroke="#555555" points="1233.25,-343.99 1234.26,-333.44 1226.89,-341.05 1233.25,-343.99"/>
</g>
<!-- M_2_e -->
<g id="node30" class="node">
<title>M_2_e</title>
<path fill="#f5f5f5" stroke="#333333" d="M1020.74,-933.84C1020.74,-933.84 932.26,-901.16 932.26,-901.16 926.63,-899.08 926.63,-894.92 932.26,-892.84 932.26,-892.84 1020.74,-860.16 1020.74,-860.16 1026.37,-858.08 1037.63,-858.08 1043.26,-860.16 1043.26,-860.16 1131.74,-892.84 1131.74,-892.84 1137.37,-894.92 1137.37,-899.08 1131.74,-901.16 1131.74,-901.16 1043.26,-933.84 1043.26,-933.84 1037.63,-935.92 1026.37,-935.92 1020.74,-933.84"/>
<text text-anchor="middle" x="1032" y="-905.5" font-family="Arial" font-size="10.00">vi :la distancia del </text>
<text text-anchor="middle" x="1032" y="-894.5" font-family="Arial" font-size="10.00"> animal a mateTarget </text>
<text text-anchor="middle" x="1032" y="-883.5" font-family="Arial" font-size="10.00"> es menor que 8.0?</text>
</g>
<!-- M_2_d&#45;&gt;M_2_e -->
<g id="edge33" class="edge">
<title>M_2_d&#45;&gt;M_2_e</title>
<path fill="none" stroke="#555555" d="M1049.81,-995.53C1047.39,-982.3 1043.95,-963.44 1040.73,-945.83"/>
<polygon fill="#555555" stroke="#555555" points="1044.12,-944.87 1038.88,-935.66 1037.23,-946.13 1044.12,-944.87"/>
</g>
<!-- M_2_f -->
<g id="node31" class="node">
<title>M_2_f</title>
<path fill="#f5f5f5" stroke="#333333" d="M1108,-810C1108,-810 956,-810 956,-810 950,-810 944,-804 944,-798 944,-798 944,-786 944,-786 944,-780 950,-774 956,-774 956,-774 1108,-774 1108,-774 1114,-774 1120,-780 1120,-786 1120,-786 1120,-798 1120,-798 1120,-804 1114,-810 1108,-810"/>
<text text-anchor="start" x="952" y="-795" font-family="Arial" font-size="10.00">2.vi.a: Resetear el deseo del animal </text>
<text text-anchor="middle" x="1032" y="-784" font-family="Arial" font-size="10.00"> y del mateTarget a 0.0</text>
</g>
<!-- M_2_e&#45;&gt;M_2_f -->
<g id="edge34" class="edge">
<title>M_2_e&#45;&gt;M_2_f</title>
<path fill="none" stroke="#555555" d="M1032,-855.88C1032,-843.94 1032,-831.13 1032,-820.21"/>
<polygon fill="#555555" stroke="#555555" points="1035.5,-820.02 1032,-810.02 1028.5,-820.02 1035.5,-820.02"/>
<text text-anchor="middle" x="1036.5" y="-830.8" font-family="Arial" font-size="9.00">Sí</text>
</g>
<!-- M_2_e&#45;&gt;M_3 -->
<g id="edge47" class="edge">
<title>M_2_e&#45;&gt;M_3</title>
<path fill="none" stroke="#555555" d="M1091.82,-877.87C1126.75,-867.29 1164,-856 1164,-856 1164,-856 1254,-838 1254,-838 1254,-838 1285,-793 1285,-793 1285,-793 1285,-793 1285,-412 1285,-412 1270.58,-373.55 1259.28,-343.41"/>
<polygon fill="#555555" stroke="#555555" points="1262.53,-342.11 1255.74,-333.98 1255.97,-344.57 1262.53,-342.11"/>
<text text-anchor="middle" x="1291.5" y="-577.8" font-family="Arial" font-size="9.00">No</text>
</g>
<!-- M_2_g -->
<g id="node32" class="node">
<title>M_2_g</title>
<path fill="#f5f5f5" stroke="#333333" d="M1020.18,-701.92C1020.18,-701.92 941.52,-688.08 941.52,-688.08 935.62,-687.04 935.62,-684.96 941.52,-683.92 941.52,-683.92 1020.18,-670.08 1020.18,-670.08 1026.09,-669.04 1037.91,-669.04 1043.82,-670.08 1043.82,-670.08 1122.48,-683.92 1122.48,-683.92 1128.38,-684.96 1128.38,-687.04 1122.48,-688.08 1122.48,-688.08 1043.82,-701.92 1043.82,-701.92 1037.91,-702.96 1026.09,-702.96 1020.18,-701.92"/>
<text text-anchor="middle" x="1032" y="-683.5" font-family="Arial" font-size="10.00">2.vi.b: lleva un bebé ya?</text>
</g>
<!-- M_2_f&#45;&gt;M_2_g -->
<g id="edge35" class="edge">
<title>M_2_f&#45;&gt;M_2_g</title>
<path fill="none" stroke="#555555" d="M1032,-773.83C1032,-757.64 1032,-733.13 1032,-714.27"/>
<polygon fill="#555555" stroke="#555555" points="1035.5,-714.2 1032,-704.2 1028.5,-714.2 1035.5,-714.2"/>
</g>
<!-- M_2_h -->
<g id="node33" class="node">
<title>M_2_h</title>
<path fill="#f5f5f5" stroke="#333333" d="M1141.5,-606C1141.5,-606 1028.5,-606 1028.5,-606 1022.5,-606 1016.5,-600 1016.5,-594 1016.5,-594 1016.5,-566 1016.5,-566 1016.5,-560 1022.5,-554 1028.5,-554 1028.5,-554 1141.5,-554 1141.5,-554 1147.5,-554 1153.5,-560 1153.5,-566 1153.5,-566 1153.5,-594 1153.5,-594 1153.5,-600 1147.5,-606 1141.5,-606"/>
<text text-anchor="start" x="1024.5" y="-594" font-family="Arial" font-size="10.00">2.vi.b: con probabilidad </text>
<text text-anchor="start" x="1024.5" y="-583" font-family="Arial" font-size="10.00"> de 0.9 va a llevar a </text>
<text text-anchor="start" x="1024.5" y="-572" font-family="Arial" font-size="10.00"> un nuevo bebé usando </text>
<text text-anchor="middle" x="1085" y="-561" font-family="Arial" font-size="10.00"> new Wolf(this, mateTarget)</text>
</g>
<!-- M_2_g&#45;&gt;M_2_h -->
<g id="edge36" class="edge">
<title>M_2_g&#45;&gt;M_2_h</title>
<path fill="none" stroke="#555555" d="M1040.05,-669.2C1047.3,-654.98 1058.21,-633.57 1067.46,-615.41"/>
<polygon fill="#555555" stroke="#555555" points="1070.7,-616.77 1072.12,-606.27 1064.46,-613.59 1070.7,-616.77"/>
<text text-anchor="middle" x="1066.5" y="-630.8" font-family="Arial" font-size="9.00">No</text>
</g>
<!-- M_2_i -->
<g id="node34" class="node">
<title>M_2_i</title>
<path fill="#f5f5f5" stroke="#333333" d="M1142,-504C1142,-504 1012,-504 1012,-504 1006,-504 1000,-498 1000,-492 1000,-492 1000,-480 1000,-480 1000,-474 1006,-468 1012,-468 1012,-468 1142,-468 1142,-468 1148,-468 1154,-474 1154,-480 1154,-480 1154,-492 1154,-492 1154,-498 1148,-504 1142,-504"/>
<text text-anchor="middle" x="1077" y="-483.5" font-family="Arial" font-size="10.00">2.vi.c: Quitar 10.0 de la energía</text>
</g>
<!-- M_2_g&#45;&gt;M_2_i -->
<g id="edge37" class="edge">
<title>M_2_g&#45;&gt;M_2_i</title>
<path fill="none" stroke="#555555" d="M1022.47,-669.46C1009,-647.49 986,-610 986,-610 986,-610 986,-550 986,-550 986,-550 1017.63,-528.1 1043.6,-510.12"/>
<polygon fill="#555555" stroke="#555555" points="1045.9,-512.78 1052.13,-504.22 1041.92,-507.03 1045.9,-512.78"/>
<text text-anchor="middle" x="990.5" y="-577.8" font-family="Arial" font-size="9.00">Sí</text>
</g>
<!-- M_2_h&#45;&gt;M_2_i -->
<g id="edge38" class="edge">
<title>M_2_h&#45;&gt;M_2_i</title>
<path fill="none" stroke="#555555" d="M1082.81,-553.86C1081.75,-541.68 1080.48,-527.03 1079.4,-514.54"/>
<polygon fill="#555555" stroke="#555555" points="1082.85,-513.91 1078.5,-504.25 1075.88,-514.52 1082.85,-513.91"/>
</g>
<!-- M_2_ii -->
<g id="node35" class="node">
<title>M_2_ii</title>
<path fill="#f5f5f5" stroke="#333333" d="M1141,-431C1141,-431 1015,-431 1015,-431 1009,-431 1003,-425 1003,-419 1003,-419 1003,-407 1003,-407 1003,-401 1009,-395 1015,-395 1015,-395 1141,-395 1141,-395 1147,-395 1153,-401 1153,-407 1153,-407 1153,-419 1153,-419 1153,-425 1147,-431 1141,-431"/>
<text text-anchor="middle" x="1078" y="-410.5" font-family="Arial" font-size="10.00">2.vi.d: Poner mateTarget a null</text>
</g>
<!-- M_2_i&#45;&gt;M_2_ii -->
<g id="edge39" class="edge">
<title>M_2_i&#45;&gt;M_2_ii</title>
<path fill="none" stroke="#555555" d="M1077.24,-467.81C1077.36,-459.79 1077.49,-450.05 1077.62,-441.07"/>
<polygon fill="#555555" stroke="#555555" points="1081.12,-441.08 1077.76,-431.03 1074.12,-440.98 1081.12,-441.08"/>
</g>
<!-- M_2_ii&#45;&gt;M_3 -->
<g id="edge48" class="edge">
<title>M_2_ii&#45;&gt;M_3</title>
<path fill="none" stroke="#555555" d="M1105.74,-394.83C1133.14,-377.87 1175.32,-351.76 1206.27,-332.6"/>
<polygon fill="#555555" stroke="#555555" points="1208.42,-335.38 1215.08,-327.14 1204.73,-329.43 1208.42,-335.38"/>
</g>
<!-- M_3_a -->
<g id="node37" class="node">
<title>M_3_a</title>
<path fill="#f5f5f5" stroke="#333333" d="M1108.5,-219C1108.5,-219 971.5,-219 971.5,-219 965.5,-219 959.5,-213 959.5,-207 959.5,-207 959.5,-195 959.5,-195 959.5,-189 965.5,-183 971.5,-183 971.5,-183 1108.5,-183 1108.5,-183 1114.5,-183 1120.5,-189 1120.5,-195 1120.5,-195 1120.5,-207 1120.5,-207 1120.5,-213 1114.5,-219 1108.5,-219"/>
<text text-anchor="middle" x="1040" y="-198.5" font-family="Arial" font-size="10.00">3: cambia de estado a HUNGER</text>
</g>
<!-- M_3&#45;&gt;M_3_a -->
<g id="edge40" class="edge">
<title>M_3&#45;&gt;M_3_a</title>
<path fill="none" stroke="#555555" d="M1211.05,-288.36C1175.71,-270.51 1121.01,-242.9 1083.02,-223.72"/>
<polygon fill="#555555" stroke="#555555" points="1084.25,-220.42 1073.75,-219.04 1081.1,-226.67 1084.25,-220.42"/>
<text text-anchor="middle" x="1153.5" y="-251.8" font-family="Arial" font-size="9.00">Sí</text>
</g>
<!-- M_3_b -->
<g id="node38" class="node">
<title>M_3_b</title>
<path fill="#f5f5f5" stroke="#333333" d="M1244.59,-227.28C1244.59,-227.28 1175.41,-204.72 1175.41,-204.72 1169.7,-202.86 1169.7,-199.14 1175.41,-197.28 1175.41,-197.28 1244.59,-174.72 1244.59,-174.72 1250.3,-172.86 1261.7,-172.86 1267.41,-174.72 1267.41,-174.72 1336.59,-197.28 1336.59,-197.28 1342.3,-199.14 1342.3,-202.86 1336.59,-204.72 1336.59,-204.72 1267.41,-227.28 1267.41,-227.28 1261.7,-229.14 1250.3,-229.14 1244.59,-227.28"/>
<text text-anchor="middle" x="1256" y="-204" font-family="Arial" font-size="10.00">3: su deseo es </text>
<text text-anchor="middle" x="1256" y="-193" font-family="Arial" font-size="10.00"> menor que 65.0?</text>
</g>
<!-- M_3&#45;&gt;M_3_b -->
<g id="edge41" class="edge">
<title>M_3&#45;&gt;M_3_b</title>
<path fill="none" stroke="#555555" d="M1248.71,-277.86C1249.82,-266.29 1251.12,-252.72 1252.32,-240.28"/>
<polygon fill="#555555" stroke="#555555" points="1255.82,-240.46 1253.29,-230.17 1248.85,-239.79 1255.82,-240.46"/>
<text text-anchor="middle" x="1257.5" y="-251.8" font-family="Arial" font-size="9.00">No</text>
</g>
<!-- M_end -->
<g id="node40" class="node">
<title>M_end</title>
<path fill="#f5f5f5" stroke="#333333" d="M1204,-52C1204,-52 1134,-52 1134,-52 1128,-52 1122,-46 1122,-40 1122,-40 1122,-28 1122,-28 1122,-22 1128,-16 1134,-16 1134,-16 1204,-16 1204,-16 1210,-16 1216,-22 1216,-28 1216,-28 1216,-40 1216,-40 1216,-46 1210,-52 1204,-52"/>
<text text-anchor="middle" x="1169" y="-31.5" font-family="Arial" font-size="10.00">Fin Estado MATE</text>
</g>
<!-- M_3_a&#45;&gt;M_end -->
<g id="edge50" class="edge">
<title>M_3_a&#45;&gt;M_end</title>
<path fill="none" stroke="#555555" d="M1069.33,-182.77C1092.17,-169.35 1120,-153 1120,-153 1120,-153 1147,-125 1147,-125 1147,-125 1155.86,-88.76 1162.33,-62.28"/>
<polygon fill="#555555" stroke="#555555" points="1165.78,-62.9 1164.76,-52.35 1158.98,-61.24 1165.78,-62.9"/>
</g>
<!-- M_3_c -->
<g id="node39" class="node">
<title>M_3_c</title>
<path fill="#f5f5f5" stroke="#333333" d="M1113.5,-125C1113.5,-125 978.5,-125 978.5,-125 972.5,-125 966.5,-119 966.5,-113 966.5,-113 966.5,-101 966.5,-101 966.5,-95 972.5,-89 978.5,-89 978.5,-89 1113.5,-89 1113.5,-89 1119.5,-89 1125.5,-95 1125.5,-101 1125.5,-101 1125.5,-113 1125.5,-113 1125.5,-119 1119.5,-125 1113.5,-125"/>
<text text-anchor="middle" x="1046" y="-104.5" font-family="Arial" font-size="10.00">3: cambia de estado a NORMAL</text>
</g>
<!-- M_3_b&#45;&gt;M_3_c -->
<g id="edge42" class="edge">
<title>M_3_b&#45;&gt;M_3_c</title>
<path fill="none" stroke="#555555" d="M1209.91,-186.03C1164.22,-172.17 1101,-153 1101,-153 1101,-153 1087.98,-142.35 1074.61,-131.41"/>
<polygon fill="#555555" stroke="#555555" points="1076.75,-128.64 1066.79,-125.01 1072.32,-134.05 1076.75,-128.64"/>
<text text-anchor="middle" x="1105.5" y="-145.8" font-family="Arial" font-size="9.00">Sí</text>
</g>
<!-- M_3_b&#45;&gt;M_end -->
<g id="edge49" class="edge">
<title>M_3_b&#45;&gt;M_end</title>
<path fill="none" stroke="#555555" d="M1242.79,-174.94C1226.59,-144.22 1199.27,-92.41 1182.81,-61.18"/>
<polygon fill="#555555" stroke="#555555" points="1185.83,-59.41 1178.07,-52.2 1179.64,-62.68 1185.83,-59.41"/>
<text text-anchor="middle" x="1221.5" y="-104.8" font-family="Arial" font-size="9.00">No</text>
</g>
<!-- M_3_c&#45;&gt;M_end -->
<g id="edge51" class="edge">
<title>M_3_c&#45;&gt;M_end</title>
<path fill="none" stroke="#555555" d="M1075.46,-88.99C1091.92,-79.49 1112.63,-67.54 1130.38,-57.29"/>
<polygon fill="#555555" stroke="#555555" points="1132.44,-60.14 1139.35,-52.11 1128.94,-54.08 1132.44,-60.14"/>
</g>
</g>
</svg>
